<mxfile host="app.diagrams.net" agent="Mozilla/5.0 (Macintosh; Intel Mac OS X 10.15; rv:138.0) Gecko/20100101 Firefox/138.0" version="27.0.6">
  <diagram name="Страница — 1" id="Ek2cA0dTdHa3OUmwrtpl">
    <mxGraphModel dx="1248" dy="1891" grid="1" gridSize="10" guides="1" tooltips="1" connect="1" arrows="1" fold="1" page="1" pageScale="1" pageWidth="827" pageHeight="1169" math="0" shadow="0">
      <root>
        <mxCell id="0" />
        <mxCell id="1" parent="0" />
        <UserObject label="" plantUmlData="{&#xa;  &quot;data&quot;: &quot;@startuml\nskinparam sequence {\n  ParticipantBackgroundColor #EFF4FC\n  ParticipantBorderColor #5B9BD5\n  ActorBackgroundColor #FFC000\n  ActorBorderColor #FF9900\n  LifeLineBorderColor #70AD47\n  ArrowColor #4472C4\n}\n\n&#39; Паттерн 1: Посредник (Mediator)\nactor Пользователь as User\nparticipant \&quot;ПоисковыйПосредник\&quot; as Mediator #FF9999\nnote right of Mediator: Паттерн Посредник\\nКоординирует взаимодействие\\nмежду компонентами\n\n&#39; Паттерн 2: Команда (Command)\nparticipant \&quot;ПоисковаяКоманда\&quot; as Command #99CCFF\nnote left of Command: Паттерн Команда\\nИнкапсулирует запрос\\nкак объект\n\n&#39; Паттерн 3: Наблюдатель (Observer)\nparticipant \&quot;СистемаУведомлений\&quot; as Observer #99FF99\nnote right of Observer: Паттерн Наблюдатель\\nУведомляет о новых\\nобъектах недвижимости\n\nparticipant \&quot;БазаДанных\&quot; as DB\n\nUser -&gt; Mediator: Ввод параметров поиска (цена, локация)\nactivate Mediator\n\nMediator -&gt; Command: Создать команду поиска\nactivate Command\nCommand -&gt; DB: Выполнить запрос (SELECT...)\nactivate DB\nDB --&gt; Command: Результаты (10 объектов)\ndeactivate DB\nCommand --&gt; Mediator: Возврат результатов\ndeactivate Command\n\nMediator -&gt; Observer: Уведомить о новых объектах\nactivate Observer\nObserver --&gt; User: Email с новыми предложениями\ndeactivate Observer\n\nMediator --&gt; User: Показать результаты\ndeactivate Mediator\n\n&#39; Фрагмент с условием\nalt Найдены результаты\n    User -&gt; Mediator: Выбрать объект\n    Mediator -&gt; DB: Запросить детали\n    DB --&gt; Mediator: Полная информация\n    Mediator --&gt; User: Показать детали\nelse Нет результатов\n    Mediator --&gt; User: \&quot;Ничего не найдено\&quot;\nend\n@enduml&quot;,&#xa;  &quot;format&quot;: &quot;svg&quot;&#xa;}" id="C0xiIDpPcYKSjnHRzMrc-1">
          <mxCell style="shape=image;noLabel=1;verticalAlign=top;aspect=fixed;imageAspect=0;image=data:image/svg+xml,PHN2ZyB4bWxucz0iaHR0cDovL3d3dy53My5vcmcvMjAwMC9zdmciIHhtbG5zOnhsaW5rPSJodHRwOi8vd3d3LnczLm9yZy8xOTk5L3hsaW5rIiBjb250ZW50U3R5bGVUeXBlPSJ0ZXh0L2NzcyIgZGF0YS1kaWFncmFtLXR5cGU9IlNFUVVFTkNFIiBoZWlnaHQ9Ijc3MXB4IiBwcmVzZXJ2ZUFzcGVjdFJhdGlvPSJub25lIiBzdHlsZT0id2lkdGg6ODMycHg7aGVpZ2h0Ojc3MXB4O2JhY2tncm91bmQ6I0ZGRkZGRjsiIHZlcnNpb249IjEuMSIgdmlld0JveD0iMCAwIDgzMiA3NzEiIHdpZHRoPSI4MzJweCIgem9vbUFuZFBhbj0ibWFnbmlmeSI+PGRlZnMvPjxnPjxnPjx0aXRsZT4mIzEwNTU7JiMxMDg2OyYjMTA4MDsmIzEwODk7JiMxMDgyOyYjMTA4NjsmIzEwNzQ7JiMxMDk5OyYjMTA4MTsmIzEwNTU7JiMxMDg2OyYjMTA4OTsmIzEwODg7JiMxMDc3OyYjMTA3NjsmIzEwODU7JiMxMDgwOyYjMTA4Mjs8L3RpdGxlPjxyZWN0IGZpbGw9IiNGRkZGRkYiIGhlaWdodD0iMTk1LjM5ODQiIHN0eWxlPSJzdHJva2U6IzcwQUQ0NztzdHJva2Utd2lkdGg6MTsiIHdpZHRoPSIxMCIgeD0iMzMxIiB5PSIyOTUuMTI1Ii8+PC9nPjxnPjx0aXRsZT4mIzEwNTU7JiMxMDg2OyYjMTA4MDsmIzEwODk7JiMxMDgyOyYjMTA4NjsmIzEwNzQ7JiMxMDcyOyYjMTEwMzsmIzEwNTA7JiMxMDg2OyYjMTA4NDsmIzEwNzI7JiMxMDg1OyYjMTA3NjsmIzEwNzI7PC90aXRsZT48cmVjdCBmaWxsPSIjRkZGRkZGIiBoZWlnaHQ9IjgzLjc0MjIiIHN0eWxlPSJzdHJva2U6IzcwQUQ0NztzdHJva2Utd2lkdGg6MTsiIHdpZHRoPSIxMCIgeD0iNTAzIiB5PSIzMjMuMDM5MSIvPjwvZz48Zz48dGl0bGU+JiMxMDU3OyYjMTA4MDsmIzEwODk7JiMxMDkwOyYjMTA3NzsmIzEwODQ7JiMxMDcyOyYjMTA1OTsmIzEwNzQ7JiMxMDc3OyYjMTA3NjsmIzEwODY7JiMxMDg0OyYjMTA4MzsmIzEwNzc7JiMxMDg1OyYjMTA4MDsmIzEwODE7PC90aXRsZT48cmVjdCBmaWxsPSIjRkZGRkZGIiBoZWlnaHQ9IjI3LjkxNDEiIHN0eWxlPSJzdHJva2U6IzcwQUQ0NztzdHJva2Utd2lkdGg6MTsiIHdpZHRoPSIxMCIgeD0iNjQ2IiB5PSI0MzQuNjk1MyIvPjwvZz48Zz48dGl0bGU+JiMxMDQxOyYjMTA3MjsmIzEwNzk7JiMxMDcyOyYjMTA0NDsmIzEwNzI7JiMxMDg1OyYjMTA4NTsmIzEwOTk7JiMxMDkzOzwvdGl0bGU+PHJlY3QgZmlsbD0iI0ZGRkZGRiIgaGVpZ2h0PSIyNy45MTQxIiBzdHlsZT0ic3Ryb2tlOiM3MEFENDc7c3Ryb2tlLXdpZHRoOjE7IiB3aWR0aD0iMTAiIHg9Ijc2OCIgeT0iMzUwLjk1MzEiLz48L2c+PHJlY3QgZmlsbD0ibm9uZSIgaGVpZ2h0PSIxNjkuMjU3OCIgc3R5bGU9InN0cm9rZTojMDAwMDAwO3N0cm9rZS13aWR0aDoxLjU7IiB3aWR0aD0iODE1IiB4PSIxMCIgeT0iNTA1LjUyMzQiLz48Zz48dGl0bGU+JiMxMDU1OyYjMTA4NjsmIzEwODM7JiMxMTAwOyYjMTA3OTsmIzEwODY7JiMxMDc0OyYjMTA3MjsmIzEwOTA7JiMxMDc3OyYjMTA4MzsmIzExMDA7PC90aXRsZT48cmVjdCBmaWxsPSIjMDAwMDAwIiBmaWxsLW9wYWNpdHk9IjAuMDAwMDAiIGhlaWdodD0iNjExLjc5NjkiIHdpZHRoPSI4IiB4PSI2MSIgeT0iNzkuOTg0NCIvPjxsaW5lIHN0eWxlPSJzdHJva2U6IzcwQUQ0NztzdHJva2Utd2lkdGg6MC41O3N0cm9rZS1kYXNoYXJyYXk6NS4wLDUuMDsiIHgxPSI2NSIgeDI9IjY1IiB5MT0iNzkuOTg0NCIgeTI9IjY5MS43ODEzIi8+PC9nPjxnPjx0aXRsZT4mIzEwNTU7JiMxMDg2OyYjMTA4MDsmIzEwODk7JiMxMDgyOyYjMTA4NjsmIzEwNzQ7JiMxMDk5OyYjMTA4MTsmIzEwNTU7JiMxMDg2OyYjMTA4OTsmIzEwODg7JiMxMDc3OyYjMTA3NjsmIzEwODU7JiMxMDgwOyYjMTA4Mjs8L3RpdGxlPjxyZWN0IGZpbGw9IiMwMDAwMDAiIGZpbGwtb3BhY2l0eT0iMC4wMDAwMCIgaGVpZ2h0PSI2MTEuNzk2OSIgd2lkdGg9IjgiIHg9IjMzMiIgeT0iNzkuOTg0NCIvPjxsaW5lIHN0eWxlPSJzdHJva2U6IzcwQUQ0NztzdHJva2Utd2lkdGg6MC41O3N0cm9rZS1kYXNoYXJyYXk6NS4wLDUuMDsiIHgxPSIzMzYiIHgyPSIzMzYiIHkxPSI3OS45ODQ0IiB5Mj0iNjkxLjc4MTMiLz48L2c+PGc+PHRpdGxlPiYjMTA1NTsmIzEwODY7JiMxMDgwOyYjMTA4OTsmIzEwODI7JiMxMDg2OyYjMTA3NDsmIzEwNzI7JiMxMTAzOyYjMTA1MDsmIzEwODY7JiMxMDg0OyYjMTA3MjsmIzEwODU7JiMxMDc2OyYjMTA3Mjs8L3RpdGxlPjxyZWN0IGZpbGw9IiMwMDAwMDAiIGZpbGwtb3BhY2l0eT0iMC4wMDAwMCIgaGVpZ2h0PSI2MTEuNzk2OSIgd2lkdGg9IjgiIHg9IjUwNCIgeT0iNzkuOTg0NCIvPjxsaW5lIHN0eWxlPSJzdHJva2U6IzcwQUQ0NztzdHJva2Utd2lkdGg6MC41O3N0cm9rZS1kYXNoYXJyYXk6NS4wLDUuMDsiIHgxPSI1MDgiIHgyPSI1MDgiIHkxPSI3OS45ODQ0IiB5Mj0iNjkxLjc4MTMiLz48L2c+PGc+PHRpdGxlPiYjMTA1NzsmIzEwODA7JiMxMDg5OyYjMTA5MDsmIzEwNzc7JiMxMDg0OyYjMTA3MjsmIzEwNTk7JiMxMDc0OyYjMTA3NzsmIzEwNzY7JiMxMDg2OyYjMTA4NDsmIzEwODM7JiMxMDc3OyYjMTA4NTsmIzEwODA7JiMxMDgxOzwvdGl0bGU+PHJlY3QgZmlsbD0iIzAwMDAwMCIgZmlsbC1vcGFjaXR5PSIwLjAwMDAwIiBoZWlnaHQ9IjYxMS43OTY5IiB3aWR0aD0iOCIgeD0iNjQ3IiB5PSI3OS45ODQ0Ii8+PGxpbmUgc3R5bGU9InN0cm9rZTojNzBBRDQ3O3N0cm9rZS13aWR0aDowLjU7c3Ryb2tlLWRhc2hhcnJheTo1LjAsNS4wOyIgeDE9IjY1MSIgeDI9IjY1MSIgeTE9Ijc5Ljk4NDQiIHkyPSI2OTEuNzgxMyIvPjwvZz48Zz48dGl0bGU+JiMxMDQxOyYjMTA3MjsmIzEwNzk7JiMxMDcyOyYjMTA0NDsmIzEwNzI7JiMxMDg1OyYjMTA4NTsmIzEwOTk7JiMxMDkzOzwvdGl0bGU+PHJlY3QgZmlsbD0iIzAwMDAwMCIgZmlsbC1vcGFjaXR5PSIwLjAwMDAwIiBoZWlnaHQ9IjYxMS43OTY5IiB3aWR0aD0iOCIgeD0iNzY5IiB5PSI3OS45ODQ0Ii8+PGxpbmUgc3R5bGU9InN0cm9rZTojNzBBRDQ3O3N0cm9rZS13aWR0aDowLjU7c3Ryb2tlLWRhc2hhcnJheTo1LjAsNS4wOyIgeDE9Ijc3MyIgeDI9Ijc3MyIgeTE9Ijc5Ljk4NDQiIHkyPSI2OTEuNzgxMyIvPjwvZz48ZyBjbGFzcz0icGFydGljaXBhbnQgcGFydGljaXBhbnQtaGVhZCIgZGF0YS1wYXJ0aWNpcGFudD0iVXNlciI+PHRleHQgZmlsbD0iIzAwMDAwMCIgZm9udC1mYW1pbHk9InNhbnMtc2VyaWYiIGZvbnQtc2l6ZT0iMTQiIGxlbmd0aEFkanVzdD0ic3BhY2luZyIgdGV4dExlbmd0aD0iODQiIHg9IjIwIiB5PSI3OC4yMzQ0Ij4mIzEwNTU7JiMxMDg2OyYjMTA4MzsmIzExMDA7JiMxMDc5OyYjMTA4NjsmIzEwNzQ7JiMxMDcyOyYjMTA5MDsmIzEwNzc7JiMxMDgzOyYjMTEwMDs8L3RleHQ+PGVsbGlwc2UgY3g9IjY1IiBjeT0iMTMuNSIgZmlsbD0iI0ZGQzAwMCIgcng9IjgiIHJ5PSI4IiBzdHlsZT0ic3Ryb2tlOiNGRjk5MDA7c3Ryb2tlLXdpZHRoOjAuNTsiLz48cGF0aCBkPSJNNjUsMjEuNSBMNjUsNDguNSBNNTIsMjkuNSBMNzgsMjkuNSBNNjUsNDguNSBMNTIsNjMuNSBNNjUsNDguNSBMNzgsNjMuNSIgZmlsbD0ibm9uZSIgc3R5bGU9InN0cm9rZTojRkY5OTAwO3N0cm9rZS13aWR0aDowLjU7Ii8+PC9nPjxnIGNsYXNzPSJwYXJ0aWNpcGFudCBwYXJ0aWNpcGFudC10YWlsIiBkYXRhLXBhcnRpY2lwYW50PSJVc2VyIj48dGV4dCBmaWxsPSIjMDAwMDAwIiBmb250LWZhbWlseT0ic2Fucy1zZXJpZiIgZm9udC1zaXplPSIxNCIgbGVuZ3RoQWRqdXN0PSJzcGFjaW5nIiB0ZXh0TGVuZ3RoPSI4NCIgeD0iMjAiIHk9IjcwNC4wMTU2Ij4mIzEwNTU7JiMxMDg2OyYjMTA4MzsmIzExMDA7JiMxMDc5OyYjMTA4NjsmIzEwNzQ7JiMxMDcyOyYjMTA5MDsmIzEwNzc7JiMxMDgzOyYjMTEwMDs8L3RleHQ+PGVsbGlwc2UgY3g9IjY1IiBjeT0iNzE0LjI2NTYiIGZpbGw9IiNGRkMwMDAiIHJ4PSI4IiByeT0iOCIgc3R5bGU9InN0cm9rZTojRkY5OTAwO3N0cm9rZS13aWR0aDowLjU7Ii8+PHBhdGggZD0iTTY1LDcyMi4yNjU2IEw2NSw3NDkuMjY1NiBNNTIsNzMwLjI2NTYgTDc4LDczMC4yNjU2IE02NSw3NDkuMjY1NiBMNTIsNzY0LjI2NTYgTTY1LDc0OS4yNjU2IEw3OCw3NjQuMjY1NiIgZmlsbD0ibm9uZSIgc3R5bGU9InN0cm9rZTojRkY5OTAwO3N0cm9rZS13aWR0aDowLjU7Ii8+PC9nPjxnIGNsYXNzPSJwYXJ0aWNpcGFudCBwYXJ0aWNpcGFudC1oZWFkIiBkYXRhLXBhcnRpY2lwYW50PSJNZWRpYXRvciI+PHJlY3QgZmlsbD0iI0ZGOTk5OSIgaGVpZ2h0PSIyOC45ODQ0IiByeD0iMi41IiByeT0iMi41IiBzdHlsZT0ic3Ryb2tlOiM1QjlCRDU7c3Ryb2tlLXdpZHRoOjAuNTsiIHdpZHRoPSIxNDAiIHg9IjI2NiIgeT0iNTAiLz48dGV4dCBmaWxsPSIjMDAwMDAwIiBmb250LWZhbWlseT0ic2Fucy1zZXJpZiIgZm9udC1zaXplPSIxNCIgbGVuZ3RoQWRqdXN0PSJzcGFjaW5nIiB0ZXh0TGVuZ3RoPSIxMjYiIHg9IjI3MyIgeT0iNzAuMjM0NCI+JiMxMDU1OyYjMTA4NjsmIzEwODA7JiMxMDg5OyYjMTA4MjsmIzEwODY7JiMxMDc0OyYjMTA5OTsmIzEwODE7JiMxMDU1OyYjMTA4NjsmIzEwODk7JiMxMDg4OyYjMTA3NzsmIzEwNzY7JiMxMDg1OyYjMTA4MDsmIzEwODI7PC90ZXh0PjwvZz48ZyBjbGFzcz0icGFydGljaXBhbnQgcGFydGljaXBhbnQtdGFpbCIgZGF0YS1wYXJ0aWNpcGFudD0iTWVkaWF0b3IiPjxyZWN0IGZpbGw9IiNGRjk5OTkiIGhlaWdodD0iMjguOTg0NCIgcng9IjIuNSIgcnk9IjIuNSIgc3R5bGU9InN0cm9rZTojNUI5QkQ1O3N0cm9rZS13aWR0aDowLjU7IiB3aWR0aD0iMTQwIiB4PSIyNjYiIHk9IjY5MC43ODEzIi8+PHRleHQgZmlsbD0iIzAwMDAwMCIgZm9udC1mYW1pbHk9InNhbnMtc2VyaWYiIGZvbnQtc2l6ZT0iMTQiIGxlbmd0aEFkanVzdD0ic3BhY2luZyIgdGV4dExlbmd0aD0iMTI2IiB4PSIyNzMiIHk9IjcxMS4wMTU2Ij4mIzEwNTU7JiMxMDg2OyYjMTA4MDsmIzEwODk7JiMxMDgyOyYjMTA4NjsmIzEwNzQ7JiMxMDk5OyYjMTA4MTsmIzEwNTU7JiMxMDg2OyYjMTA4OTsmIzEwODg7JiMxMDc3OyYjMTA3NjsmIzEwODU7JiMxMDgwOyYjMTA4Mjs8L3RleHQ+PC9nPjxnIGNsYXNzPSJwYXJ0aWNpcGFudCBwYXJ0aWNpcGFudC1oZWFkIiBkYXRhLXBhcnRpY2lwYW50PSJDb21tYW5kIj48cmVjdCBmaWxsPSIjOTlDQ0ZGIiBoZWlnaHQ9IjI4Ljk4NDQiIHJ4PSIyLjUiIHJ5PSIyLjUiIHN0eWxlPSJzdHJva2U6IzVCOUJENTtzdHJva2Utd2lkdGg6MC41OyIgd2lkdGg9IjEyNiIgeD0iNDQ1IiB5PSI1MCIvPjx0ZXh0IGZpbGw9IiMwMDAwMDAiIGZvbnQtZmFtaWx5PSJzYW5zLXNlcmlmIiBmb250LXNpemU9IjE0IiBsZW5ndGhBZGp1c3Q9InNwYWNpbmciIHRleHRMZW5ndGg9IjExMiIgeD0iNDUyIiB5PSI3MC4yMzQ0Ij4mIzEwNTU7JiMxMDg2OyYjMTA4MDsmIzEwODk7JiMxMDgyOyYjMTA4NjsmIzEwNzQ7JiMxMDcyOyYjMTEwMzsmIzEwNTA7JiMxMDg2OyYjMTA4NDsmIzEwNzI7JiMxMDg1OyYjMTA3NjsmIzEwNzI7PC90ZXh0PjwvZz48ZyBjbGFzcz0icGFydGljaXBhbnQgcGFydGljaXBhbnQtdGFpbCIgZGF0YS1wYXJ0aWNpcGFudD0iQ29tbWFuZCI+PHJlY3QgZmlsbD0iIzk5Q0NGRiIgaGVpZ2h0PSIyOC45ODQ0IiByeD0iMi41IiByeT0iMi41IiBzdHlsZT0ic3Ryb2tlOiM1QjlCRDU7c3Ryb2tlLXdpZHRoOjAuNTsiIHdpZHRoPSIxMjYiIHg9IjQ0NSIgeT0iNjkwLjc4MTMiLz48dGV4dCBmaWxsPSIjMDAwMDAwIiBmb250LWZhbWlseT0ic2Fucy1zZXJpZiIgZm9udC1zaXplPSIxNCIgbGVuZ3RoQWRqdXN0PSJzcGFjaW5nIiB0ZXh0TGVuZ3RoPSIxMTIiIHg9IjQ1MiIgeT0iNzExLjAxNTYiPiYjMTA1NTsmIzEwODY7JiMxMDgwOyYjMTA4OTsmIzEwODI7JiMxMDg2OyYjMTA3NDsmIzEwNzI7JiMxMTAzOyYjMTA1MDsmIzEwODY7JiMxMDg0OyYjMTA3MjsmIzEwODU7JiMxMDc2OyYjMTA3Mjs8L3RleHQ+PC9nPjxnIGNsYXNzPSJwYXJ0aWNpcGFudCBwYXJ0aWNpcGFudC1oZWFkIiBkYXRhLXBhcnRpY2lwYW50PSJPYnNlcnZlciI+PHJlY3QgZmlsbD0iIzk5RkY5OSIgaGVpZ2h0PSIyOC45ODQ0IiByeD0iMi41IiByeT0iMi41IiBzdHlsZT0ic3Ryb2tlOiM1QjlCRDU7c3Ryb2tlLXdpZHRoOjAuNTsiIHdpZHRoPSIxNDAiIHg9IjU4MSIgeT0iNTAiLz48dGV4dCBmaWxsPSIjMDAwMDAwIiBmb250LWZhbWlseT0ic2Fucy1zZXJpZiIgZm9udC1zaXplPSIxNCIgbGVuZ3RoQWRqdXN0PSJzcGFjaW5nIiB0ZXh0TGVuZ3RoPSIxMjYiIHg9IjU4OCIgeT0iNzAuMjM0NCI+JiMxMDU3OyYjMTA4MDsmIzEwODk7JiMxMDkwOyYjMTA3NzsmIzEwODQ7JiMxMDcyOyYjMTA1OTsmIzEwNzQ7JiMxMDc3OyYjMTA3NjsmIzEwODY7JiMxMDg0OyYjMTA4MzsmIzEwNzc7JiMxMDg1OyYjMTA4MDsmIzEwODE7PC90ZXh0PjwvZz48ZyBjbGFzcz0icGFydGljaXBhbnQgcGFydGljaXBhbnQtdGFpbCIgZGF0YS1wYXJ0aWNpcGFudD0iT2JzZXJ2ZXIiPjxyZWN0IGZpbGw9IiM5OUZGOTkiIGhlaWdodD0iMjguOTg0NCIgcng9IjIuNSIgcnk9IjIuNSIgc3R5bGU9InN0cm9rZTojNUI5QkQ1O3N0cm9rZS13aWR0aDowLjU7IiB3aWR0aD0iMTQwIiB4PSI1ODEiIHk9IjY5MC43ODEzIi8+PHRleHQgZmlsbD0iIzAwMDAwMCIgZm9udC1mYW1pbHk9InNhbnMtc2VyaWYiIGZvbnQtc2l6ZT0iMTQiIGxlbmd0aEFkanVzdD0ic3BhY2luZyIgdGV4dExlbmd0aD0iMTI2IiB4PSI1ODgiIHk9IjcxMS4wMTU2Ij4mIzEwNTc7JiMxMDgwOyYjMTA4OTsmIzEwOTA7JiMxMDc3OyYjMTA4NDsmIzEwNzI7JiMxMDU5OyYjMTA3NDsmIzEwNzc7JiMxMDc2OyYjMTA4NjsmIzEwODQ7JiMxMDgzOyYjMTA3NzsmIzEwODU7JiMxMDgwOyYjMTA4MTs8L3RleHQ+PC9nPjxnIGNsYXNzPSJwYXJ0aWNpcGFudCBwYXJ0aWNpcGFudC1oZWFkIiBkYXRhLXBhcnRpY2lwYW50PSJEQiI+PHJlY3QgZmlsbD0iI0VGRjRGQyIgaGVpZ2h0PSIyOC45ODQ0IiByeD0iMi41IiByeT0iMi41IiBzdHlsZT0ic3Ryb2tlOiM1QjlCRDU7c3Ryb2tlLXdpZHRoOjAuNTsiIHdpZHRoPSI4NCIgeD0iNzMxIiB5PSI1MCIvPjx0ZXh0IGZpbGw9IiMwMDAwMDAiIGZvbnQtZmFtaWx5PSJzYW5zLXNlcmlmIiBmb250LXNpemU9IjE0IiBsZW5ndGhBZGp1c3Q9InNwYWNpbmciIHRleHRMZW5ndGg9IjcwIiB4PSI3MzgiIHk9IjcwLjIzNDQiPiYjMTA0MTsmIzEwNzI7JiMxMDc5OyYjMTA3MjsmIzEwNDQ7JiMxMDcyOyYjMTA4NTsmIzEwODU7JiMxMDk5OyYjMTA5Mzs8L3RleHQ+PC9nPjxnIGNsYXNzPSJwYXJ0aWNpcGFudCBwYXJ0aWNpcGFudC10YWlsIiBkYXRhLXBhcnRpY2lwYW50PSJEQiI+PHJlY3QgZmlsbD0iI0VGRjRGQyIgaGVpZ2h0PSIyOC45ODQ0IiByeD0iMi41IiByeT0iMi41IiBzdHlsZT0ic3Ryb2tlOiM1QjlCRDU7c3Ryb2tlLXdpZHRoOjAuNTsiIHdpZHRoPSI4NCIgeD0iNzMxIiB5PSI2OTAuNzgxMyIvPjx0ZXh0IGZpbGw9IiMwMDAwMDAiIGZvbnQtZmFtaWx5PSJzYW5zLXNlcmlmIiBmb250LXNpemU9IjE0IiBsZW5ndGhBZGp1c3Q9InNwYWNpbmciIHRleHRMZW5ndGg9IjcwIiB4PSI3MzgiIHk9IjcxMS4wMTU2Ij4mIzEwNDE7JiMxMDcyOyYjMTA3OTsmIzEwNzI7JiMxMDQ0OyYjMTA3MjsmIzEwODU7JiMxMDg1OyYjMTA5OTsmIzEwOTM7PC90ZXh0PjwvZz48Zz48dGl0bGU+JiMxMDU1OyYjMTA4NjsmIzEwODA7JiMxMDg5OyYjMTA4MjsmIzEwODY7JiMxMDc0OyYjMTA5OTsmIzEwODE7JiMxMDU1OyYjMTA4NjsmIzEwODk7JiMxMDg4OyYjMTA3NzsmIzEwNzY7JiMxMDg1OyYjMTA4MDsmIzEwODI7PC90aXRsZT48cmVjdCBmaWxsPSIjRkZGRkZGIiBoZWlnaHQ9IjE5NS4zOTg0IiBzdHlsZT0ic3Ryb2tlOiM3MEFENDc7c3Ryb2tlLXdpZHRoOjE7IiB3aWR0aD0iMTAiIHg9IjMzMSIgeT0iMjk1LjEyNSIvPjwvZz48Zz48dGl0bGU+JiMxMDU1OyYjMTA4NjsmIzEwODA7JiMxMDg5OyYjMTA4MjsmIzEwODY7JiMxMDc0OyYjMTA3MjsmIzExMDM7JiMxMDUwOyYjMTA4NjsmIzEwODQ7JiMxMDcyOyYjMTA4NTsmIzEwNzY7JiMxMDcyOzwvdGl0bGU+PHJlY3QgZmlsbD0iI0ZGRkZGRiIgaGVpZ2h0PSI4My43NDIyIiBzdHlsZT0ic3Ryb2tlOiM3MEFENDc7c3Ryb2tlLXdpZHRoOjE7IiB3aWR0aD0iMTAiIHg9IjUwMyIgeT0iMzIzLjAzOTEiLz48L2c+PGc+PHRpdGxlPiYjMTA1NzsmIzEwODA7JiMxMDg5OyYjMTA5MDsmIzEwNzc7JiMxMDg0OyYjMTA3MjsmIzEwNTk7JiMxMDc0OyYjMTA3NzsmIzEwNzY7JiMxMDg2OyYjMTA4NDsmIzEwODM7JiMxMDc3OyYjMTA4NTsmIzEwODA7JiMxMDgxOzwvdGl0bGU+PHJlY3QgZmlsbD0iI0ZGRkZGRiIgaGVpZ2h0PSIyNy45MTQxIiBzdHlsZT0ic3Ryb2tlOiM3MEFENDc7c3Ryb2tlLXdpZHRoOjE7IiB3aWR0aD0iMTAiIHg9IjY0NiIgeT0iNDM0LjY5NTMiLz48L2c+PGc+PHRpdGxlPiYjMTA0MTsmIzEwNzI7JiMxMDc5OyYjMTA3MjsmIzEwNDQ7JiMxMDcyOyYjMTA4NTsmIzEwODU7JiMxMDk5OyYjMTA5Mzs8L3RpdGxlPjxyZWN0IGZpbGw9IiNGRkZGRkYiIGhlaWdodD0iMjcuOTE0MSIgc3R5bGU9InN0cm9rZTojNzBBRDQ3O3N0cm9rZS13aWR0aDoxOyIgd2lkdGg9IjEwIiB4PSI3NjgiIHk9IjM1MC45NTMxIi8+PC9nPjxwYXRoIGQ9Ik0zNDEsOTQuOTg0NCBMMzQxLDE0NS45ODQ0IEw1MzcsMTQ1Ljk4NDQgTDUzNywxMDQuOTg0NCBMNTI3LDk0Ljk4NDQgTDM0MSw5NC45ODQ0IiBmaWxsPSIjRkVGRkREIiBzdHlsZT0ic3Ryb2tlOiMxODE4MTg7c3Ryb2tlLXdpZHRoOjAuNTsiLz48cGF0aCBkPSJNNTI3LDk0Ljk4NDQgTDUyNywxMDQuOTg0NCBMNTM3LDEwNC45ODQ0IEw1MjcsOTQuOTg0NCIgZmlsbD0iI0ZFRkZERCIgc3R5bGU9InN0cm9rZTojMTgxODE4O3N0cm9rZS13aWR0aDowLjU7Ii8+PHRleHQgZmlsbD0iIzAwMDAwMCIgZm9udC1mYW1pbHk9InNhbnMtc2VyaWYiIGZvbnQtc2l6ZT0iMTMiIGxlbmd0aEFkanVzdD0ic3BhY2luZyIgdGV4dExlbmd0aD0iMTEwLjUiIHg9IjM0NyIgeT0iMTEyLjI3MzQiPiYjMTA1NTsmIzEwNzI7JiMxMDkwOyYjMTA5MDsmIzEwNzc7JiMxMDg4OyYjMTA4NTsgJiMxMDU1OyYjMTA4NjsmIzEwODk7JiMxMDg4OyYjMTA3NzsmIzEwNzY7JiMxMDg1OyYjMTA4MDsmIzEwODI7PC90ZXh0Pjx0ZXh0IGZpbGw9IiMwMDAwMDAiIGZvbnQtZmFtaWx5PSJzYW5zLXNlcmlmIiBmb250LXNpemU9IjEzIiBsZW5ndGhBZGp1c3Q9InNwYWNpbmciIHRleHRMZW5ndGg9IjE3NS41IiB4PSIzNDciIHk9IjEyNi4xODc1Ij4mIzEwNTA7JiMxMDg2OyYjMTA4NjsmIzEwODg7JiMxMDc2OyYjMTA4MDsmIzEwODU7JiMxMDgwOyYjMTA4ODsmIzEwOTE7JiMxMDc3OyYjMTA5MDsgJiMxMDc0OyYjMTA3OTsmIzEwNzI7JiMxMDgwOyYjMTA4NDsmIzEwODY7JiMxMDc2OyYjMTA3NzsmIzEwODE7JiMxMDg5OyYjMTA5MDsmIzEwNzQ7JiMxMDgwOyYjMTA3Nzs8L3RleHQ+PHRleHQgZmlsbD0iIzAwMDAwMCIgZm9udC1mYW1pbHk9InNhbnMtc2VyaWYiIGZvbnQtc2l6ZT0iMTMiIGxlbmd0aEFkanVzdD0ic3BhY2luZyIgdGV4dExlbmd0aD0iMTE3IiB4PSIzNDciIHk9IjE0MC4xMDE2Ij4mIzEwODQ7JiMxMDc3OyYjMTA3ODsmIzEwNzY7JiMxMDkxOyAmIzEwODI7JiMxMDg2OyYjMTA4NDsmIzEwODc7JiMxMDg2OyYjMTA4NTsmIzEwNzc7JiMxMDg1OyYjMTA5MDsmIzEwNzI7JiMxMDg0OyYjMTA4MDs8L3RleHQ+PHBhdGggZD0iTTM1MiwxNTYuNzI2NiBMMzUyLDIwNy43MjY2IEw1MDMsMjA3LjcyNjYgTDUwMywxNjYuNzI2NiBMNDkzLDE1Ni43MjY2IEwzNTIsMTU2LjcyNjYiIGZpbGw9IiNGRUZGREQiIHN0eWxlPSJzdHJva2U6IzE4MTgxODtzdHJva2Utd2lkdGg6MC41OyIvPjxwYXRoIGQ9Ik00OTMsMTU2LjcyNjYgTDQ5MywxNjYuNzI2NiBMNTAzLDE2Ni43MjY2IEw0OTMsMTU2LjcyNjYiIGZpbGw9IiNGRUZGREQiIHN0eWxlPSJzdHJva2U6IzE4MTgxODtzdHJva2Utd2lkdGg6MC41OyIvPjx0ZXh0IGZpbGw9IiMwMDAwMDAiIGZvbnQtZmFtaWx5PSJzYW5zLXNlcmlmIiBmb250LXNpemU9IjEzIiBsZW5ndGhBZGp1c3Q9InNwYWNpbmciIHRleHRMZW5ndGg9Ijk3LjUiIHg9IjM1OCIgeT0iMTc0LjAxNTYiPiYjMTA1NTsmIzEwNzI7JiMxMDkwOyYjMTA5MDsmIzEwNzc7JiMxMDg4OyYjMTA4NTsgJiMxMDUwOyYjMTA4NjsmIzEwODQ7JiMxMDcyOyYjMTA4NTsmIzEwNzY7JiMxMDcyOzwvdGV4dD48dGV4dCBmaWxsPSIjMDAwMDAwIiBmb250LWZhbWlseT0ic2Fucy1zZXJpZiIgZm9udC1zaXplPSIxMyIgbGVuZ3RoQWRqdXN0PSJzcGFjaW5nIiB0ZXh0TGVuZ3RoPSIxMzAiIHg9IjM1OCIgeT0iMTg3LjkyOTciPiYjMTA0ODsmIzEwODU7JiMxMDgyOyYjMTA3MjsmIzEwODc7JiMxMDg5OyYjMTA5MTsmIzEwODM7JiMxMDgwOyYjMTA4ODsmIzEwOTE7JiMxMDc3OyYjMTA5MDsgJiMxMDc5OyYjMTA3MjsmIzEwODc7JiMxMDg4OyYjMTA4NjsmIzEwODk7PC90ZXh0Pjx0ZXh0IGZpbGw9IiMwMDAwMDAiIGZvbnQtZmFtaWx5PSJzYW5zLXNlcmlmIiBmb250LXNpemU9IjEzIiBsZW5ndGhBZGp1c3Q9InNwYWNpbmciIHRleHRMZW5ndGg9IjY1IiB4PSIzNTgiIHk9IjIwMS44NDM4Ij4mIzEwODI7JiMxMDcyOyYjMTA4MjsgJiMxMDg2OyYjMTA3MzsmIzEwOTg7JiMxMDc3OyYjMTA4MjsmIzEwOTA7PC90ZXh0PjxwYXRoIGQ9Ik02NTYsMjE4LjQ2ODggTDY1NiwyNjkuNDY4OCBMODEzLDI2OS40Njg4IEw4MTMsMjI4LjQ2ODggTDgwMywyMTguNDY4OCBMNjU2LDIxOC40Njg4IiBmaWxsPSIjRkVGRkREIiBzdHlsZT0ic3Ryb2tlOiMxODE4MTg7c3Ryb2tlLXdpZHRoOjAuNTsiLz48cGF0aCBkPSJNODAzLDIxOC40Njg4IEw4MDMsMjI4LjQ2ODggTDgxMywyMjguNDY4OCBMODAzLDIxOC40Njg4IiBmaWxsPSIjRkVGRkREIiBzdHlsZT0ic3Ryb2tlOiMxODE4MTg7c3Ryb2tlLXdpZHRoOjAuNTsiLz48dGV4dCBmaWxsPSIjMDAwMDAwIiBmb250LWZhbWlseT0ic2Fucy1zZXJpZiIgZm9udC1zaXplPSIxMyIgbGVuZ3RoQWRqdXN0PSJzcGFjaW5nIiB0ZXh0TGVuZ3RoPSIxMjMuNSIgeD0iNjYyIiB5PSIyMzUuNzU3OCI+JiMxMDU1OyYjMTA3MjsmIzEwOTA7JiMxMDkwOyYjMTA3NzsmIzEwODg7JiMxMDg1OyAmIzEwNTM7JiMxMDcyOyYjMTA3MzsmIzEwODM7JiMxMTAyOyYjMTA3NjsmIzEwNzI7JiMxMDkwOyYjMTA3NzsmIzEwODM7JiMxMTAwOzwvdGV4dD48dGV4dCBmaWxsPSIjMDAwMDAwIiBmb250LWZhbWlseT0ic2Fucy1zZXJpZiIgZm9udC1zaXplPSIxMyIgbGVuZ3RoQWRqdXN0PSJzcGFjaW5nIiB0ZXh0TGVuZ3RoPSIxMTciIHg9IjY2MiIgeT0iMjQ5LjY3MTkiPiYjMTA1OTsmIzEwNzQ7JiMxMDc3OyYjMTA3NjsmIzEwODY7JiMxMDg0OyYjMTA4MzsmIzExMDM7JiMxMDc3OyYjMTA5MDsgJiMxMDg2OyAmIzEwODU7JiMxMDg2OyYjMTA3NDsmIzEwOTk7JiMxMDkzOzwvdGV4dD48dGV4dCBmaWxsPSIjMDAwMDAwIiBmb250LWZhbWlseT0ic2Fucy1zZXJpZiIgZm9udC1zaXplPSIxMyIgbGVuZ3RoQWRqdXN0PSJzcGFjaW5nIiB0ZXh0TGVuZ3RoPSIxMzYuNSIgeD0iNjYyIiB5PSIyNjMuNTg1OSI+JiMxMDg2OyYjMTA3MzsmIzEwOTg7JiMxMDc3OyYjMTA4MjsmIzEwOTA7JiMxMDcyOyYjMTA5MzsgJiMxMDg1OyYjMTA3NzsmIzEwNzY7JiMxMDc0OyYjMTA4MDsmIzEwNzg7JiMxMDgwOyYjMTA4NDsmIzEwODY7JiMxMDg5OyYjMTA5MDsmIzEwODA7PC90ZXh0PjxnIGNsYXNzPSJtZXNzYWdlIiBkYXRhLXBhcnRpY2lwYW50LTE9IlVzZXIiIGRhdGEtcGFydGljaXBhbnQtMj0iTWVkaWF0b3IiPjxwb2x5Z29uIGZpbGw9IiM0NDcyQzQiIHBvaW50cz0iMzE5LDI5MS4xMjUsMzI5LDI5NS4xMjUsMzE5LDI5OS4xMjUsMzIzLDI5NS4xMjUiIHN0eWxlPSJzdHJva2U6IzQ0NzJDNDtzdHJva2Utd2lkdGg6MTsiLz48bGluZSBzdHlsZT0ic3Ryb2tlOiM0NDcyQzQ7c3Ryb2tlLXdpZHRoOjE7IiB4MT0iNjUiIHgyPSIzMjUiIHkxPSIyOTUuMTI1IiB5Mj0iMjk1LjEyNSIvPjx0ZXh0IGZpbGw9IiMwMDAwMDAiIGZvbnQtZmFtaWx5PSJzYW5zLXNlcmlmIiBmb250LXNpemU9IjEzIiBsZW5ndGhBZGp1c3Q9InNwYWNpbmciIHRleHRMZW5ndGg9IjI0NyIgeD0iNzIiIHk9IjI5MS41Ij4mIzEwNDI7JiMxMDc0OyYjMTA4NjsmIzEwNzY7ICYjMTA4NzsmIzEwNzI7JiMxMDg4OyYjMTA3MjsmIzEwODQ7JiMxMDc3OyYjMTA5MDsmIzEwODg7JiMxMDg2OyYjMTA3NDsgJiMxMDg3OyYjMTA4NjsmIzEwODA7JiMxMDg5OyYjMTA4MjsmIzEwNzI7ICgmIzEwOTQ7JiMxMDc3OyYjMTA4NTsmIzEwNzI7LCAmIzEwODM7JiMxMDg2OyYjMTA4MjsmIzEwNzI7JiMxMDk0OyYjMTA4MDsmIzExMDM7KTwvdGV4dD48L2c+PGcgY2xhc3M9Im1lc3NhZ2UiIGRhdGEtcGFydGljaXBhbnQtMT0iTWVkaWF0b3IiIGRhdGEtcGFydGljaXBhbnQtMj0iQ29tbWFuZCI+PHBvbHlnb24gZmlsbD0iIzQ0NzJDNCIgcG9pbnRzPSI0OTEsMzE5LjAzOTEsNTAxLDMyMy4wMzkxLDQ5MSwzMjcuMDM5MSw0OTUsMzIzLjAzOTEiIHN0eWxlPSJzdHJva2U6IzQ0NzJDNDtzdHJva2Utd2lkdGg6MTsiLz48bGluZSBzdHlsZT0ic3Ryb2tlOiM0NDcyQzQ7c3Ryb2tlLXdpZHRoOjE7IiB4MT0iMzQxIiB4Mj0iNDk3IiB5MT0iMzIzLjAzOTEiIHkyPSIzMjMuMDM5MSIvPjx0ZXh0IGZpbGw9IiMwMDAwMDAiIGZvbnQtZmFtaWx5PSJzYW5zLXNlcmlmIiBmb250LXNpemU9IjEzIiBsZW5ndGhBZGp1c3Q9InNwYWNpbmciIHRleHRMZW5ndGg9IjE0MyIgeD0iMzQ4IiB5PSIzMTkuNDE0MSI+JiMxMDU3OyYjMTA4NjsmIzEwNzk7JiMxMDc2OyYjMTA3MjsmIzEwOTA7JiMxMTAwOyAmIzEwODI7JiMxMDg2OyYjMTA4NDsmIzEwNzI7JiMxMDg1OyYjMTA3NjsmIzEwOTE7ICYjMTA4NzsmIzEwODY7JiMxMDgwOyYjMTA4OTsmIzEwODI7JiMxMDcyOzwvdGV4dD48L2c+PGcgY2xhc3M9Im1lc3NhZ2UiIGRhdGEtcGFydGljaXBhbnQtMT0iQ29tbWFuZCIgZGF0YS1wYXJ0aWNpcGFudC0yPSJEQiI+PHBvbHlnb24gZmlsbD0iIzQ0NzJDNCIgcG9pbnRzPSI3NTYsMzQ2Ljk1MzEsNzY2LDM1MC45NTMxLDc1NiwzNTQuOTUzMSw3NjAsMzUwLjk1MzEiIHN0eWxlPSJzdHJva2U6IzQ0NzJDNDtzdHJva2Utd2lkdGg6MTsiLz48bGluZSBzdHlsZT0ic3Ryb2tlOiM0NDcyQzQ7c3Ryb2tlLXdpZHRoOjE7IiB4MT0iNTEzIiB4Mj0iNzYyIiB5MT0iMzUwLjk1MzEiIHkyPSIzNTAuOTUzMSIvPjx0ZXh0IGZpbGw9IiMwMDAwMDAiIGZvbnQtZmFtaWx5PSJzYW5zLXNlcmlmIiBmb250LXNpemU9IjEzIiBsZW5ndGhBZGp1c3Q9InNwYWNpbmciIHRleHRMZW5ndGg9IjE4MiIgeD0iNTIwIiB5PSIzNDcuMzI4MSI+JiMxMDQyOyYjMTA5OTsmIzEwODc7JiMxMDg2OyYjMTA4MzsmIzEwODU7JiMxMDgwOyYjMTA5MDsmIzExMDA7ICYjMTA3OTsmIzEwNzI7JiMxMDg3OyYjMTA4ODsmIzEwODY7JiMxMDg5OyAoU0VMRUNULi4uKTwvdGV4dD48L2c+PGcgY2xhc3M9Im1lc3NhZ2UiIGRhdGEtcGFydGljaXBhbnQtMT0iREIiIGRhdGEtcGFydGljaXBhbnQtMj0iQ29tbWFuZCI+PHBvbHlnb24gZmlsbD0iIzQ0NzJDNCIgcG9pbnRzPSI1MjQsMzc0Ljg2NzIsNTE0LDM3OC44NjcyLDUyNCwzODIuODY3Miw1MjAsMzc4Ljg2NzIiIHN0eWxlPSJzdHJva2U6IzQ0NzJDNDtzdHJva2Utd2lkdGg6MTsiLz48bGluZSBzdHlsZT0ic3Ryb2tlOiM0NDcyQzQ7c3Ryb2tlLXdpZHRoOjE7c3Ryb2tlLWRhc2hhcnJheToyLjAsMi4wOyIgeDE9IjUxOCIgeDI9Ijc3MiIgeTE9IjM3OC44NjcyIiB5Mj0iMzc4Ljg2NzIiLz48dGV4dCBmaWxsPSIjMDAwMDAwIiBmb250LWZhbWlseT0ic2Fucy1zZXJpZiIgZm9udC1zaXplPSIxMyIgbGVuZ3RoQWRqdXN0PSJzcGFjaW5nIiB0ZXh0TGVuZ3RoPSIxNTYiIHg9IjUzMCIgeT0iMzc1LjI0MjIiPiYjMTA1NjsmIzEwNzc7JiMxMDc5OyYjMTA5MTsmIzEwODM7JiMxMTAwOyYjMTA5MDsmIzEwNzI7JiMxMDkwOyYjMTA5OTsgKDEwICYjMTA4NjsmIzEwNzM7JiMxMDk4OyYjMTA3NzsmIzEwODI7JiMxMDkwOyYjMTA4NjsmIzEwNzQ7KTwvdGV4dD48L2c+PGcgY2xhc3M9Im1lc3NhZ2UiIGRhdGEtcGFydGljaXBhbnQtMT0iQ29tbWFuZCIgZGF0YS1wYXJ0aWNpcGFudC0yPSJNZWRpYXRvciI+PHBvbHlnb24gZmlsbD0iIzQ0NzJDNCIgcG9pbnRzPSIzNTIsNDAyLjc4MTMsMzQyLDQwNi43ODEzLDM1Miw0MTAuNzgxMywzNDgsNDA2Ljc4MTMiIHN0eWxlPSJzdHJva2U6IzQ0NzJDNDtzdHJva2Utd2lkdGg6MTsiLz48bGluZSBzdHlsZT0ic3Ryb2tlOiM0NDcyQzQ7c3Ryb2tlLXdpZHRoOjE7c3Ryb2tlLWRhc2hhcnJheToyLjAsMi4wOyIgeDE9IjM0NiIgeDI9IjUwNyIgeTE9IjQwNi43ODEzIiB5Mj0iNDA2Ljc4MTMiLz48dGV4dCBmaWxsPSIjMDAwMDAwIiBmb250LWZhbWlseT0ic2Fucy1zZXJpZiIgZm9udC1zaXplPSIxMyIgbGVuZ3RoQWRqdXN0PSJzcGFjaW5nIiB0ZXh0TGVuZ3RoPSIxMjMuNSIgeD0iMzU4IiB5PSI0MDMuMTU2MyI+JiMxMDQyOyYjMTA4NjsmIzEwNzk7JiMxMDc0OyYjMTA4ODsmIzEwNzI7JiMxMDkwOyAmIzEwODg7JiMxMDc3OyYjMTA3OTsmIzEwOTE7JiMxMDgzOyYjMTEwMDsmIzEwOTA7JiMxMDcyOyYjMTA5MDsmIzEwODY7JiMxMDc0OzwvdGV4dD48L2c+PGcgY2xhc3M9Im1lc3NhZ2UiIGRhdGEtcGFydGljaXBhbnQtMT0iTWVkaWF0b3IiIGRhdGEtcGFydGljaXBhbnQtMj0iT2JzZXJ2ZXIiPjxwb2x5Z29uIGZpbGw9IiM0NDcyQzQiIHBvaW50cz0iNjM0LDQzMC42OTUzLDY0NCw0MzQuNjk1Myw2MzQsNDM4LjY5NTMsNjM4LDQzNC42OTUzIiBzdHlsZT0ic3Ryb2tlOiM0NDcyQzQ7c3Ryb2tlLXdpZHRoOjE7Ii8+PGxpbmUgc3R5bGU9InN0cm9rZTojNDQ3MkM0O3N0cm9rZS13aWR0aDoxOyIgeDE9IjM0MSIgeDI9IjY0MCIgeTE9IjQzNC42OTUzIiB5Mj0iNDM0LjY5NTMiLz48dGV4dCBmaWxsPSIjMDAwMDAwIiBmb250LWZhbWlseT0ic2Fucy1zZXJpZiIgZm9udC1zaXplPSIxMyIgbGVuZ3RoQWRqdXN0PSJzcGFjaW5nIiB0ZXh0TGVuZ3RoPSIxNjkiIHg9IjM0OCIgeT0iNDMxLjA3MDMiPiYjMTA1OTsmIzEwNzQ7JiMxMDc3OyYjMTA3NjsmIzEwODY7JiMxMDg0OyYjMTA4MDsmIzEwOTA7JiMxMTAwOyAmIzEwODY7ICYjMTA4NTsmIzEwODY7JiMxMDc0OyYjMTA5OTsmIzEwOTM7ICYjMTA4NjsmIzEwNzM7JiMxMDk4OyYjMTA3NzsmIzEwODI7JiMxMDkwOyYjMTA3MjsmIzEwOTM7PC90ZXh0PjwvZz48ZyBjbGFzcz0ibWVzc2FnZSIgZGF0YS1wYXJ0aWNpcGFudC0xPSJPYnNlcnZlciIgZGF0YS1wYXJ0aWNpcGFudC0yPSJVc2VyIj48cG9seWdvbiBmaWxsPSIjNDQ3MkM0IiBwb2ludHM9Ijc2LDQ1OC42MDk0LDY2LDQ2Mi42MDk0LDc2LDQ2Ni42MDk0LDcyLDQ2Mi42MDk0IiBzdHlsZT0ic3Ryb2tlOiM0NDcyQzQ7c3Ryb2tlLXdpZHRoOjE7Ii8+PGxpbmUgc3R5bGU9InN0cm9rZTojNDQ3MkM0O3N0cm9rZS13aWR0aDoxO3N0cm9rZS1kYXNoYXJyYXk6Mi4wLDIuMDsiIHgxPSI3MCIgeDI9IjY1MCIgeTE9IjQ2Mi42MDk0IiB5Mj0iNDYyLjYwOTQiLz48dGV4dCBmaWxsPSIjMDAwMDAwIiBmb250LWZhbWlseT0ic2Fucy1zZXJpZiIgZm9udC1zaXplPSIxMyIgbGVuZ3RoQWRqdXN0PSJzcGFjaW5nIiB0ZXh0TGVuZ3RoPSIxODIiIHg9IjgyIiB5PSI0NTguOTg0NCI+RW1haWwgJiMxMDg5OyAmIzEwODU7JiMxMDg2OyYjMTA3NDsmIzEwOTk7JiMxMDg0OyYjMTA4MDsgJiMxMDg3OyYjMTA4ODsmIzEwNzc7JiMxMDc2OyYjMTA4MzsmIzEwODY7JiMxMDc4OyYjMTA3NzsmIzEwODU7JiMxMDgwOyYjMTEwMzsmIzEwODQ7JiMxMDgwOzwvdGV4dD48L2c+PGcgY2xhc3M9Im1lc3NhZ2UiIGRhdGEtcGFydGljaXBhbnQtMT0iTWVkaWF0b3IiIGRhdGEtcGFydGljaXBhbnQtMj0iVXNlciI+PHBvbHlnb24gZmlsbD0iIzQ0NzJDNCIgcG9pbnRzPSI3Niw0ODYuNTIzNCw2Niw0OTAuNTIzNCw3Niw0OTQuNTIzNCw3Miw0OTAuNTIzNCIgc3R5bGU9InN0cm9rZTojNDQ3MkM0O3N0cm9rZS13aWR0aDoxOyIvPjxsaW5lIHN0eWxlPSJzdHJva2U6IzQ0NzJDNDtzdHJva2Utd2lkdGg6MTtzdHJva2UtZGFzaGFycmF5OjIuMCwyLjA7IiB4MT0iNzAiIHgyPSIzMzUiIHkxPSI0OTAuNTIzNCIgeTI9IjQ5MC41MjM0Ii8+PHRleHQgZmlsbD0iIzAwMDAwMCIgZm9udC1mYW1pbHk9InNhbnMtc2VyaWYiIGZvbnQtc2l6ZT0iMTMiIGxlbmd0aEFkanVzdD0ic3BhY2luZyIgdGV4dExlbmd0aD0iMTIzLjUiIHg9IjgyIiB5PSI0ODYuODk4NCI+JiMxMDU1OyYjMTA4NjsmIzEwODI7JiMxMDcyOyYjMTA3OTsmIzEwNzI7JiMxMDkwOyYjMTEwMDsgJiMxMDg4OyYjMTA3NzsmIzEwNzk7JiMxMDkxOyYjMTA4MzsmIzExMDA7JiMxMDkwOyYjMTA3MjsmIzEwOTA7JiMxMDk5OzwvdGV4dD48L2c+PHBhdGggZD0iTTEwLDUwNS41MjM0IEw3NC41LDUwNS41MjM0IEw3NC41LDUxMS40Mzc1IEw2NC41LDUyMS40Mzc1IEwxMCw1MjEuNDM3NSBMMTAsNTA1LjUyMzQiIGZpbGw9IiNFRUVFRUUiIHN0eWxlPSJzdHJva2U6IzAwMDAwMDtzdHJva2Utd2lkdGg6MS41OyIvPjxyZWN0IGZpbGw9Im5vbmUiIGhlaWdodD0iMTY5LjI1NzgiIHN0eWxlPSJzdHJva2U6IzAwMDAwMDtzdHJva2Utd2lkdGg6MS41OyIgd2lkdGg9IjgxNSIgeD0iMTAiIHk9IjUwNS41MjM0Ii8+PHRleHQgZmlsbD0iIzAwMDAwMCIgZm9udC1mYW1pbHk9InNhbnMtc2VyaWYiIGZvbnQtc2l6ZT0iMTMiIGZvbnQtd2VpZ2h0PSJib2xkIiBsZW5ndGhBZGp1c3Q9InNwYWNpbmciIHRleHRMZW5ndGg9IjE5LjUiIHg9IjI1IiB5PSI1MTguODEyNSI+YWx0PC90ZXh0Pjx0ZXh0IGZpbGw9IiMwMDAwMDAiIGZvbnQtZmFtaWx5PSJzYW5zLXNlcmlmIiBmb250LXNpemU9IjExIiBmb250LXdlaWdodD0iYm9sZCIgbGVuZ3RoQWRqdXN0PSJzcGFjaW5nIiB0ZXh0TGVuZ3RoPSIxMTAiIHg9Ijg5LjUiIHk9IjUxNy45MjE5Ij5bJiMxMDUzOyYjMTA3MjsmIzEwODE7JiMxMDc2OyYjMTA3NzsmIzEwODU7JiMxMDk5OyAmIzEwODg7JiMxMDc3OyYjMTA3OTsmIzEwOTE7JiMxMDgzOyYjMTEwMDsmIzEwOTA7JiMxMDcyOyYjMTA5MDsmIzEwOTk7XTwvdGV4dD48ZyBjbGFzcz0ibWVzc2FnZSIgZGF0YS1wYXJ0aWNpcGFudC0xPSJVc2VyIiBkYXRhLXBhcnRpY2lwYW50LTI9Ik1lZGlhdG9yIj48cG9seWdvbiBmaWxsPSIjNDQ3MkM0IiBwb2ludHM9IjMyNCw1MzcuMzUxNiwzMzQsNTQxLjM1MTYsMzI0LDU0NS4zNTE2LDMyOCw1NDEuMzUxNiIgc3R5bGU9InN0cm9rZTojNDQ3MkM0O3N0cm9rZS13aWR0aDoxOyIvPjxsaW5lIHN0eWxlPSJzdHJva2U6IzQ0NzJDNDtzdHJva2Utd2lkdGg6MTsiIHgxPSI2NSIgeDI9IjMzMCIgeTE9IjU0MS4zNTE2IiB5Mj0iNTQxLjM1MTYiLz48dGV4dCBmaWxsPSIjMDAwMDAwIiBmb250LWZhbWlseT0ic2Fucy1zZXJpZiIgZm9udC1zaXplPSIxMyIgbGVuZ3RoQWRqdXN0PSJzcGFjaW5nIiB0ZXh0TGVuZ3RoPSI5MSIgeD0iNzIiIHk9IjUzNy43MjY2Ij4mIzEwNDI7JiMxMDk5OyYjMTA3MzsmIzEwODg7JiMxMDcyOyYjMTA5MDsmIzExMDA7ICYjMTA4NjsmIzEwNzM7JiMxMDk4OyYjMTA3NzsmIzEwODI7JiMxMDkwOzwvdGV4dD48L2c+PGcgY2xhc3M9Im1lc3NhZ2UiIGRhdGEtcGFydGljaXBhbnQtMT0iTWVkaWF0b3IiIGRhdGEtcGFydGljaXBhbnQtMj0iREIiPjxwb2x5Z29uIGZpbGw9IiM0NDcyQzQiIHBvaW50cz0iNzYxLDU2NS4yNjU2LDc3MSw1NjkuMjY1Niw3NjEsNTczLjI2NTYsNzY1LDU2OS4yNjU2IiBzdHlsZT0ic3Ryb2tlOiM0NDcyQzQ7c3Ryb2tlLXdpZHRoOjE7Ii8+PGxpbmUgc3R5bGU9InN0cm9rZTojNDQ3MkM0O3N0cm9rZS13aWR0aDoxOyIgeDE9IjMzNiIgeDI9Ijc2NyIgeTE9IjU2OS4yNjU2IiB5Mj0iNTY5LjI2NTYiLz48dGV4dCBmaWxsPSIjMDAwMDAwIiBmb250LWZhbWlseT0ic2Fucy1zZXJpZiIgZm9udC1zaXplPSIxMyIgbGVuZ3RoQWRqdXN0PSJzcGFjaW5nIiB0ZXh0TGVuZ3RoPSIxMDQiIHg9IjM0MyIgeT0iNTY1LjY0MDYiPiYjMTA0NzsmIzEwNzI7JiMxMDg3OyYjMTA4ODsmIzEwODY7JiMxMDg5OyYjMTA4MDsmIzEwOTA7JiMxMTAwOyAmIzEwNzY7JiMxMDc3OyYjMTA5MDsmIzEwNzI7JiMxMDgzOyYjMTA4MDs8L3RleHQ+PC9nPjxnIGNsYXNzPSJtZXNzYWdlIiBkYXRhLXBhcnRpY2lwYW50LTE9IkRCIiBkYXRhLXBhcnRpY2lwYW50LTI9Ik1lZGlhdG9yIj48cG9seWdvbiBmaWxsPSIjNDQ3MkM0IiBwb2ludHM9IjM0Nyw1OTMuMTc5NywzMzcsNTk3LjE3OTcsMzQ3LDYwMS4xNzk3LDM0Myw1OTcuMTc5NyIgc3R5bGU9InN0cm9rZTojNDQ3MkM0O3N0cm9rZS13aWR0aDoxOyIvPjxsaW5lIHN0eWxlPSJzdHJva2U6IzQ0NzJDNDtzdHJva2Utd2lkdGg6MTtzdHJva2UtZGFzaGFycmF5OjIuMCwyLjA7IiB4MT0iMzQxIiB4Mj0iNzcyIiB5MT0iNTk3LjE3OTciIHkyPSI1OTcuMTc5NyIvPjx0ZXh0IGZpbGw9IiMwMDAwMDAiIGZvbnQtZmFtaWx5PSJzYW5zLXNlcmlmIiBmb250LXNpemU9IjEzIiBsZW5ndGhBZGp1c3Q9InNwYWNpbmciIHRleHRMZW5ndGg9IjExMC41IiB4PSIzNTMiIHk9IjU5My41NTQ3Ij4mIzEwNTU7JiMxMDg2OyYjMTA4MzsmIzEwODU7JiMxMDcyOyYjMTEwMzsgJiMxMDgwOyYjMTA4NTsmIzEwOTI7JiMxMDg2OyYjMTA4ODsmIzEwODQ7JiMxMDcyOyYjMTA5NDsmIzEwODA7JiMxMTAzOzwvdGV4dD48L2c+PGcgY2xhc3M9Im1lc3NhZ2UiIGRhdGEtcGFydGljaXBhbnQtMT0iTWVkaWF0b3IiIGRhdGEtcGFydGljaXBhbnQtMj0iVXNlciI+PHBvbHlnb24gZmlsbD0iIzQ0NzJDNCIgcG9pbnRzPSI3Niw2MjEuMDkzOCw2Niw2MjUuMDkzOCw3Niw2MjkuMDkzOCw3Miw2MjUuMDkzOCIgc3R5bGU9InN0cm9rZTojNDQ3MkM0O3N0cm9rZS13aWR0aDoxOyIvPjxsaW5lIHN0eWxlPSJzdHJva2U6IzQ0NzJDNDtzdHJva2Utd2lkdGg6MTtzdHJva2UtZGFzaGFycmF5OjIuMCwyLjA7IiB4MT0iNzAiIHgyPSIzMzUiIHkxPSI2MjUuMDkzOCIgeTI9IjYyNS4wOTM4Ii8+PHRleHQgZmlsbD0iIzAwMDAwMCIgZm9udC1mYW1pbHk9InNhbnMtc2VyaWYiIGZvbnQtc2l6ZT0iMTMiIGxlbmd0aEFkanVzdD0ic3BhY2luZyIgdGV4dExlbmd0aD0iOTcuNSIgeD0iODIiIHk9IjYyMS40Njg4Ij4mIzEwNTU7JiMxMDg2OyYjMTA4MjsmIzEwNzI7JiMxMDc5OyYjMTA3MjsmIzEwOTA7JiMxMTAwOyAmIzEwNzY7JiMxMDc3OyYjMTA5MDsmIzEwNzI7JiMxMDgzOyYjMTA4MDs8L3RleHQ+PC9nPjxsaW5lIHN0eWxlPSJzdHJva2U6IzAwMDAwMDtzdHJva2Utd2lkdGg6MTtzdHJva2UtZGFzaGFycmF5OjIuMCwyLjA7IiB4MT0iMTAiIHgyPSI4MjUiIHkxPSI2MzQuMDkzOCIgeTI9IjYzNC4wOTM4Ii8+PHRleHQgZmlsbD0iIzAwMDAwMCIgZm9udC1mYW1pbHk9InNhbnMtc2VyaWYiIGZvbnQtc2l6ZT0iMTEiIGZvbnQtd2VpZ2h0PSJib2xkIiBsZW5ndGhBZGp1c3Q9InNwYWNpbmciIHRleHRMZW5ndGg9IjkzLjUiIHg9IjE1IiB5PSI2NDQuNDkyMiI+WyYjMTA1MzsmIzEwNzc7JiMxMDkwOyAmIzEwODg7JiMxMDc3OyYjMTA3OTsmIzEwOTE7JiMxMDgzOyYjMTEwMDsmIzEwOTA7JiMxMDcyOyYjMTA5MDsmIzEwODY7JiMxMDc0O108L3RleHQ+PGcgY2xhc3M9Im1lc3NhZ2UiIGRhdGEtcGFydGljaXBhbnQtMT0iTWVkaWF0b3IiIGRhdGEtcGFydGljaXBhbnQtMj0iVXNlciI+PHBvbHlnb24gZmlsbD0iIzQ0NzJDNCIgcG9pbnRzPSI3Niw2NjIuNzgxMyw2Niw2NjYuNzgxMyw3Niw2NzAuNzgxMyw3Miw2NjYuNzgxMyIgc3R5bGU9InN0cm9rZTojNDQ3MkM0O3N0cm9rZS13aWR0aDoxOyIvPjxsaW5lIHN0eWxlPSJzdHJva2U6IzQ0NzJDNDtzdHJva2Utd2lkdGg6MTtzdHJva2UtZGFzaGFycmF5OjIuMCwyLjA7IiB4MT0iNzAiIHgyPSIzMzUiIHkxPSI2NjYuNzgxMyIgeTI9IjY2Ni43ODEzIi8+PHRleHQgZmlsbD0iIzAwMDAwMCIgZm9udC1mYW1pbHk9InNhbnMtc2VyaWYiIGZvbnQtc2l6ZT0iMTMiIGxlbmd0aEFkanVzdD0ic3BhY2luZyIgdGV4dExlbmd0aD0iMTIzLjUiIHg9IjgyIiB5PSI2NjMuMTU2MyI+IiYjMTA1MzsmIzEwODA7JiMxMDk1OyYjMTA3NzsmIzEwNzU7JiMxMDg2OyAmIzEwODU7JiMxMDc3OyAmIzEwODU7JiMxMDcyOyYjMTA4MTsmIzEwNzY7JiMxMDc3OyYjMTA4NTsmIzEwODY7IjwvdGV4dD48L2c+PCEtLVNSQz1bVkxIREpuREg1RHRGaHhZMVhJS0hLaDI2YjhLOVJQYUxIWERydnNQaTF2ck9QZDFRUzY1Q2U4V2NPWkdRNHVzOUtRQ19lNDFCSXFsaE50Wmw3dGRrZFN4cUpMamEwU256ei1rU1Utd2pGVk55N0lUcWpnZGNGampyX1I5QkJvb1lrcXZPenloVVprRk4ycXh2d1VDbXNGS2huUTBRWDNJX09UaXZrcFpYNThHTERubXZ0MnBhMndNUlM1V2xydURtQWp3c1l6YmlEZGFzOHNxeGR2VWRKTV9CdFZIeURfTXdjYnFsdkxPdkMwbzN2b0RaQmhVd0tpblBCb3RoNmdhVmdnYVJrZzdRVWJ5RFE3Y0RCS0R6V0Etc1FnYzF3Z2VVUE13eDVTejF2R05CdUdSNEhfTnJFek4xdHJGRTA2enlhckVaMXBLdGo3UjZFNmJFbEJsd0dGTk9Nbi1oWS1hUVNubVFidWJHdlZFTTd6SFQyaHQ3Si1lS1IyTkZRdkRUSndUeHdBamxBM1E0aE9MbHNGSS1GZUh4V3oxbEhwTFhsOEgzMm80TjI2dDBzYkxqWDV0MlNndlEtZjJhdEtscjV4eTdDMHhXckNIdFRtUGpBc1pmY3RXdHVUaklKU2VLVy1yam53eWlfOHlBdkZZR1pYQ1FIZzRxZHl5Tll4T1RpTDFyanVJNHFVQ3Exd2F5MEY4TF9fTm1fSFZtM2JOVlBBMFp2ZHFjM094aXIyRDRkLVl0bURkSlpIYThSdzNXVHBZVU9DcGxrSzhveWlvVEh2WnVkWGpFR2x0NUdDTURzX2VEazNtVVJoQkZUOEJsMnU0Um5wRFVkbGw0ckVGZFFTR3AtbTZXTDJhbUI5WTdYOThZRnRxNDdtQ2pPZXo4SGptSTVQbjdzZjNVQ1VtcWc4LWVvVkh6NWdPN2Q0cjBiMGdNblNnZG5Ma2NKWnlYOHJINks1NEpKUkQtcTBySmhxdjlmMU05ME9CSGh1TUx2ZEsyRnFFc21UQkw3c0pkbDNxN2RDSTlCSWxQNTlHUkEtOE51WmVINkhaQ0lCLVkyOVFwS01zU1NYSGluUGYzbGJBMTZ5VVFTYTFWVGFWSTZRZ1hwQnNEcE90WV9RTWI5UUN6UzUwZ3E2QWdmUHkwck03endOVjJUNENWS3NPdmN2OFJheDVXTExtcEtUQkY5OS1DeTlJZm41MWJ1ckZQRVBNUEFPUU44aW5HYjJjTDRLbkpBM0lmYXA3T0U4Y0xvOVRSUEdjaXFTUXN1cks5RENNUEUzaTlVTG9DbnRpVWhHM0tvSFY1dzNaOVF4SVM5OVJwcU9pYUFEckVDdzJGcE1uWm5NMlpfdVcycC1KNDNQWS0wekE3NDRIVlJiNk41ekxvZ2xMZWlJeGFEYUJXaXNpR1ZjUmY3TFhGZWthOGJ5UER1R1hwMllBcEJzRERuVm90VTREV25pTUljOTZhS2lTX3FZTWs5XzVucndfYXE1XzY2cERId2Noc0toTlNRaXJid0VzaFhOTDV0WmI0VFZLUlg5bjV3Y2RwaHVIMkRQb3BOQl9vM20wMF0tLT48L2c+PC9zdmc+;" parent="1" vertex="1">
            <mxGeometry x="320" y="50" width="832" height="771" as="geometry" />
          </mxCell>
        </UserObject>
        <UserObject label="" plantUmlData="{&quot;data&quot;:&quot;@startuml\nskinparam usecase {\n  BackgroundColor #EFF4FC\n  BorderColor #5B9BD5\n  ActorBackgroundColor #FFC000\n  ActorBorderColor #FF9900\n  ArrowColor #4472C4\n}\n\nleft to right direction\n\nactor \&quot;Пользователь\&quot; as U #FFC000\nactor \&quot;Зарегистрированный\\nпользователь\&quot; as RU #FFC000\nactor \&quot;Незарегистрированный\\nпользователь\&quot; as GU #FFC000\nactor \&quot;Риелтор\&quot; as R #FFC000\nactor \&quot;Администратор\&quot; as Admin #FFC000\nrectangle \&quot;Платежная система\&quot; as PS #CCCCCC\n\nrectangle \&quot;Система поиска недвижимости\&quot; {\n  (Поиск объектов) as UC1\n  (Просмотр деталей) as UC2\n  (Бронирование просмотра) as UC3\n  (Оплата услуг) as UC4\n  (Управление объявлениями) as UC5\n  (Регистрация) as UC6\n  (Авторизация) as UC7\n  (Модерация объявлений) as UC8\n  \n  UC1 .&gt; (Фильтрация по параметрам): include\n  UC3 .&gt; (Проверка доступности): extend\n}\n\n&#39; Связи пользователей\nGU --&gt; UC1\nGU --&gt; UC2\nGU --&gt; UC6\nGU --&gt; UC7\n\nRU --&gt; UC1\nRU --&gt; UC2\nRU --&gt; UC3\nRU --&gt; UC4\n\nR --&gt; UC5\nAdmin --&gt; UC8\n\n&#39; Связи с платежной системой\nUC3 --&gt; PS\nUC4 --&gt; PS\n\n&#39; Наследование акторов\nU &lt;|-- RU\nU &lt;|-- GU\nU &lt;|-- R\nU &lt;|-- Admin\n\nnote right of UC1: Основной сценарий поиска\\nс применением паттерна Стратегия\nnote left of UC3: Использует паттерн\\nФасад для упрощения\\nпроцесса бронирования\nnote bottom of PS: Внешняя платежная система\\n(не является актором)\n@enduml&quot;,&quot;format&quot;:&quot;svg&quot;}" id="C0xiIDpPcYKSjnHRzMrc-2">
          <mxCell style="shape=image;noLabel=1;verticalAlign=top;aspect=fixed;imageAspect=0;image=data:image/svg+xml,PHN2ZyB4bWxucz0iaHR0cDovL3d3dy53My5vcmcvMjAwMC9zdmciIHhtbG5zOnhsaW5rPSJodHRwOi8vd3d3LnczLm9yZy8xOTk5L3hsaW5rIiBjb250ZW50U3R5bGVUeXBlPSJ0ZXh0L2NzcyIgZGF0YS1kaWFncmFtLXR5cGU9IkRFU0NSSVBUSU9OIiBoZWlnaHQ9Ijc3N3B4IiBwcmVzZXJ2ZUFzcGVjdFJhdGlvPSJub25lIiBzdHlsZT0id2lkdGg6ODcycHg7aGVpZ2h0Ojc3N3B4O2JhY2tncm91bmQ6I0ZGRkZGRjsiIHZlcnNpb249IjEuMSIgdmlld0JveD0iMCAwIDg3MiA3NzciIHdpZHRoPSI4NzJweCIgem9vbUFuZFBhbj0ibWFnbmlmeSI+PGRlZnMvPjxnPjwhLS1jbHVzdGVyID8/Pz8/Pz8gPz8/Pz8/ID8/Pz8/Pz8/Pz8/Py0tPjxnIGNsYXNzPSJjbHVzdGVyIiBkYXRhLWVudGl0eT0iJiMxMDU3OyYjMTA4MDsmIzEwODk7JiMxMDkwOyYjMTA3NzsmIzEwODQ7JiMxMDcyOyAmIzEwODc7JiMxMDg2OyYjMTA4MDsmIzEwODk7JiMxMDgyOyYjMTA3MjsgJiMxMDg1OyYjMTA3NzsmIzEwNzY7JiMxMDc0OyYjMTA4MDsmIzEwNzg7JiMxMDgwOyYjMTA4NDsmIzEwODY7JiMxMDg5OyYjMTA5MDsmIzEwODA7IiBkYXRhLXNvdXJjZS1saW5lPSIxOCIgZGF0YS11aWQ9ImVudDAwMDgiIGlkPSJjbHVzdGVyXyYjMTA1NzsmIzEwODA7JiMxMDg5OyYjMTA5MDsmIzEwNzc7JiMxMDg0OyYjMTA3MjsgJiMxMDg3OyYjMTA4NjsmIzEwODA7JiMxMDg5OyYjMTA4MjsmIzEwNzI7ICYjMTA4NTsmIzEwNzc7JiMxMDc2OyYjMTA3NDsmIzEwODA7JiMxMDc4OyYjMTA4MDsmIzEwODQ7JiMxMDg2OyYjMTA4OTsmIzEwOTA7JiMxMDgwOyI+PHJlY3QgZmlsbD0ibm9uZSIgaGVpZ2h0PSI3NjIiIHJ4PSIyLjUiIHJ5PSIyLjUiIHN0eWxlPSJzdHJva2U6IzE4MTgxODtzdHJva2Utd2lkdGg6MTsiIHdpZHRoPSIyMzMiIHg9IjM1NiIgeT0iNyIvPjx0ZXh0IGZpbGw9IiMwMDAwMDAiIGZvbnQtZmFtaWx5PSJzYW5zLXNlcmlmIiBmb250LXNpemU9IjE0IiBmb250LXdlaWdodD0iYm9sZCIgbGVuZ3RoQWRqdXN0PSJzcGFjaW5nIiB0ZXh0TGVuZ3RoPSIxODkiIHg9IjM3OCIgeT0iMjIuMjM0NCI+JiMxMDU3OyYjMTA4MDsmIzEwODk7JiMxMDkwOyYjMTA3NzsmIzEwODQ7JiMxMDcyOyAmIzEwODc7JiMxMDg2OyYjMTA4MDsmIzEwODk7JiMxMDgyOyYjMTA3MjsgJiMxMDg1OyYjMTA3NzsmIzEwNzY7JiMxMDc0OyYjMTA4MDsmIzEwNzg7JiMxMDgwOyYjMTA4NDsmIzEwODY7JiMxMDg5OyYjMTA5MDsmIzEwODA7PC90ZXh0PjwvZz48ZyBjbGFzcz0iZW50aXR5IiBkYXRhLWVudGl0eT0iVUMxIiBkYXRhLXNvdXJjZS1saW5lPSIxOSIgZGF0YS11aWQ9ImVudDAwMDkiIGlkPSJlbnRpdHlfVUMxIj48ZWxsaXBzZSBjeD0iNDcyLjU0NTYiIGN5PSIzODMuODA5MSIgZmlsbD0iI0VGRjRGQyIgcng9IjY5LjU0NTYiIHJ5PSIxNi4zMDkxIiBzdHlsZT0ic3Ryb2tlOiM1QjlCRDU7c3Ryb2tlLXdpZHRoOjAuNTsiLz48dGV4dCBmaWxsPSIjMDAwMDAwIiBmb250LWZhbWlseT0ic2Fucy1zZXJpZiIgZm9udC1zaXplPSIxNCIgbGVuZ3RoQWRqdXN0PSJzcGFjaW5nIiB0ZXh0TGVuZ3RoPSI5OCIgeD0iNDIzLjU0NTYiIHk9IjM4Ny41NTEzIj4mIzEwNTU7JiMxMDg2OyYjMTA4MDsmIzEwODk7JiMxMDgyOyAmIzEwODY7JiMxMDczOyYjMTA5ODsmIzEwNzc7JiMxMDgyOyYjMTA5MDsmIzEwODY7JiMxMDc0OzwvdGV4dD48L2c+PGcgY2xhc3M9ImVudGl0eSIgZGF0YS1lbnRpdHk9IlVDMiIgZGF0YS1zb3VyY2UtbGluZT0iMjAiIGRhdGEtdWlkPSJlbnQwMDEwIiBpZD0iZW50aXR5X1VDMiI+PGVsbGlwc2UgY3g9IjQ3Mi40Mzg0IiBjeT0iNDUyLjk4NzciIGZpbGw9IiNFRkY0RkMiIHJ4PSI3NS40Mzg0IiByeT0iMTcuNDg3NyIgc3R5bGU9InN0cm9rZTojNUI5QkQ1O3N0cm9rZS13aWR0aDowLjU7Ii8+PHRleHQgZmlsbD0iIzAwMDAwMCIgZm9udC1mYW1pbHk9InNhbnMtc2VyaWYiIGZvbnQtc2l6ZT0iMTQiIGxlbmd0aEFkanVzdD0ic3BhY2luZyIgdGV4dExlbmd0aD0iMTEyIiB4PSI0MTYuNDM4NCIgeT0iNDU2LjcyOTkiPiYjMTA1NTsmIzEwODg7JiMxMDg2OyYjMTA4OTsmIzEwODQ7JiMxMDg2OyYjMTA5MDsmIzEwODg7ICYjMTA3NjsmIzEwNzc7JiMxMDkwOyYjMTA3MjsmIzEwODM7JiMxMDc3OyYjMTA4MTs8L3RleHQ+PC9nPjxnIGNsYXNzPSJlbnRpdHkiIGRhdGEtZW50aXR5PSJVQzMiIGRhdGEtc291cmNlLWxpbmU9IjIxIiBkYXRhLXVpZD0iZW50MDAxMSIgaWQ9ImVudGl0eV9VQzMiPjxlbGxpcHNlIGN4PSI0NzIuNTYyMiIgY3k9IjE1MS4yMTI0IiBmaWxsPSIjRUZGNEZDIiByeD0iOTQuMDYyMiIgcnk9IjIxLjIxMjQiIHN0eWxlPSJzdHJva2U6IzVCOUJENTtzdHJva2Utd2lkdGg6MC41OyIvPjx0ZXh0IGZpbGw9IiMwMDAwMDAiIGZvbnQtZmFtaWx5PSJzYW5zLXNlcmlmIiBmb250LXNpemU9IjE0IiBsZW5ndGhBZGp1c3Q9InNwYWNpbmciIHRleHRMZW5ndGg9IjE1NCIgeD0iMzk1LjU2MjIiIHk9IjE1NC45NTQ2Ij4mIzEwNDE7JiMxMDg4OyYjMTA4NjsmIzEwODU7JiMxMDgwOyYjMTA4ODsmIzEwODY7JiMxMDc0OyYjMTA3MjsmIzEwODU7JiMxMDgwOyYjMTA3NzsgJiMxMDg3OyYjMTA4ODsmIzEwODY7JiMxMDg5OyYjMTA4NDsmIzEwODY7JiMxMDkwOyYjMTA4ODsmIzEwNzI7PC90ZXh0PjwvZz48ZyBjbGFzcz0iZW50aXR5IiBkYXRhLWVudGl0eT0iVUM0IiBkYXRhLXNvdXJjZS1saW5lPSIyMiIgZGF0YS11aWQ9ImVudDAwMTIiIGlkPSJlbnRpdHlfVUM0Ij48ZWxsaXBzZSBjeD0iNDcyLjM4NzgiIGN5PSIyMjIuMTc3NiIgZmlsbD0iI0VGRjRGQyIgcng9IjYzLjg4NzgiIHJ5PSIxNS4xNzc2IiBzdHlsZT0ic3Ryb2tlOiM1QjlCRDU7c3Ryb2tlLXdpZHRoOjAuNTsiLz48dGV4dCBmaWxsPSIjMDAwMDAwIiBmb250LWZhbWlseT0ic2Fucy1zZXJpZiIgZm9udC1zaXplPSIxNCIgbGVuZ3RoQWRqdXN0PSJzcGFjaW5nIiB0ZXh0TGVuZ3RoPSI4NCIgeD0iNDMwLjM4NzgiIHk9IjIyNS45MTk3Ij4mIzEwNTQ7JiMxMDg3OyYjMTA4MzsmIzEwNzI7JiMxMDkwOyYjMTA3MjsgJiMxMDkxOyYjMTA4OTsmIzEwODM7JiMxMDkxOyYjMTA3NTs8L3RleHQ+PC9nPjxnIGNsYXNzPSJlbnRpdHkiIGRhdGEtZW50aXR5PSJVQzUiIGRhdGEtc291cmNlLWxpbmU9IjIzIiBkYXRhLXVpZD0iZW50MDAxMyIgaWQ9ImVudGl0eV9VQzUiPjxlbGxpcHNlIGN4PSI0NzIuMjYzMyIgY3k9IjY1NS44NTI3IiBmaWxsPSIjRUZGNEZDIiByeD0iOTcuMjYzMyIgcnk9IjIxLjg1MjciIHN0eWxlPSJzdHJva2U6IzVCOUJENTtzdHJva2Utd2lkdGg6MC41OyIvPjx0ZXh0IGZpbGw9IiMwMDAwMDAiIGZvbnQtZmFtaWx5PSJzYW5zLXNlcmlmIiBmb250LXNpemU9IjE0IiBsZW5ndGhBZGp1c3Q9InNwYWNpbmciIHRleHRMZW5ndGg9IjE2MSIgeD0iMzkxLjc2MzMiIHk9IjY1OS41OTQ4Ij4mIzEwNTk7JiMxMDg3OyYjMTA4ODsmIzEwNzI7JiMxMDc0OyYjMTA4MzsmIzEwNzc7JiMxMDg1OyYjMTA4MDsmIzEwNzc7ICYjMTA4NjsmIzEwNzM7JiMxMDk4OyYjMTEwMzsmIzEwNzQ7JiMxMDgzOyYjMTA3NzsmIzEwODU7JiMxMDgwOyYjMTEwMzsmIzEwODQ7JiMxMDgwOzwvdGV4dD48L2c+PGcgY2xhc3M9ImVudGl0eSIgZGF0YS1lbnRpdHk9IlVDNiIgZGF0YS1zb3VyY2UtbGluZT0iMjQiIGRhdGEtdWlkPSJlbnQwMDE0IiBpZD0iZW50aXR5X1VDNiI+PGVsbGlwc2UgY3g9IjQ3Mi42Njg1IiBjeT0iNTIwLjEzMzciIGZpbGw9IiNFRkY0RkMiIHJ4PSI2MS4xNjg1IiByeT0iMTQuNjMzNyIgc3R5bGU9InN0cm9rZTojNUI5QkQ1O3N0cm9rZS13aWR0aDowLjU7Ii8+PHRleHQgZmlsbD0iIzAwMDAwMCIgZm9udC1mYW1pbHk9InNhbnMtc2VyaWYiIGZvbnQtc2l6ZT0iMTQiIGxlbmd0aEFkanVzdD0ic3BhY2luZyIgdGV4dExlbmd0aD0iNzciIHg9IjQzNC4xNjg1IiB5PSI1MjMuODc1OSI+JiMxMDU2OyYjMTA3NzsmIzEwNzU7JiMxMDgwOyYjMTA4OTsmIzEwOTA7JiMxMDg4OyYjMTA3MjsmIzEwOTQ7JiMxMDgwOyYjMTEwMzs8L3RleHQ+PC9nPjxnIGNsYXNzPSJlbnRpdHkiIGRhdGEtZW50aXR5PSJVQzciIGRhdGEtc291cmNlLWxpbmU9IjI1IiBkYXRhLXVpZD0iZW50MDAxNSIgaWQ9ImVudGl0eV9VQzciPjxlbGxpcHNlIGN4PSI0NzIuNjY4NSIgY3k9IjU4NC4xMzM3IiBmaWxsPSIjRUZGNEZDIiByeD0iNjEuMTY4NSIgcnk9IjE0LjYzMzciIHN0eWxlPSJzdHJva2U6IzVCOUJENTtzdHJva2Utd2lkdGg6MC41OyIvPjx0ZXh0IGZpbGw9IiMwMDAwMDAiIGZvbnQtZmFtaWx5PSJzYW5zLXNlcmlmIiBmb250LXNpemU9IjE0IiBsZW5ndGhBZGp1c3Q9InNwYWNpbmciIHRleHRMZW5ndGg9Ijc3IiB4PSI0MzQuMTY4NSIgeT0iNTg3Ljg3NTkiPiYjMTA0MDsmIzEwNzQ7JiMxMDkwOyYjMTA4NjsmIzEwODg7JiMxMDgwOyYjMTA3OTsmIzEwNzI7JiMxMDk0OyYjMTA4MDsmIzExMDM7PC90ZXh0PjwvZz48ZyBjbGFzcz0iZW50aXR5IiBkYXRhLWVudGl0eT0iVUM4IiBkYXRhLXNvdXJjZS1saW5lPSIyNiIgZGF0YS11aWQ9ImVudDAwMTYiIGlkPSJlbnRpdHlfVUM4Ij48ZWxsaXBzZSBjeD0iNDcyLjczMDkiIGN5PSI3MzIuOTQ2MiIgZmlsbD0iI0VGRjRGQyIgcng9Ijg3LjczMDkiIHJ5PSIxOS45NDYyIiBzdHlsZT0ic3Ryb2tlOiM1QjlCRDU7c3Ryb2tlLXdpZHRoOjAuNTsiLz48dGV4dCBmaWxsPSIjMDAwMDAwIiBmb250LWZhbWlseT0ic2Fucy1zZXJpZiIgZm9udC1zaXplPSIxNCIgbGVuZ3RoQWRqdXN0PSJzcGFjaW5nIiB0ZXh0TGVuZ3RoPSIxNDAiIHg9IjQwMi43MzA5IiB5PSI3MzYuNjg4NCI+JiMxMDUyOyYjMTA4NjsmIzEwNzY7JiMxMDc3OyYjMTA4ODsmIzEwNzI7JiMxMDk0OyYjMTA4MDsmIzExMDM7ICYjMTA4NjsmIzEwNzM7JiMxMDk4OyYjMTEwMzsmIzEwNzQ7JiMxMDgzOyYjMTA3NzsmIzEwODU7JiMxMDgwOyYjMTA4MTs8L3RleHQ+PC9nPjxnIGNsYXNzPSJlbnRpdHkiIGRhdGEtZW50aXR5PSImIzEwNjA7JiMxMDgwOyYjMTA4MzsmIzExMDA7JiMxMDkwOyYjMTA4ODsmIzEwNzI7JiMxMDk0OyYjMTA4MDsmIzExMDM7ICYjMTA4NzsmIzEwODY7ICYjMTA4NzsmIzEwNzI7JiMxMDg4OyYjMTA3MjsmIzEwODQ7JiMxMDc3OyYjMTA5MDsmIzEwODg7JiMxMDcyOyYjMTA4NDsiIGRhdGEtc291cmNlLWxpbmU9IjI4IiBkYXRhLXVpZD0iZW50MDAxNyIgaWQ9ImVudGl0eV8mIzEwNjA7JiMxMDgwOyYjMTA4MzsmIzExMDA7JiMxMDkwOyYjMTA4ODsmIzEwNzI7JiMxMDk0OyYjMTA4MDsmIzExMDM7ICYjMTA4NzsmIzEwODY7ICYjMTA4NzsmIzEwNzI7JiMxMDg4OyYjMTA3MjsmIzEwODQ7JiMxMDc3OyYjMTA5MDsmIzEwODg7JiMxMDcyOyYjMTA4NDsiPjxlbGxpcHNlIGN4PSI0NzIuNDg1IiBjeT0iMjk0Ljk5NyIgZmlsbD0iI0VGRjRGQyIgcng9IjEwMC40ODUiIHJ5PSIyMi40OTciIHN0eWxlPSJzdHJva2U6IzVCOUJENTtzdHJva2Utd2lkdGg6MC41OyIvPjx0ZXh0IGZpbGw9IiMwMDAwMDAiIGZvbnQtZmFtaWx5PSJzYW5zLXNlcmlmIiBmb250LXNpemU9IjE0IiBsZW5ndGhBZGp1c3Q9InNwYWNpbmciIHRleHRMZW5ndGg9IjE2OCIgeD0iMzg4LjQ4NSIgeT0iMjk4LjczOTIiPiYjMTA2MDsmIzEwODA7JiMxMDgzOyYjMTEwMDsmIzEwOTA7JiMxMDg4OyYjMTA3MjsmIzEwOTQ7JiMxMDgwOyYjMTEwMzsgJiMxMDg3OyYjMTA4NjsgJiMxMDg3OyYjMTA3MjsmIzEwODg7JiMxMDcyOyYjMTA4NDsmIzEwNzc7JiMxMDkwOyYjMTA4ODsmIzEwNzI7JiMxMDg0OzwvdGV4dD48L2c+PGcgY2xhc3M9ImVudGl0eSIgZGF0YS1lbnRpdHk9IiYjMTA1NTsmIzEwODg7JiMxMDg2OyYjMTA3NDsmIzEwNzc7JiMxMDg4OyYjMTA4MjsmIzEwNzI7ICYjMTA3NjsmIzEwODY7JiMxMDg5OyYjMTA5MDsmIzEwOTE7JiMxMDg3OyYjMTA4NTsmIzEwODY7JiMxMDg5OyYjMTA5MDsmIzEwODA7IiBkYXRhLXNvdXJjZS1saW5lPSIyOSIgZGF0YS11aWQ9ImVudDAwMTkiIGlkPSJlbnRpdHlfJiMxMDU1OyYjMTA4ODsmIzEwODY7JiMxMDc0OyYjMTA3NzsmIzEwODg7JiMxMDgyOyYjMTA3MjsgJiMxMDc2OyYjMTA4NjsmIzEwODk7JiMxMDkwOyYjMTA5MTsmIzEwODc7JiMxMDg1OyYjMTA4NjsmIzEwODk7JiMxMDkwOyYjMTA4MDsiPjxlbGxpcHNlIGN4PSI0NzIuNzMwOSIgY3k9IjU5Ljk0NjIiIGZpbGw9IiNFRkY0RkMiIHJ4PSI4Ny43MzA5IiByeT0iMTkuOTQ2MiIgc3R5bGU9InN0cm9rZTojNUI5QkQ1O3N0cm9rZS13aWR0aDowLjU7Ii8+PHRleHQgZmlsbD0iIzAwMDAwMCIgZm9udC1mYW1pbHk9InNhbnMtc2VyaWYiIGZvbnQtc2l6ZT0iMTQiIGxlbmd0aEFkanVzdD0ic3BhY2luZyIgdGV4dExlbmd0aD0iMTQwIiB4PSI0MDIuNzMwOSIgeT0iNjMuNjg4NCI+JiMxMDU1OyYjMTA4ODsmIzEwODY7JiMxMDc0OyYjMTA3NzsmIzEwODg7JiMxMDgyOyYjMTA3MjsgJiMxMDc2OyYjMTA4NjsmIzEwODk7JiMxMDkwOyYjMTA5MTsmIzEwODc7JiMxMDg1OyYjMTA4NjsmIzEwODk7JiMxMDkwOyYjMTA4MDs8L3RleHQ+PC9nPjwhLS1lbnRpdHkgVS0tPjxnIGNsYXNzPSJlbnRpdHkiIGRhdGEtZW50aXR5PSJVIiBkYXRhLXNvdXJjZS1saW5lPSIxMSIgZGF0YS11aWQ9ImVudDAwMDIiIGlkPSJlbnRpdHlfVSI+PGVsbGlwc2UgY3g9IjQ4IiBjeT0iNTU1IiBmaWxsPSIjRkZDMDAwIiByeD0iOCIgcnk9IjgiIHN0eWxlPSJzdHJva2U6IzE4MTgxODtzdHJva2Utd2lkdGg6MC41OyIvPjxwYXRoIGQ9Ik00OCw1NjMgTDQ4LDU5MCBNMzUsNTcxIEw2MSw1NzEgTTQ4LDU5MCBMMzUsNjA1IE00OCw1OTAgTDYxLDYwNSIgZmlsbD0ibm9uZSIgc3R5bGU9InN0cm9rZTojMTgxODE4O3N0cm9rZS13aWR0aDowLjU7Ii8+PHRleHQgZmlsbD0iIzAwMDAwMCIgZm9udC1mYW1pbHk9InNhbnMtc2VyaWYiIGZvbnQtc2l6ZT0iMTQiIGxlbmd0aEFkanVzdD0ic3BhY2luZyIgdGV4dExlbmd0aD0iODQiIHg9IjYiIHk9IjYxOS43MzQ0Ij4mIzEwNTU7JiMxMDg2OyYjMTA4MzsmIzExMDA7JiMxMDc5OyYjMTA4NjsmIzEwNzQ7JiMxMDcyOyYjMTA5MDsmIzEwNzc7JiMxMDgzOyYjMTEwMDs8L3RleHQ+PC9nPjwhLS1lbnRpdHkgUlUtLT48ZyBjbGFzcz0iZW50aXR5IiBkYXRhLWVudGl0eT0iUlUiIGRhdGEtc291cmNlLWxpbmU9IjEyIiBkYXRhLXVpZD0iZW50MDAwMyIgaWQ9ImVudGl0eV9SVSI+PGVsbGlwc2UgY3g9IjIzMCIgY3k9IjMxOS41IiBmaWxsPSIjRkZDMDAwIiByeD0iOCIgcnk9IjgiIHN0eWxlPSJzdHJva2U6IzE4MTgxODtzdHJva2Utd2lkdGg6MC41OyIvPjxwYXRoIGQ9Ik0yMzAsMzI3LjUgTDIzMCwzNTQuNSBNMjE3LDMzNS41IEwyNDMsMzM1LjUgTTIzMCwzNTQuNSBMMjE3LDM2OS41IE0yMzAsMzU0LjUgTDI0MywzNjkuNSIgZmlsbD0ibm9uZSIgc3R5bGU9InN0cm9rZTojMTgxODE4O3N0cm9rZS13aWR0aDowLjU7Ii8+PHRleHQgZmlsbD0iIzAwMDAwMCIgZm9udC1mYW1pbHk9InNhbnMtc2VyaWYiIGZvbnQtc2l6ZT0iMTQiIGxlbmd0aEFkanVzdD0ic3BhY2luZyIgdGV4dExlbmd0aD0iMTI2IiB4PSIxNjciIHk9IjM4NC4yMzQ0Ij4mIzEwNDc7JiMxMDcyOyYjMTA4ODsmIzEwNzc7JiMxMDc1OyYjMTA4MDsmIzEwODk7JiMxMDkwOyYjMTA4ODsmIzEwODA7JiMxMDg4OyYjMTA4NjsmIzEwNzQ7JiMxMDcyOyYjMTA4NTsmIzEwODU7JiMxMDk5OyYjMTA4MTs8L3RleHQ+PHRleHQgZmlsbD0iIzAwMDAwMCIgZm9udC1mYW1pbHk9InNhbnMtc2VyaWYiIGZvbnQtc2l6ZT0iMTQiIGxlbmd0aEFkanVzdD0ic3BhY2luZyIgdGV4dExlbmd0aD0iODQiIHg9IjE2NyIgeT0iMzk5LjIxODgiPiYjMTA4NzsmIzEwODY7JiMxMDgzOyYjMTEwMDsmIzEwNzk7JiMxMDg2OyYjMTA3NDsmIzEwNzI7JiMxMDkwOyYjMTA3NzsmIzEwODM7JiMxMTAwOzwvdGV4dD48L2c+PCEtLWVudGl0eSBHVS0tPjxnIGNsYXNzPSJlbnRpdHkiIGRhdGEtZW50aXR5PSJHVSIgZGF0YS1zb3VyY2UtbGluZT0iMTMiIGRhdGEtdWlkPSJlbnQwMDA0IiBpZD0iZW50aXR5X0dVIj48ZWxsaXBzZSBjeD0iMjMwIiBjeT0iNDY4LjUiIGZpbGw9IiNGRkMwMDAiIHJ4PSI4IiByeT0iOCIgc3R5bGU9InN0cm9rZTojMTgxODE4O3N0cm9rZS13aWR0aDowLjU7Ii8+PHBhdGggZD0iTTIzMCw0NzYuNSBMMjMwLDUwMy41IE0yMTcsNDg0LjUgTDI0Myw0ODQuNSBNMjMwLDUwMy41IEwyMTcsNTE4LjUgTTIzMCw1MDMuNSBMMjQzLDUxOC41IiBmaWxsPSJub25lIiBzdHlsZT0ic3Ryb2tlOiMxODE4MTg7c3Ryb2tlLXdpZHRoOjAuNTsiLz48dGV4dCBmaWxsPSIjMDAwMDAwIiBmb250LWZhbWlseT0ic2Fucy1zZXJpZiIgZm9udC1zaXplPSIxNCIgbGVuZ3RoQWRqdXN0PSJzcGFjaW5nIiB0ZXh0TGVuZ3RoPSIxNDAiIHg9IjE2MCIgeT0iNTMzLjIzNDQiPiYjMTA1MzsmIzEwNzc7JiMxMDc5OyYjMTA3MjsmIzEwODg7JiMxMDc3OyYjMTA3NTsmIzEwODA7JiMxMDg5OyYjMTA5MDsmIzEwODg7JiMxMDgwOyYjMTA4ODsmIzEwODY7JiMxMDc0OyYjMTA3MjsmIzEwODU7JiMxMDg1OyYjMTA5OTsmIzEwODE7PC90ZXh0Pjx0ZXh0IGZpbGw9IiMwMDAwMDAiIGZvbnQtZmFtaWx5PSJzYW5zLXNlcmlmIiBmb250LXNpemU9IjE0IiBsZW5ndGhBZGp1c3Q9InNwYWNpbmciIHRleHRMZW5ndGg9Ijg0IiB4PSIxNjAiIHk9IjU0OC4yMTg4Ij4mIzEwODc7JiMxMDg2OyYjMTA4MzsmIzExMDA7JiMxMDc5OyYjMTA4NjsmIzEwNzQ7JiMxMDcyOyYjMTA5MDsmIzEwNzc7JiMxMDgzOyYjMTEwMDs8L3RleHQ+PC9nPjwhLS1lbnRpdHkgUi0tPjxnIGNsYXNzPSJlbnRpdHkiIGRhdGEtZW50aXR5PSJSIiBkYXRhLXNvdXJjZS1saW5lPSIxNCIgZGF0YS11aWQ9ImVudDAwMDUiIGlkPSJlbnRpdHlfUiI+PGVsbGlwc2UgY3g9IjIzMCIgY3k9IjU5NCIgZmlsbD0iI0ZGQzAwMCIgcng9IjgiIHJ5PSI4IiBzdHlsZT0ic3Ryb2tlOiMxODE4MTg7c3Ryb2tlLXdpZHRoOjAuNTsiLz48cGF0aCBkPSJNMjMwLDYwMiBMMjMwLDYyOSBNMjE3LDYxMCBMMjQzLDYxMCBNMjMwLDYyOSBMMjE3LDY0NCBNMjMwLDYyOSBMMjQzLDY0NCIgZmlsbD0ibm9uZSIgc3R5bGU9InN0cm9rZTojMTgxODE4O3N0cm9rZS13aWR0aDowLjU7Ii8+PHRleHQgZmlsbD0iIzAwMDAwMCIgZm9udC1mYW1pbHk9InNhbnMtc2VyaWYiIGZvbnQtc2l6ZT0iMTQiIGxlbmd0aEFkanVzdD0ic3BhY2luZyIgdGV4dExlbmd0aD0iNDkiIHg9IjIwNS41IiB5PSI2NTguNzM0NCI+JiMxMDU2OyYjMTA4MDsmIzEwNzc7JiMxMDgzOyYjMTA5MDsmIzEwODY7JiMxMDg4OzwvdGV4dD48L2c+PCEtLWVudGl0eSBBZG1pbi0tPjxnIGNsYXNzPSJlbnRpdHkiIGRhdGEtZW50aXR5PSJBZG1pbiIgZGF0YS1zb3VyY2UtbGluZT0iMTUiIGRhdGEtdWlkPSJlbnQwMDA2IiBpZD0iZW50aXR5X0FkbWluIj48ZWxsaXBzZSBjeD0iMjMwIiBjeT0iNzA0IiBmaWxsPSIjRkZDMDAwIiByeD0iOCIgcnk9IjgiIHN0eWxlPSJzdHJva2U6IzE4MTgxODtzdHJva2Utd2lkdGg6MC41OyIvPjxwYXRoIGQ9Ik0yMzAsNzEyIEwyMzAsNzM5IE0yMTcsNzIwIEwyNDMsNzIwIE0yMzAsNzM5IEwyMTcsNzU0IE0yMzAsNzM5IEwyNDMsNzU0IiBmaWxsPSJub25lIiBzdHlsZT0ic3Ryb2tlOiMxODE4MTg7c3Ryb2tlLXdpZHRoOjAuNTsiLz48dGV4dCBmaWxsPSIjMDAwMDAwIiBmb250LWZhbWlseT0ic2Fucy1zZXJpZiIgZm9udC1zaXplPSIxNCIgbGVuZ3RoQWRqdXN0PSJzcGFjaW5nIiB0ZXh0TGVuZ3RoPSI5MSIgeD0iMTg0LjUiIHk9Ijc2OC43MzQ0Ij4mIzEwNDA7JiMxMDc2OyYjMTA4NDsmIzEwODA7JiMxMDg1OyYjMTA4MDsmIzEwODk7JiMxMDkwOyYjMTA4ODsmIzEwNzI7JiMxMDkwOyYjMTA4NjsmIzEwODg7PC90ZXh0PjwvZz48IS0tZW50aXR5IFBTLS0+PGcgY2xhc3M9ImVudGl0eSIgZGF0YS1lbnRpdHk9IlBTIiBkYXRhLXNvdXJjZS1saW5lPSIxNiIgZGF0YS11aWQ9ImVudDAwMDciIGlkPSJlbnRpdHlfUFMiPjxyZWN0IGZpbGw9IiNDQ0NDQ0MiIGhlaWdodD0iMzQuOTg0NCIgcng9IjIuNSIgcnk9IjIuNSIgc3R5bGU9InN0cm9rZTojMTgxODE4O3N0cm9rZS13aWR0aDowLjU7IiB3aWR0aD0iMTM5IiB4PSI2ODEiIHk9IjE2OS41Ii8+PHRleHQgZmlsbD0iIzAwMDAwMCIgZm9udC1mYW1pbHk9InNhbnMtc2VyaWYiIGZvbnQtc2l6ZT0iMTQiIGxlbmd0aEFkanVzdD0ic3BhY2luZyIgdGV4dExlbmd0aD0iMTE5IiB4PSI2OTEiIHk9IjE5Mi43MzQ0Ij4mIzEwNTU7JiMxMDgzOyYjMTA3MjsmIzEwOTA7JiMxMDc3OyYjMTA3ODsmIzEwODU7JiMxMDcyOyYjMTEwMzsgJiMxMDg5OyYjMTA4MDsmIzEwODk7JiMxMDkwOyYjMTA3NzsmIzEwODQ7JiMxMDcyOzwvdGV4dD48L2c+PGcgY2xhc3M9ImVudGl0eSIgZGF0YS1lbnRpdHk9IkdNTjM3IiBkYXRhLXNvdXJjZS1saW5lPSI1NiIgZGF0YS11aWQ9ImVudDAwMzgiIGlkPSJlbnRpdHlfR01OMzciPjxwYXRoIGQ9Ik02MzYsMzY1IEw2MzYsMzgwIEw1NDIuMDgsMzg0IEw2MzYsMzg4IEw2MzYsNDAyLjgyODEgQTAsMCAwIDAgMCA2MzYsNDAyLjgyODEgTDg2NSw0MDIuODI4MSBBMCwwIDAgMCAwIDg2NSw0MDIuODI4MSBMODY1LDM3NSBMODU1LDM2NSBMNjM2LDM2NSBBMCwwIDAgMCAwIDYzNiwzNjUiIGZpbGw9IiNGRUZGREQiIHN0eWxlPSJzdHJva2U6IzE4MTgxODtzdHJva2Utd2lkdGg6MC41OyIvPjxwYXRoIGQ9Ik04NTUsMzY1IEw4NTUsMzc1IEw4NjUsMzc1IEw4NTUsMzY1IiBmaWxsPSIjRkVGRkREIiBzdHlsZT0ic3Ryb2tlOiMxODE4MTg7c3Ryb2tlLXdpZHRoOjAuNTsiLz48dGV4dCBmaWxsPSIjMDAwMDAwIiBmb250LWZhbWlseT0ic2Fucy1zZXJpZiIgZm9udC1zaXplPSIxMyIgbGVuZ3RoQWRqdXN0PSJzcGFjaW5nIiB0ZXh0TGVuZ3RoPSIxNTYiIHg9IjY0MiIgeT0iMzgyLjI4OTEiPiYjMTA1NDsmIzEwODk7JiMxMDg1OyYjMTA4NjsmIzEwNzQ7JiMxMDg1OyYjMTA4NjsmIzEwODE7ICYjMTA4OTsmIzEwOTQ7JiMxMDc3OyYjMTA4NTsmIzEwNzI7JiMxMDg4OyYjMTA4MDsmIzEwODE7ICYjMTA4NzsmIzEwODY7JiMxMDgwOyYjMTA4OTsmIzEwODI7JiMxMDcyOzwvdGV4dD48dGV4dCBmaWxsPSIjMDAwMDAwIiBmb250LWZhbWlseT0ic2Fucy1zZXJpZiIgZm9udC1zaXplPSIxMyIgbGVuZ3RoQWRqdXN0PSJzcGFjaW5nIiB0ZXh0TGVuZ3RoPSIyMDgiIHg9IjY0MiIgeT0iMzk2LjIwMzEiPiYjMTA4OTsgJiMxMDg3OyYjMTA4ODsmIzEwODA7JiMxMDg0OyYjMTA3NzsmIzEwODU7JiMxMDc3OyYjMTA4NTsmIzEwODA7JiMxMDc3OyYjMTA4NDsgJiMxMDg3OyYjMTA3MjsmIzEwOTA7JiMxMDkwOyYjMTA3NzsmIzEwODg7JiMxMDg1OyYjMTA3MjsgJiMxMDU3OyYjMTA5MDsmIzEwODg7JiMxMDcyOyYjMTA5MDsmIzEwNzc7JiMxMDc1OyYjMTA4MDsmIzExMDM7PC90ZXh0PjwvZz48ZyBjbGFzcz0iZW50aXR5IiBkYXRhLWVudGl0eT0iR01ONDAiIGRhdGEtc291cmNlLWxpbmU9IjU3IiBkYXRhLXVpZD0iZW50MDA0MSIgaWQ9ImVudGl0eV9HTU40MCI+PHBhdGggZD0iTTE1MSwxMjUgTDE1MSwxNzYuNzQyMiBBMCwwIDAgMCAwIDE1MSwxNzYuNzQyMiBMMzA4LjUsMTc2Ljc0MjIgQTAsMCAwIDAgMCAzMDguNSwxNzYuNzQyMiBMMzA4LjUsMTU1IEwzNzguMywxNTEgTDMwOC41LDE0NyBMMzA4LjUsMTM1IEwyOTguNSwxMjUgTDE1MSwxMjUgQTAsMCAwIDAgMCAxNTEsMTI1IiBmaWxsPSIjRkVGRkREIiBzdHlsZT0ic3Ryb2tlOiMxODE4MTg7c3Ryb2tlLXdpZHRoOjAuNTsiLz48cGF0aCBkPSJNMjk4LjUsMTI1IEwyOTguNSwxMzUgTDMwOC41LDEzNSBMMjk4LjUsMTI1IiBmaWxsPSIjRkVGRkREIiBzdHlsZT0ic3Ryb2tlOiMxODE4MTg7c3Ryb2tlLXdpZHRoOjAuNTsiLz48dGV4dCBmaWxsPSIjMDAwMDAwIiBmb250LWZhbWlseT0ic2Fucy1zZXJpZiIgZm9udC1zaXplPSIxMyIgbGVuZ3RoQWRqdXN0PSJzcGFjaW5nIiB0ZXh0TGVuZ3RoPSIxMTciIHg9IjE1NyIgeT0iMTQyLjI4OTEiPiYjMTA0ODsmIzEwODk7JiMxMDg3OyYjMTA4NjsmIzEwODM7JiMxMTAwOyYjMTA3OTsmIzEwOTE7JiMxMDc3OyYjMTA5MDsgJiMxMDg3OyYjMTA3MjsmIzEwOTA7JiMxMDkwOyYjMTA3NzsmIzEwODg7JiMxMDg1OzwvdGV4dD48dGV4dCBmaWxsPSIjMDAwMDAwIiBmb250LWZhbWlseT0ic2Fucy1zZXJpZiIgZm9udC1zaXplPSIxMyIgbGVuZ3RoQWRqdXN0PSJzcGFjaW5nIiB0ZXh0TGVuZ3RoPSIxMjMuNSIgeD0iMTU3IiB5PSIxNTYuMjAzMSI+JiMxMDYwOyYjMTA3MjsmIzEwODk7JiMxMDcyOyYjMTA3NjsgJiMxMDc2OyYjMTA4MzsmIzExMDM7ICYjMTA5MTsmIzEwODc7JiMxMDg4OyYjMTA4NjsmIzEwOTc7JiMxMDc3OyYjMTA4NTsmIzEwODA7JiMxMTAzOzwvdGV4dD48dGV4dCBmaWxsPSIjMDAwMDAwIiBmb250LWZhbWlseT0ic2Fucy1zZXJpZiIgZm9udC1zaXplPSIxMyIgbGVuZ3RoQWRqdXN0PSJzcGFjaW5nIiB0ZXh0TGVuZ3RoPSIxMzYuNSIgeD0iMTU3IiB5PSIxNzAuMTE3MiI+JiMxMDg3OyYjMTA4ODsmIzEwODY7JiMxMDk0OyYjMTA3NzsmIzEwODk7JiMxMDg5OyYjMTA3MjsgJiMxMDczOyYjMTA4ODsmIzEwODY7JiMxMDg1OyYjMTA4MDsmIzEwODg7JiMxMDg2OyYjMTA3NDsmIzEwNzI7JiMxMDg1OyYjMTA4MDsmIzExMDM7PC90ZXh0PjwvZz48ZyBjbGFzcz0iZW50aXR5IiBkYXRhLWVudGl0eT0iR01ONDMiIGRhdGEtc291cmNlLWxpbmU9IjU4IiBkYXRhLXVpZD0iZW50MDA0NCIgaWQ9ImVudGl0eV9HTU40MyI+PHBhdGggZD0iTTY1OSwyNDAgTDY1OSwyNzcuODI4MSBBMCwwIDAgMCAwIDY1OSwyNzcuODI4MSBMODQyLjUsMjc3LjgyODEgQTAsMCAwIDAgMCA4NDIuNSwyNzcuODI4MSBMODQyLjUsMjUwIEw4MzIuNSwyNDAgTDc1NC41LDI0MCBMNzUwLjUsMjA0Ljc2IEw3NDYuNSwyNDAgTDY1OSwyNDAgQTAsMCAwIDAgMCA2NTksMjQwIiBmaWxsPSIjRkVGRkREIiBzdHlsZT0ic3Ryb2tlOiMxODE4MTg7c3Ryb2tlLXdpZHRoOjAuNTsiLz48cGF0aCBkPSJNODMyLjUsMjQwIEw4MzIuNSwyNTAgTDg0Mi41LDI1MCBMODMyLjUsMjQwIiBmaWxsPSIjRkVGRkREIiBzdHlsZT0ic3Ryb2tlOiMxODE4MTg7c3Ryb2tlLXdpZHRoOjAuNTsiLz48dGV4dCBmaWxsPSIjMDAwMDAwIiBmb250LWZhbWlseT0ic2Fucy1zZXJpZiIgZm9udC1zaXplPSIxMyIgbGVuZ3RoQWRqdXN0PSJzcGFjaW5nIiB0ZXh0TGVuZ3RoPSIxNjIuNSIgeD0iNjY1IiB5PSIyNTcuMjg5MSI+JiMxMDQyOyYjMTA4NTsmIzEwNzc7JiMxMDk2OyYjMTA4NTsmIzExMDM7JiMxMTAzOyAmIzEwODc7JiMxMDgzOyYjMTA3MjsmIzEwOTA7JiMxMDc3OyYjMTA3ODsmIzEwODU7JiMxMDcyOyYjMTEwMzsgJiMxMDg5OyYjMTA4MDsmIzEwODk7JiMxMDkwOyYjMTA3NzsmIzEwODQ7JiMxMDcyOzwvdGV4dD48dGV4dCBmaWxsPSIjMDAwMDAwIiBmb250LWZhbWlseT0ic2Fucy1zZXJpZiIgZm9udC1zaXplPSIxMyIgbGVuZ3RoQWRqdXN0PSJzcGFjaW5nIiB0ZXh0TGVuZ3RoPSIxMzYuNSIgeD0iNjY1IiB5PSIyNzEuMjAzMSI+KCYjMTA4NTsmIzEwNzc7ICYjMTEwMzsmIzEwNzQ7JiMxMDgzOyYjMTEwMzsmIzEwNzc7JiMxMDkwOyYjMTA4OTsmIzExMDM7ICYjMTA3MjsmIzEwODI7JiMxMDkwOyYjMTA4NjsmIzEwODg7JiMxMDg2OyYjMTA4NDspPC90ZXh0PjwvZz48IS0tbGluayBVQzEgdG8gPz8/Pz8/Pz8/PyA/PyA/Pz8/Pz8/Pz8/LS0+PGcgY2xhc3M9ImxpbmsiIGRhdGEtZW50aXR5LTE9IlVDMSIgZGF0YS1lbnRpdHktMj0iJiMxMDYwOyYjMTA4MDsmIzEwODM7JiMxMTAwOyYjMTA5MDsmIzEwODg7JiMxMDcyOyYjMTA5NDsmIzEwODA7JiMxMTAzOyAmIzEwODc7JiMxMDg2OyAmIzEwODc7JiMxMDcyOyYjMTA4ODsmIzEwNzI7JiMxMDg0OyYjMTA3NzsmIzEwOTA7JiMxMDg4OyYjMTA3MjsmIzEwODQ7IiBkYXRhLXNvdXJjZS1saW5lPSIyOCIgZGF0YS11aWQ9ImxuazE4IiBpZD0ibGlua19VQzFfJiMxMDYwOyYjMTA4MDsmIzEwODM7JiMxMTAwOyYjMTA5MDsmIzEwODg7JiMxMDcyOyYjMTA5NDsmIzEwODA7JiMxMTAzOyAmIzEwODc7JiMxMDg2OyAmIzEwODc7JiMxMDcyOyYjMTA4ODsmIzEwNzI7JiMxMDg0OyYjMTA3NzsmIzEwOTA7JiMxMDg4OyYjMTA3MjsmIzEwODQ7Ij48cGF0aCBkPSJNNDcyLjUsMzY3LjI2IEM0NzIuNSwzNTMuMjYgNDcyLjUsMzM5LjE2IDQ3Mi41LDMyMy43MSIgZmlsbD0ibm9uZSIgaWQ9IlVDMS10by0mIzEwNjA7JiMxMDgwOyYjMTA4MzsmIzExMDA7JiMxMDkwOyYjMTA4ODsmIzEwNzI7JiMxMDk0OyYjMTA4MDsmIzExMDM7ICYjMTA4NzsmIzEwODY7ICYjMTA4NzsmIzEwNzI7JiMxMDg4OyYjMTA3MjsmIzEwODQ7JiMxMDc3OyYjMTA5MDsmIzEwODg7JiMxMDcyOyYjMTA4NDsiIHN0eWxlPSJzdHJva2U6IzQ0NzJDNDtzdHJva2Utd2lkdGg6MTtzdHJva2UtZGFzaGFycmF5OjcuMCw3LjA7Ii8+PHBvbHlnb24gZmlsbD0iIzQ0NzJDNCIgcG9pbnRzPSI0NzIuNSwzMTcuNzEsNDY4LjUsMzI2LjcxLDQ3Mi41LDMyMi43MSw0NzYuNSwzMjYuNzEsNDcyLjUsMzE3LjcxIiBzdHlsZT0ic3Ryb2tlOiM0NDcyQzQ7c3Ryb2tlLXdpZHRoOjE7Ii8+PHRleHQgZmlsbD0iIzAwMDAwMCIgZm9udC1mYW1pbHk9InNhbnMtc2VyaWYiIGZvbnQtc2l6ZT0iMTMiIGxlbmd0aEFkanVzdD0ic3BhY2luZyIgdGV4dExlbmd0aD0iNDUuNSIgeD0iNDM5LjUiIHk9IjM0OC4yODkxIj5pbmNsdWRlPC90ZXh0PjwvZz48IS0tbGluayBVQzMgdG8gPz8/Pz8/Pz8gPz8/Pz8/Pz8/Pz8tLT48ZyBjbGFzcz0ibGluayIgZGF0YS1lbnRpdHktMT0iVUMzIiBkYXRhLWVudGl0eS0yPSImIzEwNTU7JiMxMDg4OyYjMTA4NjsmIzEwNzQ7JiMxMDc3OyYjMTA4ODsmIzEwODI7JiMxMDcyOyAmIzEwNzY7JiMxMDg2OyYjMTA4OTsmIzEwOTA7JiMxMDkxOyYjMTA4NzsmIzEwODU7JiMxMDg2OyYjMTA4OTsmIzEwOTA7JiMxMDgwOyIgZGF0YS1zb3VyY2UtbGluZT0iMjkiIGRhdGEtdWlkPSJsbmsyMCIgaWQ9ImxpbmtfVUMzXyYjMTA1NTsmIzEwODg7JiMxMDg2OyYjMTA3NDsmIzEwNzc7JiMxMDg4OyYjMTA4MjsmIzEwNzI7ICYjMTA3NjsmIzEwODY7JiMxMDg5OyYjMTA5MDsmIzEwOTE7JiMxMDg3OyYjMTA4NTsmIzEwODY7JiMxMDg5OyYjMTA5MDsmIzEwODA7Ij48cGF0aCBkPSJNNDcyLjUsMTI5Ljg5IEM0NzIuNSwxMTQuODggNDcyLjUsMTAwLjgzIDQ3Mi41LDg2LjA1IiBmaWxsPSJub25lIiBpZD0iVUMzLXRvLSYjMTA1NTsmIzEwODg7JiMxMDg2OyYjMTA3NDsmIzEwNzc7JiMxMDg4OyYjMTA4MjsmIzEwNzI7ICYjMTA3NjsmIzEwODY7JiMxMDg5OyYjMTA5MDsmIzEwOTE7JiMxMDg3OyYjMTA4NTsmIzEwODY7JiMxMDg5OyYjMTA5MDsmIzEwODA7IiBzdHlsZT0ic3Ryb2tlOiM0NDcyQzQ7c3Ryb2tlLXdpZHRoOjE7c3Ryb2tlLWRhc2hhcnJheTo3LjAsNy4wOyIvPjxwb2x5Z29uIGZpbGw9IiM0NDcyQzQiIHBvaW50cz0iNDcyLjUsODAuMDUsNDY4LjUsODkuMDUsNDcyLjUsODUuMDUsNDc2LjUsODkuMDUsNDcyLjUsODAuMDUiIHN0eWxlPSJzdHJva2U6IzQ0NzJDNDtzdHJva2Utd2lkdGg6MTsiLz48dGV4dCBmaWxsPSIjMDAwMDAwIiBmb250LWZhbWlseT0ic2Fucy1zZXJpZiIgZm9udC1zaXplPSIxMyIgbGVuZ3RoQWRqdXN0PSJzcGFjaW5nIiB0ZXh0TGVuZ3RoPSIzOSIgeD0iNDQyLjUiIHk9IjExMC43ODkxIj5leHRlbmQ8L3RleHQ+PC9nPjwhLS1saW5rIEdVIHRvIFVDMS0tPjxnIGNsYXNzPSJsaW5rIiBkYXRhLWVudGl0eS0xPSJHVSIgZGF0YS1lbnRpdHktMj0iVUMxIiBkYXRhLXNvdXJjZS1saW5lPSIzMyIgZGF0YS11aWQ9ImxuazIxIiBpZD0ibGlua19HVV9VQzEiPjxwYXRoIGQ9Ik0yODMuMDUsNDU5LjgyIEMzMDIuNDIsNDQ0LjgxIDMyNS4yNSw0MjkuMSAzNDgsNDE4IEMzNjkuNzgsNDA3LjM3IDM4OS41Nzg4LDQwMS4wNDMyIDQxMS44MTg4LDM5NS42NTMyIiBmaWxsPSJub25lIiBpZD0iR1UtdG8tVUMxIiBzdHlsZT0ic3Ryb2tlOiM0NDcyQzQ7c3Ryb2tlLXdpZHRoOjE7Ii8+PHBvbHlnb24gZmlsbD0iIzQ0NzJDNCIgcG9pbnRzPSI0MTcuNjUsMzk0LjI0LDQwNy45NjExLDM5Mi40NzI0LDQxMi43OTA3LDM5NS40MTc3LDQwOS44NDU0LDQwMC4yNDczLDQxNy42NSwzOTQuMjQiIHN0eWxlPSJzdHJva2U6IzQ0NzJDNDtzdHJva2Utd2lkdGg6MTsiLz48L2c+PCEtLWxpbmsgR1UgdG8gVUMyLS0+PGcgY2xhc3M9ImxpbmsiIGRhdGEtZW50aXR5LTE9IkdVIiBkYXRhLWVudGl0eS0yPSJVQzIiIGRhdGEtc291cmNlLWxpbmU9IjM0IiBkYXRhLXVpZD0ibG5rMjIiIGlkPSJsaW5rX0dVX1VDMiI+PHBhdGggZD0iTTMwMC4yNCw0OTAuMDMgQzMzNy4xNSw0ODIuMDUgMzc2LjA3NTgsNDczLjYzOTQgNDEwLjU4NTgsNDY2LjE2OTQiIGZpbGw9Im5vbmUiIGlkPSJHVS10by1VQzIiIHN0eWxlPSJzdHJva2U6IzQ0NzJDNDtzdHJva2Utd2lkdGg6MTsiLz48cG9seWdvbiBmaWxsPSIjNDQ3MkM0IiBwb2ludHM9IjQxNi40NSw0NjQuOSw0MDYuODA3NSw0NjIuODk0Niw0MTEuNTYzMiw0NjUuOTU3OCw0MDguNSw0NzAuNzEzNSw0MTYuNDUsNDY0LjkiIHN0eWxlPSJzdHJva2U6IzQ0NzJDNDtzdHJva2Utd2lkdGg6MTsiLz48L2c+PCEtLWxpbmsgR1UgdG8gVUM2LS0+PGcgY2xhc3M9ImxpbmsiIGRhdGEtZW50aXR5LTE9IkdVIiBkYXRhLWVudGl0eS0yPSJVQzYiIGRhdGEtc291cmNlLWxpbmU9IjM1IiBkYXRhLXVpZD0ibG5rMjMiIGlkPSJsaW5rX0dVX1VDNiI+PHBhdGggZD0iTTMwMC4yNCw1MDkuMzIgQzMzNi4wNCw1MTEuNTUgMzczLjI2MTYsNTEzLjg3NzMgNDA3LjMyMTYsNTE1Ljk5NzMiIGZpbGw9Im5vbmUiIGlkPSJHVS10by1VQzYiIHN0eWxlPSJzdHJva2U6IzQ0NzJDNDtzdHJva2Utd2lkdGg6MTsiLz48cG9seWdvbiBmaWxsPSIjNDQ3MkM0IiBwb2ludHM9IjQxMy4zMSw1MTYuMzcsNDA0LjU3NTksNTExLjgxODYsNDA4LjMxOTcsNTE2LjA1OTQsNDA0LjA3ODksNTE5LjgwMzIsNDEzLjMxLDUxNi4zNyIgc3R5bGU9InN0cm9rZTojNDQ3MkM0O3N0cm9rZS13aWR0aDoxOyIvPjwvZz48IS0tbGluayBHVSB0byBVQzctLT48ZyBjbGFzcz0ibGluayIgZGF0YS1lbnRpdHktMT0iR1UiIGRhdGEtZW50aXR5LTI9IlVDNyIgZGF0YS1zb3VyY2UtbGluZT0iMzYiIGRhdGEtdWlkPSJsbmsyNCIgaWQ9ImxpbmtfR1VfVUM3Ij48cGF0aCBkPSJNMzAwLjA2LDUzNC40NSBDMzE1LjY4LDU0MC42MyAzMzIuMyw1NDYuODQgMzQ4LDU1MiBDMzc0LjA5LDU2MC41OCAzOTguMDQ2OCw1NjYuOTU1IDQyMS44MzY4LDU3Mi42ODUiIGZpbGw9Im5vbmUiIGlkPSJHVS10by1VQzciIHN0eWxlPSJzdHJva2U6IzQ0NzJDNDtzdHJva2Utd2lkdGg6MTsiLz48cG9seWdvbiBmaWxsPSIjNDQ3MkM0IiBwb2ludHM9IjQyNy42Nyw1NzQuMDksNDE5Ljg1NjksNTY4LjA5MzgsNDIyLjgwOSw1NzIuOTE5Miw0MTcuOTgzNiw1NzUuODcxMyw0MjcuNjcsNTc0LjA5IiBzdHlsZT0ic3Ryb2tlOiM0NDcyQzQ7c3Ryb2tlLXdpZHRoOjE7Ii8+PC9nPjwhLS1saW5rIFJVIHRvIFVDMS0tPjxnIGNsYXNzPSJsaW5rIiBkYXRhLWVudGl0eS0xPSJSVSIgZGF0YS1lbnRpdHktMj0iVUMxIiBkYXRhLXNvdXJjZS1saW5lPSIzOCIgZGF0YS11aWQ9ImxuazI1IiBpZD0ibGlua19SVV9VQzEiPjxwYXRoIGQ9Ik0yOTMuMjUsMzYzLjI1IEMzMjkuMDIsMzY3LjQxIDM2Ny44MzAzLDM3MS45MjU5IDQwMy41NTAzLDM3Ni4wODU5IiBmaWxsPSJub25lIiBpZD0iUlUtdG8tVUMxIiBzdHlsZT0ic3Ryb2tlOiM0NDcyQzQ7c3Ryb2tlLXdpZHRoOjE7Ii8+PHBvbHlnb24gZmlsbD0iIzQ0NzJDNCIgcG9pbnRzPSI0MDkuNTEsMzc2Ljc4LDQwMS4wMzMxLDM3MS43NjU3LDQwNC41NDM2LDM3Ni4yMDE2LDQwMC4xMDc3LDM3OS43MTIsNDA5LjUxLDM3Ni43OCIgc3R5bGU9InN0cm9rZTojNDQ3MkM0O3N0cm9rZS13aWR0aDoxOyIvPjwvZz48IS0tbGluayBSVSB0byBVQzItLT48ZyBjbGFzcz0ibGluayIgZGF0YS1lbnRpdHktMT0iUlUiIGRhdGEtZW50aXR5LTI9IlVDMiIgZGF0YS1zb3VyY2UtbGluZT0iMzkiIGRhdGEtdWlkPSJsbmsyNiIgaWQ9ImxpbmtfUlVfVUMyIj48cGF0aCBkPSJNMjkzLjI5LDM5Mi4xMyBDMzEwLjY1LDQwMS4zMyAzMjkuNzYsNDEwLjY4IDM0OCw0MTggQzM3MC42NSw0MjcuMDkgMzkwLjcwODIsNDMzLjI4MDUgNDEyLjg5ODIsNDM5LjEzMDUiIGZpbGw9Im5vbmUiIGlkPSJSVS10by1VQzIiIHN0eWxlPSJzdHJva2U6IzQ0NzJDNDtzdHJva2Utd2lkdGg6MTsiLz48cG9seWdvbiBmaWxsPSIjNDQ3MkM0IiBwb2ludHM9IjQxOC43LDQ0MC42Niw0MTEuMDE3LDQzNC40OTc5LDQxMy44NjUyLDQzOS4zODU0LDQwOC45Nzc3LDQ0Mi4yMzM1LDQxOC43LDQ0MC42NiIgc3R5bGU9InN0cm9rZTojNDQ3MkM0O3N0cm9rZS13aWR0aDoxOyIvPjwvZz48IS0tbGluayBSVSB0byBVQzMtLT48ZyBjbGFzcz0ibGluayIgZGF0YS1lbnRpdHktMT0iUlUiIGRhdGEtZW50aXR5LTI9IlVDMyIgZGF0YS1zb3VyY2UtbGluZT0iNDAiIGRhdGEtdWlkPSJsbmsyNyIgaWQ9ImxpbmtfUlVfVUMzIj48cGF0aCBkPSJNMjUyLjA5LDMxMC42NCBDMjcxLjg0LDI3Mi45IDMwNC43OCwyMjAuNDUgMzQ4LDE4OSBDMzYzLjI0LDE3Ny45MSAzNzYuMDQwOSwxNzEuNzkyNiAzOTQuMDcwOSwxNjYuMTgyNiIgZmlsbD0ibm9uZSIgaWQ9IlJVLXRvLVVDMyIgc3R5bGU9InN0cm9rZTojNDQ3MkM0O3N0cm9rZS13aWR0aDoxOyIvPjxwb2x5Z29uIGZpbGw9IiM0NDcyQzQiIHBvaW50cz0iMzk5LjgsMTY0LjQsMzkwLjAxOCwxNjMuMjU0NSwzOTUuMDI1OCwxNjUuODg1NSwzOTIuMzk0OCwxNzAuODkzMywzOTkuOCwxNjQuNCIgc3R5bGU9InN0cm9rZTojNDQ3MkM0O3N0cm9rZS13aWR0aDoxOyIvPjwvZz48IS0tbGluayBSVSB0byBVQzQtLT48ZyBjbGFzcz0ibGluayIgZGF0YS1lbnRpdHktMT0iUlUiIGRhdGEtZW50aXR5LTI9IlVDNCIgZGF0YS1zb3VyY2UtbGluZT0iNDEiIGRhdGEtdWlkPSJsbmsyOCIgaWQ9ImxpbmtfUlVfVUM0Ij48cGF0aCBkPSJNMjczLjU2LDMxMC45NyBDMjk0LjM0LDI5MS4yOCAzMjAuNzIsMjY5LjQzIDM0OCwyNTUgQzM3MC4wNywyNDMuMzIgMzkwLjczMjUsMjM2Ljg0IDQxMy41MzI1LDIzMS43OCIgZmlsbD0ibm9uZSIgaWQ9IlJVLXRvLVVDNCIgc3R5bGU9InN0cm9rZTojNDQ3MkM0O3N0cm9rZS13aWR0aDoxOyIvPjxwb2x5Z29uIGZpbGw9IiM0NDcyQzQiIHBvaW50cz0iNDE5LjM5LDIzMC40OCw0MDkuNzM3MSwyMjguNTI0OSw0MTQuNTA4OCwyMzEuNTYzMyw0MTEuNDcwNCwyMzYuMzM0OSw0MTkuMzksMjMwLjQ4IiBzdHlsZT0ic3Ryb2tlOiM0NDcyQzQ7c3Ryb2tlLXdpZHRoOjE7Ii8+PC9nPjwhLS1saW5rIFIgdG8gVUM1LS0+PGcgY2xhc3M9ImxpbmsiIGRhdGEtZW50aXR5LTE9IlIiIGRhdGEtZW50aXR5LTI9IlVDNSIgZGF0YS1zb3VyY2UtbGluZT0iNDMiIGRhdGEtdWlkPSJsbmsyOSIgaWQ9ImxpbmtfUl9VQzUiPjxwYXRoIGQ9Ik0yNTQuOTQsNjI2LjI4IEMyODUuOTUsNjMwLjU0IDMzNS42NzU4LDYzNy4zNjQgMzgyLjgwNTgsNjQzLjgzNCIgZmlsbD0ibm9uZSIgaWQ9IlItdG8tVUM1IiBzdHlsZT0ic3Ryb2tlOiM0NDcyQzQ7c3Ryb2tlLXdpZHRoOjE7Ii8+PHBvbHlnb24gZmlsbD0iIzQ0NzJDNCIgcG9pbnRzPSIzODguNzUsNjQ0LjY1LDM4MC4zNzc2LDYzOS40NjMxLDM4My43OTY1LDY0My45NywzNzkuMjg5Niw2NDcuMzg4OCwzODguNzUsNjQ0LjY1IiBzdHlsZT0ic3Ryb2tlOiM0NDcyQzQ7c3Ryb2tlLXdpZHRoOjE7Ii8+PC9nPjwhLS1saW5rIEFkbWluIHRvIFVDOC0tPjxnIGNsYXNzPSJsaW5rIiBkYXRhLWVudGl0eS0xPSJBZG1pbiIgZGF0YS1lbnRpdHktMj0iVUM4IiBkYXRhLXNvdXJjZS1saW5lPSI0NCIgZGF0YS11aWQ9ImxuazMwIiBpZD0ibGlua19BZG1pbl9VQzgiPjxwYXRoIGQ9Ik0yNzUuNjcsNzMzIEMzMDYuMjQsNzMzIDM0MS43Niw3MzMgMzc4LjcsNzMzIiBmaWxsPSJub25lIiBpZD0iQWRtaW4tdG8tVUM4IiBzdHlsZT0ic3Ryb2tlOiM0NDcyQzQ7c3Ryb2tlLXdpZHRoOjE7Ii8+PHBvbHlnb24gZmlsbD0iIzQ0NzJDNCIgcG9pbnRzPSIzODQuNyw3MzMsMzc1LjcsNzI5LDM3OS43LDczMywzNzUuNyw3MzcsMzg0LjcsNzMzIiBzdHlsZT0ic3Ryb2tlOiM0NDcyQzQ7c3Ryb2tlLXdpZHRoOjE7Ii8+PC9nPjwhLS1saW5rIFVDMyB0byBQUy0tPjxnIGNsYXNzPSJsaW5rIiBkYXRhLWVudGl0eS0xPSJVQzMiIGRhdGEtZW50aXR5LTI9IlBTIiBkYXRhLXNvdXJjZS1saW5lPSI0NyIgZGF0YS11aWQ9ImxuazMxIiBpZD0ibGlua19VQzNfUFMiPjxwYXRoIGQ9Ik01NTQuMDcsMTYxLjUxIEM1OTQuMzMsMTY2Ljc2IDYzNi41NzAzLDE3Mi4yNzQ4IDY3NS4wMjAzLDE3Ny4yODQ4IiBmaWxsPSJub25lIiBpZD0iVUMzLXRvLVBTIiBzdHlsZT0ic3Ryb2tlOiM0NDcyQzQ7c3Ryb2tlLXdpZHRoOjE7Ii8+PHBvbHlnb24gZmlsbD0iIzQ0NzJDNCIgcG9pbnRzPSI2ODAuOTcsMTc4LjA2LDY3Mi41NjIzLDE3Mi45MzA3LDY3Ni4wMTE5LDE3Ny40MTQsNjcxLjUyODYsMTgwLjg2MzYsNjgwLjk3LDE3OC4wNiIgc3R5bGU9InN0cm9rZTojNDQ3MkM0O3N0cm9rZS13aWR0aDoxOyIvPjwvZz48IS0tbGluayBVQzQgdG8gUFMtLT48ZyBjbGFzcz0ibGluayIgZGF0YS1lbnRpdHktMT0iVUM0IiBkYXRhLWVudGl0eS0yPSJQUyIgZGF0YS1zb3VyY2UtbGluZT0iNDgiIGRhdGEtdWlkPSJsbmszMiIgaWQ9ImxpbmtfVUM0X1BTIj48cGF0aCBkPSJNNTI5LjAyLDIxNC45NiBDNTcyLjc4LDIwOS40MSA2MjguMDY3NywyMDIuMzk0OCA2NzQuOTA3NywxOTYuNDU0OCIgZmlsbD0ibm9uZSIgaWQ9IlVDNC10by1QUyIgc3R5bGU9InN0cm9rZTojNDQ3MkM0O3N0cm9rZS13aWR0aDoxOyIvPjxwb2x5Z29uIGZpbGw9IiM0NDcyQzQiIHBvaW50cz0iNjgwLjg2LDE5NS43LDY3MS40MjgzLDE5Mi44NjQsNjc1Ljg5OTcsMTk2LjMyOSw2NzIuNDM0NywyMDAuODAwNSw2ODAuODYsMTk1LjciIHN0eWxlPSJzdHJva2U6IzQ0NzJDNDtzdHJva2Utd2lkdGg6MTsiLz48L2c+PCEtLXJldmVyc2UgbGluayBVIHRvIFJVLS0+PGcgY2xhc3M9ImxpbmsiIGRhdGEtZW50aXR5LTE9IlUiIGRhdGEtZW50aXR5LTI9IlJVIiBkYXRhLXNvdXJjZS1saW5lPSI1MSIgZGF0YS11aWQ9ImxuazMzIiBpZD0ibGlua19VX1JVIj48cGF0aCBkPSJNODQuODYwNyw1MzEuNjEwOSBDMTA0Ljg5MDcsNTAyLjc0MDkgMTIzLjYsNDc2Ljk5IDE1MSw0NDMgQzE2Mi4yMSw0MjkuMSAxNzQuOTIsNDE0LjQ4IDE4Ni43OSw0MDEuMjciIGZpbGw9Im5vbmUiIGlkPSJVLWJhY2t0by1SVSIgc3R5bGU9InN0cm9rZTojNDQ3MkM0O3N0cm9rZS13aWR0aDoxOyIvPjxwb2x5Z29uIGZpbGw9Im5vbmUiIHBvaW50cz0iNzQuNiw1NDYuNCw4OS43OTA0LDUzNS4wMzExLDc5LjkzMSw1MjguMTkwNiw3NC42LDU0Ni40IiBzdHlsZT0ic3Ryb2tlOiM0NDcyQzQ7c3Ryb2tlLXdpZHRoOjE7Ii8+PC9nPjwhLS1yZXZlcnNlIGxpbmsgVSB0byBHVS0tPjxnIGNsYXNzPSJsaW5rIiBkYXRhLWVudGl0eS0xPSJVIiBkYXRhLWVudGl0eS0yPSJHVSIgZGF0YS1zb3VyY2UtbGluZT0iNTIiIGRhdGEtdWlkPSJsbmszNCIgaWQ9ImxpbmtfVV9HVSI+PHBhdGggZD0iTTEwNi43ODIyLDU1OC42NDU1IEMxMjcuMzMyMiw1NDkuNjI1NSAxMzYuMjUsNTQ1LjcxIDE1OS42Nyw1MzUuNDMiIGZpbGw9Im5vbmUiIGlkPSJVLWJhY2t0by1HVSIgc3R5bGU9InN0cm9rZTojNDQ3MkM0O3N0cm9rZS13aWR0aDoxOyIvPjxwb2x5Z29uIGZpbGw9Im5vbmUiIHBvaW50cz0iOTAuMyw1NjUuODgsMTA5LjE5MzcsNTY0LjEzOTUsMTA0LjM3MDcsNTUzLjE1MTQsOTAuMyw1NjUuODgiIHN0eWxlPSJzdHJva2U6IzQ0NzJDNDtzdHJva2Utd2lkdGg6MTsiLz48L2c+PCEtLXJldmVyc2UgbGluayBVIHRvIFItLT48ZyBjbGFzcz0ibGluayIgZGF0YS1lbnRpdHktMT0iVSIgZGF0YS1lbnRpdHktMj0iUiIgZGF0YS1zb3VyY2UtbGluZT0iNTMiIGRhdGEtdWlkPSJsbmszNSIgaWQ9ImxpbmtfVV9SIj48cGF0aCBkPSJNMTA3Ljg5MjIsNTk2Ljc2IEMxNDMuNDkyMiw2MDQuNDcgMTc2LjA1LDYxMS41MyAyMDUuMjgsNjE3Ljg2IiBmaWxsPSJub25lIiBpZD0iVS1iYWNrdG8tUiIgc3R5bGU9InN0cm9rZTojNDQ3MkM0O3N0cm9rZS13aWR0aDoxOyIvPjxwb2x5Z29uIGZpbGw9Im5vbmUiIHBvaW50cz0iOTAuMyw1OTIuOTUsMTA2LjYyMjIsNjAyLjYyNCwxMDkuMTYyMiw1OTAuODk1OSw5MC4zLDU5Mi45NSIgc3R5bGU9InN0cm9rZTojNDQ3MkM0O3N0cm9rZS13aWR0aDoxOyIvPjwvZz48IS0tcmV2ZXJzZSBsaW5rIFUgdG8gQWRtaW4tLT48ZyBjbGFzcz0ibGluayIgZGF0YS1lbnRpdHktMT0iVSIgZGF0YS1lbnRpdHktMj0iQWRtaW4iIGRhdGEtc291cmNlLWxpbmU9IjU0IiBkYXRhLXVpZD0ibG5rMzYiIGlkPSJsaW5rX1VfQWRtaW4iPjxwYXRoIGQ9Ik0xMDAuNzE2OCw2MzQuMjE5OCBDMTE5LjM1NjgsNjUxLjg3OTggMTI5LjI3LDY2MC40NSAxNTEsNjc4IEMxNjEuNDQsNjg2LjQzIDE3My4wOCw2OTUuMDQgMTg0LjEyLDcwMi44NiIgZmlsbD0ibm9uZSIgaWQ9IlUtYmFja3RvLUFkbWluIiBzdHlsZT0ic3Ryb2tlOiM0NDcyQzQ7c3Ryb2tlLXdpZHRoOjE7Ii8+PHBvbHlnb24gZmlsbD0ibm9uZSIgcG9pbnRzPSI4Ny42NSw2MjEuODQsOTYuNTkwMiw2MzguNTc1NCwxMDQuODQzNCw2MjkuODY0Miw4Ny42NSw2MjEuODQiIHN0eWxlPSJzdHJva2U6IzQ0NzJDNDtzdHJva2Utd2lkdGg6MTsiLz48L2c+PCEtLVNSQz1bZkxKQkpiZjE2RHhGS3FucUtMdEdNMDVsUUtvSzVoUzZ1eXVEWFFDYnVaZER1UFdzUVBpS0o5aFU0Y210eFFCVUtYX1dZNTEwQmh4MnAxbHItX3lQM1kzNkpHYVNfWkZwVlR6X2RJZGo1em5OTUp6eDgwekJKWXZSU2tIUjhVTHdEaFVfdnRrN1JaeGI1SnJWSlp6RmZuRmY1RXJ1Vmp4bnhNZm9WTmR6TUhBaFF4ZDB5b1Q4d05IZ1JjdWtzWHZiZmpGQm9zUkJ6eHROVFo2SE05bkY5U0h4OE9oRVJZMDNKX2c1bFBVMXAxVHk5blNLRjVVOEIyZDlBTk1jLWdnWmx3YWNfY2lncjFOTGVGU2ZjSXQ5eFNacDBGcUpZMHowTkFrTUJraUF4MVAtcDVHenJURFZMTmw3TFJTRlE2T2NISy1tdFZubHVPcjl1TkZMT2ExNXpWSzd1dHEyU3dwZ2dXalNCdDhTWmszTnlXUzVELTlHeVJCa05qN1hrZExpMDdfMTNOTEx3aEFIbTU5TlhLcFZ0OUJKQVZ3OENWQjVBNTlvTWJYR0RfSkltc2VUc1JLV3RDOS1kdjZqQUh3ZDZVdU5Pb01DQV9xNXcxaUFNRExja01NZjltUDZyR0VDLTRYQUdoODFNOFllNndmamVWQ0NfU3c1eGVxTDc3TDNNRUNRQWhJcUVEREU0Uk9mR0lacjRNMFRWUUlrQklKMWEzeWk0S0FKbDVmTFpiZk5YdWttcUcxQkozQm5WNm1JR2xzSEsxUW5tOFhaTEpEaldjWnAzY0FINFJfWFlQQUUtRlV1WllnbjEwZy1nOXZ5bDBobzlWT21NQUZra0t0cTIzY2RCak5KTUJDaGlrM2NZZVR2WG9OWUhrQkNiZkNZdUNSTUpJakhmTGx1amNxNXJ0YUpFNndVM2tpWllTY2U4UzJjUWlkeFh2c3c5cDNnaVRXZ3pwZW92dVZjbWoxUzUyOHAxNlU2dUNZQzN5cTRtRFBDMlpGdnZjdGZKY1l3QkFGY2NfZGxnX1J1XzZEMUsyYjhPN0NCUGM5V2FqRzlnNkxFZlp1LVNnNFBQYkN3aUlzVmxlbDVTNktDaDh0OG9XbUNaYkM4cm1pU1V5YnZrdkppWWJJZHlENVpfSzYwdzZJM0pva0RKTmxpdUVzdWQxTmxUMWJiOXJQckpUQ2hiMWNzVXpKQlktWWNDOERRREc3bVJTbC11XzNfMnlmSDR6NXMzQ21UQUxuZmJyb0FLRExmRzNmcVpIcFBXX1R2UzNwZXVrQ0xIOHlTb1hKMHJOczdUWDM2Mm95OGwwQ0FQN0NCU1ZvV1BGR2R0QTlMQ3lPRnRybXh4V21IZjNhZVVEQVdidWF2c2Z0a3gzeTBdLS0+PC9nPjwvc3ZnPg==;" parent="1" vertex="1">
            <mxGeometry y="880" width="872" height="777" as="geometry" />
          </mxCell>
        </UserObject>
        <UserObject label="" plantUmlData="{&#xa;  &quot;data&quot;: &quot;@startuml\nskinparam class {\n  BackgroundColor #EFF4FC\n  BorderColor #5B9BD5\n  ArrowColor #4472C4\n  FontSize 13\n}\n\nclass Пользователь {\n  +id: String\n  +name: String\n  +контакты: String\n}\n\nclass ОбъектНедвижимости {\n  +id: String\n  +цена: Double\n  +адрес: String\n}\n\nclass Бронирование {\n  +дата: Date\n  +статус: String\n}\n\n&#39; Связи с кратностью\nПользователь \&quot;1\&quot; -- \&quot;0..*\&quot; ОбъектНедвижимости: Избранное\nПользователь \&quot;1\&quot; -- \&quot;0..*\&quot; Бронирование: Создает\nОбъектНедвижимости \&quot;1\&quot; -- \&quot;0..*\&quot; Бронирование: Имеет\n\nclass ПоисковыйСервис {\n  +поиск(): List&lt;ОбъектНедвижимости&gt;\n}\nПользователь --&gt; ПоисковыйСервис\n\nnote bottom: Кратность:\\n1 - ровно один\\n0..* - ноль или более\\n1..* - один или более\n@enduml&quot;,&#xa;  &quot;format&quot;: &quot;svg&quot;&#xa;}" id="C0xiIDpPcYKSjnHRzMrc-3">
          <mxCell style="shape=image;noLabel=1;verticalAlign=top;aspect=fixed;imageAspect=0;image=data:image/svg+xml,PHN2ZyB4bWxucz0iaHR0cDovL3d3dy53My5vcmcvMjAwMC9zdmciIHhtbG5zOnhsaW5rPSJodHRwOi8vd3d3LnczLm9yZy8xOTk5L3hsaW5rIiBjb250ZW50U3R5bGVUeXBlPSJ0ZXh0L2NzcyIgZGF0YS1kaWFncmFtLXR5cGU9IkNMQVNTIiBoZWlnaHQ9IjQyN3B4IiBwcmVzZXJ2ZUFzcGVjdFJhdGlvPSJub25lIiBzdHlsZT0id2lkdGg6NTczcHg7aGVpZ2h0OjQyN3B4O2JhY2tncm91bmQ6I0ZGRkZGRjsiIHZlcnNpb249IjEuMSIgdmlld0JveD0iMCAwIDU3MyA0MjciIHdpZHRoPSI1NzNweCIgem9vbUFuZFBhbj0ibWFnbmlmeSI+PGRlZnMvPjxnPjwhLS1jbGFzcyA/Pz8/Pz8/Pz8/Pz8tLT48ZyBjbGFzcz0iZW50aXR5IiBkYXRhLWVudGl0eT0iJiMxMDU1OyYjMTA4NjsmIzEwODM7JiMxMTAwOyYjMTA3OTsmIzEwODY7JiMxMDc0OyYjMTA3MjsmIzEwOTA7JiMxMDc3OyYjMTA4MzsmIzExMDA7IiBkYXRhLXNvdXJjZS1saW5lPSI4IiBkYXRhLXVpZD0iZW50MDAwMiIgaWQ9ImVudGl0eV8mIzEwNTU7JiMxMDg2OyYjMTA4MzsmIzExMDA7JiMxMDc5OyYjMTA4NjsmIzEwNzQ7JiMxMDcyOyYjMTA5MDsmIzEwNzc7JiMxMDgzOyYjMTEwMDsiPjxyZWN0IGZpbGw9IiNFRkY0RkMiIGhlaWdodD0iOTIuOTUzMSIgcng9IjIuNSIgcnk9IjIuNSIgc3R5bGU9InN0cm9rZTojNUI5QkQ1O3N0cm9rZS13aWR0aDowLjU7IiB3aWR0aD0iMTM4IiB4PSIxNTcuNSIgeT0iNyIvPjxlbGxpcHNlIGN4PSIxODUuMSIgY3k9IjIzIiBmaWxsPSIjQUREMUIyIiByeD0iMTEiIHJ5PSIxMSIgc3R5bGU9InN0cm9rZTojMTgxODE4O3N0cm9rZS13aWR0aDoxOyIvPjxwYXRoIGQ9Ik0xODIuNzI1LDI3LjI1IEwxODIuNzI1LDI5IEwxODcuNjYyNSwyOSBMMTg3LjY2MjUsMjcuMjUgTDE4Mi43MjUsMjcuMjUgWiBNMTgzLjQxMjUsMjcuOTM3NSBRMTgzLjQxMjUsMjcuOTM3NSAxODMuNDEyNSwxOC43NSBMMTgxLjY2MjUsMTguNzUgUTE4MS42NjI1LDE4Ljc1IDE4MS42NjI1LDI3LjkzNzUgTDE4My40MTI1LDI3LjkzNzUgWiBNMTg2Ljk3NSwyNy45Mzc1IEwxODguNzI1LDI3LjkzNzUgUTE4OC43MjUsMjcuOTM3NSAxODguNzI1LDI1LjEyNSBMMTg2Ljk3NSwyNS4xMjUgUTE4Ni45NzUsMjUuMTI1IDE4Ni45NzUsMjcuOTM3NSBaIE0xODYuOTc1LDE4Ljc1IFExODYuOTc1LDE4Ljc1IDE4Ni45NzUsMjEuNTYyNSBMMTg4LjcyNSwyMS41NjI1IFExODguNzI1LDIxLjU2MjUgMTg4LjcyNSwxOC43NSBMMTg2Ljk3NSwxOC43NSBaIE0xODIuNzI1LDE5LjQzNzUgTDE4Ny42NjI1LDE5LjQzNzUgTDE4Ny42NjI1LDE3LjY4NzUgTDE4Mi43MjUsMTcuNjg3NSBMMTgyLjcyNSwxOS40Mzc1IFogIiBmaWxsPSIjMDAwMDAwIi8+PHRleHQgZmlsbD0iIzAwMDAwMCIgZm9udC1mYW1pbHk9InNhbnMtc2VyaWYiIGZvbnQtc2l6ZT0iMTMiIGxlbmd0aEFkanVzdD0ic3BhY2luZyIgdGV4dExlbmd0aD0iNzgiIHg9IjIwMS45IiB5PSIyOC4zMzIiPiYjMTA1NTsmIzEwODY7JiMxMDgzOyYjMTEwMDsmIzEwNzk7JiMxMDg2OyYjMTA3NDsmIzEwNzI7JiMxMDkwOyYjMTA3NzsmIzEwODM7JiMxMTAwOzwvdGV4dD48bGluZSBzdHlsZT0ic3Ryb2tlOiM1QjlCRDU7c3Ryb2tlLXdpZHRoOjAuNTsiIHgxPSIxNTguNSIgeDI9IjI5NC41IiB5MT0iMzkiIHkyPSIzOSIvPjxlbGxpcHNlIGN4PSIxNjguNSIgY3k9IjUxLjk5MjIiIGZpbGw9Im5vbmUiIHJ4PSIzIiByeT0iMyIgc3R5bGU9InN0cm9rZTojMDM4MDQ4O3N0cm9rZS13aWR0aDoxOyIvPjx0ZXh0IGZpbGw9IiMwMDAwMDAiIGZvbnQtZmFtaWx5PSJzYW5zLXNlcmlmIiBmb250LXNpemU9IjE0IiBsZW5ndGhBZGp1c3Q9InNwYWNpbmciIHRleHRMZW5ndGg9IjcwIiB4PSIxNzcuNSIgeT0iNTYuMjM0NCI+aWQ6IFN0cmluZzwvdGV4dD48ZWxsaXBzZSBjeD0iMTY4LjUiIGN5PSI2Ni45NzY2IiBmaWxsPSJub25lIiByeD0iMyIgcnk9IjMiIHN0eWxlPSJzdHJva2U6IzAzODA0ODtzdHJva2Utd2lkdGg6MTsiLz48dGV4dCBmaWxsPSIjMDAwMDAwIiBmb250LWZhbWlseT0ic2Fucy1zZXJpZiIgZm9udC1zaXplPSIxNCIgbGVuZ3RoQWRqdXN0PSJzcGFjaW5nIiB0ZXh0TGVuZ3RoPSI4NCIgeD0iMTc3LjUiIHk9IjcxLjIxODgiPm5hbWU6IFN0cmluZzwvdGV4dD48ZWxsaXBzZSBjeD0iMTY4LjUiIGN5PSI4MS45NjA5IiBmaWxsPSJub25lIiByeD0iMyIgcnk9IjMiIHN0eWxlPSJzdHJva2U6IzAzODA0ODtzdHJva2Utd2lkdGg6MTsiLz48dGV4dCBmaWxsPSIjMDAwMDAwIiBmb250LWZhbWlseT0ic2Fucy1zZXJpZiIgZm9udC1zaXplPSIxNCIgbGVuZ3RoQWRqdXN0PSJzcGFjaW5nIiB0ZXh0TGVuZ3RoPSIxMTIiIHg9IjE3Ny41IiB5PSI4Ni4yMDMxIj4mIzEwODI7JiMxMDg2OyYjMTA4NTsmIzEwOTA7JiMxMDcyOyYjMTA4MjsmIzEwOTA7JiMxMDk5OzogU3RyaW5nPC90ZXh0PjxsaW5lIHN0eWxlPSJzdHJva2U6IzVCOUJENTtzdHJva2Utd2lkdGg6MC41OyIgeDE9IjE1OC41IiB4Mj0iMjk0LjUiIHkxPSI5MS45NTMxIiB5Mj0iOTEuOTUzMSIvPjwvZz48IS0tY2xhc3MgPz8/Pz8/Pz8/Pz8/Pz8/Pz8/LS0+PGcgY2xhc3M9ImVudGl0eSIgZGF0YS1lbnRpdHk9IiYjMTA1NDsmIzEwNzM7JiMxMDk4OyYjMTA3NzsmIzEwODI7JiMxMDkwOyYjMTA1MzsmIzEwNzc7JiMxMDc2OyYjMTA3NDsmIzEwODA7JiMxMDc4OyYjMTA4MDsmIzEwODQ7JiMxMDg2OyYjMTA4OTsmIzEwOTA7JiMxMDgwOyIgZGF0YS1zb3VyY2UtbGluZT0iMTQiIGRhdGEtdWlkPSJlbnQwMDAzIiBpZD0iZW50aXR5XyYjMTA1NDsmIzEwNzM7JiMxMDk4OyYjMTA3NzsmIzEwODI7JiMxMDkwOyYjMTA1MzsmIzEwNzc7JiMxMDc2OyYjMTA3NDsmIzEwODA7JiMxMDc4OyYjMTA4MDsmIzEwODQ7JiMxMDg2OyYjMTA4OTsmIzEwOTA7JiMxMDgwOyI+PHJlY3QgZmlsbD0iI0VGRjRGQyIgaGVpZ2h0PSI5Mi45NTMxIiByeD0iMi41IiByeT0iMi41IiBzdHlsZT0ic3Ryb2tlOiM1QjlCRDU7c3Ryb2tlLXdpZHRoOjAuNTsiIHdpZHRoPSIxNDkiIHg9IjciIHk9IjE3NSIvPjxlbGxpcHNlIGN4PSIyMiIgY3k9IjE5MSIgZmlsbD0iI0FERDFCMiIgcng9IjExIiByeT0iMTEiIHN0eWxlPSJzdHJva2U6IzE4MTgxODtzdHJva2Utd2lkdGg6MTsiLz48cGF0aCBkPSJNMTkuNjI1LDE5NS4yNSBMMTkuNjI1LDE5NyBMMjQuNTYyNSwxOTcgTDI0LjU2MjUsMTk1LjI1IEwxOS42MjUsMTk1LjI1IFogTTIwLjMxMjUsMTk1LjkzNzUgUTIwLjMxMjUsMTk1LjkzNzUgMjAuMzEyNSwxODYuNzUgTDE4LjU2MjUsMTg2Ljc1IFExOC41NjI1LDE4Ni43NSAxOC41NjI1LDE5NS45Mzc1IEwyMC4zMTI1LDE5NS45Mzc1IFogTTIzLjg3NSwxOTUuOTM3NSBMMjUuNjI1LDE5NS45Mzc1IFEyNS42MjUsMTk1LjkzNzUgMjUuNjI1LDE5My4xMjUgTDIzLjg3NSwxOTMuMTI1IFEyMy44NzUsMTkzLjEyNSAyMy44NzUsMTk1LjkzNzUgWiBNMjMuODc1LDE4Ni43NSBRMjMuODc1LDE4Ni43NSAyMy44NzUsMTg5LjU2MjUgTDI1LjYyNSwxODkuNTYyNSBRMjUuNjI1LDE4OS41NjI1IDI1LjYyNSwxODYuNzUgTDIzLjg3NSwxODYuNzUgWiBNMTkuNjI1LDE4Ny40Mzc1IEwyNC41NjI1LDE4Ny40Mzc1IEwyNC41NjI1LDE4NS42ODc1IEwxOS42MjUsMTg1LjY4NzUgTDE5LjYyNSwxODcuNDM3NSBaICIgZmlsbD0iIzAwMDAwMCIvPjx0ZXh0IGZpbGw9IiMwMDAwMDAiIGZvbnQtZmFtaWx5PSJzYW5zLXNlcmlmIiBmb250LXNpemU9IjEzIiBsZW5ndGhBZGp1c3Q9InNwYWNpbmciIHRleHRMZW5ndGg9IjExNyIgeD0iMzYiIHk9IjE5Ni4zMzIiPiYjMTA1NDsmIzEwNzM7JiMxMDk4OyYjMTA3NzsmIzEwODI7JiMxMDkwOyYjMTA1MzsmIzEwNzc7JiMxMDc2OyYjMTA3NDsmIzEwODA7JiMxMDc4OyYjMTA4MDsmIzEwODQ7JiMxMDg2OyYjMTA4OTsmIzEwOTA7JiMxMDgwOzwvdGV4dD48bGluZSBzdHlsZT0ic3Ryb2tlOiM1QjlCRDU7c3Ryb2tlLXdpZHRoOjAuNTsiIHgxPSI4IiB4Mj0iMTU1IiB5MT0iMjA3IiB5Mj0iMjA3Ii8+PGVsbGlwc2UgY3g9IjE4IiBjeT0iMjE5Ljk5MjIiIGZpbGw9Im5vbmUiIHJ4PSIzIiByeT0iMyIgc3R5bGU9InN0cm9rZTojMDM4MDQ4O3N0cm9rZS13aWR0aDoxOyIvPjx0ZXh0IGZpbGw9IiMwMDAwMDAiIGZvbnQtZmFtaWx5PSJzYW5zLXNlcmlmIiBmb250LXNpemU9IjE0IiBsZW5ndGhBZGp1c3Q9InNwYWNpbmciIHRleHRMZW5ndGg9IjcwIiB4PSIyNyIgeT0iMjI0LjIzNDQiPmlkOiBTdHJpbmc8L3RleHQ+PGVsbGlwc2UgY3g9IjE4IiBjeT0iMjM0Ljk3NjYiIGZpbGw9Im5vbmUiIHJ4PSIzIiByeT0iMyIgc3R5bGU9InN0cm9rZTojMDM4MDQ4O3N0cm9rZS13aWR0aDoxOyIvPjx0ZXh0IGZpbGw9IiMwMDAwMDAiIGZvbnQtZmFtaWx5PSJzYW5zLXNlcmlmIiBmb250LXNpemU9IjE0IiBsZW5ndGhBZGp1c3Q9InNwYWNpbmciIHRleHRMZW5ndGg9Ijg0IiB4PSIyNyIgeT0iMjM5LjIxODgiPiYjMTA5NDsmIzEwNzc7JiMxMDg1OyYjMTA3Mjs6IERvdWJsZTwvdGV4dD48ZWxsaXBzZSBjeD0iMTgiIGN5PSIyNDkuOTYwOSIgZmlsbD0ibm9uZSIgcng9IjMiIHJ5PSIzIiBzdHlsZT0ic3Ryb2tlOiMwMzgwNDg7c3Ryb2tlLXdpZHRoOjE7Ii8+PHRleHQgZmlsbD0iIzAwMDAwMCIgZm9udC1mYW1pbHk9InNhbnMtc2VyaWYiIGZvbnQtc2l6ZT0iMTQiIGxlbmd0aEFkanVzdD0ic3BhY2luZyIgdGV4dExlbmd0aD0iOTEiIHg9IjI3IiB5PSIyNTQuMjAzMSI+JiMxMDcyOyYjMTA3NjsmIzEwODg7JiMxMDc3OyYjMTA4OTs6IFN0cmluZzwvdGV4dD48bGluZSBzdHlsZT0ic3Ryb2tlOiM1QjlCRDU7c3Ryb2tlLXdpZHRoOjAuNTsiIHgxPSI4IiB4Mj0iMTU1IiB5MT0iMjU5Ljk1MzEiIHkyPSIyNTkuOTUzMSIvPjwvZz48IS0tY2xhc3MgPz8/Pz8/Pz8/Pz8/LS0+PGcgY2xhc3M9ImVudGl0eSIgZGF0YS1lbnRpdHk9IiYjMTA0MTsmIzEwODg7JiMxMDg2OyYjMTA4NTsmIzEwODA7JiMxMDg4OyYjMTA4NjsmIzEwNzQ7JiMxMDcyOyYjMTA4NTsmIzEwODA7JiMxMDc3OyIgZGF0YS1zb3VyY2UtbGluZT0iMjAiIGRhdGEtdWlkPSJlbnQwMDA0IiBpZD0iZW50aXR5XyYjMTA0MTsmIzEwODg7JiMxMDg2OyYjMTA4NTsmIzEwODA7JiMxMDg4OyYjMTA4NjsmIzEwNzQ7JiMxMDcyOyYjMTA4NTsmIzEwODA7JiMxMDc3OyI+PHJlY3QgZmlsbD0iI0VGRjRGQyIgaGVpZ2h0PSI3Ny45Njg4IiByeD0iMi41IiByeT0iMi41IiBzdHlsZT0ic3Ryb2tlOiM1QjlCRDU7c3Ryb2tlLXdpZHRoOjAuNTsiIHdpZHRoPSIxMjQiIHg9IjExNC41IiB5PSIzNDMiLz48ZWxsaXBzZSBjeD0iMTM1LjgiIGN5PSIzNTkiIGZpbGw9IiNBREQxQjIiIHJ4PSIxMSIgcnk9IjExIiBzdHlsZT0ic3Ryb2tlOiMxODE4MTg7c3Ryb2tlLXdpZHRoOjE7Ii8+PHBhdGggZD0iTTEzMy40MjUsMzYzLjI1IEwxMzMuNDI1LDM2NSBMMTM4LjM2MjUsMzY1IEwxMzguMzYyNSwzNjMuMjUgTDEzMy40MjUsMzYzLjI1IFogTTEzNC4xMTI1LDM2My45Mzc1IFExMzQuMTEyNSwzNjMuOTM3NSAxMzQuMTEyNSwzNTQuNzUgTDEzMi4zNjI1LDM1NC43NSBRMTMyLjM2MjUsMzU0Ljc1IDEzMi4zNjI1LDM2My45Mzc1IEwxMzQuMTEyNSwzNjMuOTM3NSBaIE0xMzcuNjc1LDM2My45Mzc1IEwxMzkuNDI1LDM2My45Mzc1IFExMzkuNDI1LDM2My45Mzc1IDEzOS40MjUsMzYxLjEyNSBMMTM3LjY3NSwzNjEuMTI1IFExMzcuNjc1LDM2MS4xMjUgMTM3LjY3NSwzNjMuOTM3NSBaIE0xMzcuNjc1LDM1NC43NSBRMTM3LjY3NSwzNTQuNzUgMTM3LjY3NSwzNTcuNTYyNSBMMTM5LjQyNSwzNTcuNTYyNSBRMTM5LjQyNSwzNTcuNTYyNSAxMzkuNDI1LDM1NC43NSBMMTM3LjY3NSwzNTQuNzUgWiBNMTMzLjQyNSwzNTUuNDM3NSBMMTM4LjM2MjUsMzU1LjQzNzUgTDEzOC4zNjI1LDM1My42ODc1IEwxMzMuNDI1LDM1My42ODc1IEwxMzMuNDI1LDM1NS40Mzc1IFogIiBmaWxsPSIjMDAwMDAwIi8+PHRleHQgZmlsbD0iIzAwMDAwMCIgZm9udC1mYW1pbHk9InNhbnMtc2VyaWYiIGZvbnQtc2l6ZT0iMTMiIGxlbmd0aEFkanVzdD0ic3BhY2luZyIgdGV4dExlbmd0aD0iNzgiIHg9IjE1MS4yIiB5PSIzNjQuMzMyIj4mIzEwNDE7JiMxMDg4OyYjMTA4NjsmIzEwODU7JiMxMDgwOyYjMTA4ODsmIzEwODY7JiMxMDc0OyYjMTA3MjsmIzEwODU7JiMxMDgwOyYjMTA3Nzs8L3RleHQ+PGxpbmUgc3R5bGU9InN0cm9rZTojNUI5QkQ1O3N0cm9rZS13aWR0aDowLjU7IiB4MT0iMTE1LjUiIHgyPSIyMzcuNSIgeTE9IjM3NSIgeTI9IjM3NSIvPjxlbGxpcHNlIGN4PSIxMjUuNSIgY3k9IjM4Ny45OTIyIiBmaWxsPSJub25lIiByeD0iMyIgcnk9IjMiIHN0eWxlPSJzdHJva2U6IzAzODA0ODtzdHJva2Utd2lkdGg6MTsiLz48dGV4dCBmaWxsPSIjMDAwMDAwIiBmb250LWZhbWlseT0ic2Fucy1zZXJpZiIgZm9udC1zaXplPSIxNCIgbGVuZ3RoQWRqdXN0PSJzcGFjaW5nIiB0ZXh0TGVuZ3RoPSI3MCIgeD0iMTM0LjUiIHk9IjM5Mi4yMzQ0Ij4mIzEwNzY7JiMxMDcyOyYjMTA5MDsmIzEwNzI7OiBEYXRlPC90ZXh0PjxlbGxpcHNlIGN4PSIxMjUuNSIgY3k9IjQwMi45NzY2IiBmaWxsPSJub25lIiByeD0iMyIgcnk9IjMiIHN0eWxlPSJzdHJva2U6IzAzODA0ODtzdHJva2Utd2lkdGg6MTsiLz48dGV4dCBmaWxsPSIjMDAwMDAwIiBmb250LWZhbWlseT0ic2Fucy1zZXJpZiIgZm9udC1zaXplPSIxNCIgbGVuZ3RoQWRqdXN0PSJzcGFjaW5nIiB0ZXh0TGVuZ3RoPSI5OCIgeD0iMTM0LjUiIHk9IjQwNy4yMTg4Ij4mIzEwODk7JiMxMDkwOyYjMTA3MjsmIzEwOTA7JiMxMDkxOyYjMTA4OTs6IFN0cmluZzwvdGV4dD48bGluZSBzdHlsZT0ic3Ryb2tlOiM1QjlCRDU7c3Ryb2tlLXdpZHRoOjAuNTsiIHgxPSIxMTUuNSIgeDI9IjIzNy41IiB5MT0iNDEyLjk2ODgiIHkyPSI0MTIuOTY4OCIvPjwvZz48IS0tY2xhc3MgPz8/Pz8/Pz8/Pz8/Pz8/LS0+PGcgY2xhc3M9ImVudGl0eSIgZGF0YS1lbnRpdHk9IiYjMTA1NTsmIzEwODY7JiMxMDgwOyYjMTA4OTsmIzEwODI7JiMxMDg2OyYjMTA3NDsmIzEwOTk7JiMxMDgxOyYjMTA1NzsmIzEwNzc7JiMxMDg4OyYjMTA3NDsmIzEwODA7JiMxMDg5OyIgZGF0YS1zb3VyY2UtbGluZT0iMzAiIGRhdGEtdWlkPSJlbnQwMDA4IiBpZD0iZW50aXR5XyYjMTA1NTsmIzEwODY7JiMxMDgwOyYjMTA4OTsmIzEwODI7JiMxMDg2OyYjMTA3NDsmIzEwOTk7JiMxMDgxOyYjMTA1NzsmIzEwNzc7JiMxMDg4OyYjMTA3NDsmIzEwODA7JiMxMDg5OyI+PHJlY3QgZmlsbD0iI0VGRjRGQyIgaGVpZ2h0PSI2Mi45ODQ0IiByeD0iMi41IiByeT0iMi41IiBzdHlsZT0ic3Ryb2tlOiM1QjlCRDU7c3Ryb2tlLXdpZHRoOjAuNTsiIHdpZHRoPSIyNTciIHg9IjMwOSIgeT0iMTkwIi8+PGVsbGlwc2UgY3g9IjM4NC41IiBjeT0iMjA2IiBmaWxsPSIjQUREMUIyIiByeD0iMTEiIHJ5PSIxMSIgc3R5bGU9InN0cm9rZTojMTgxODE4O3N0cm9rZS13aWR0aDoxOyIvPjxwYXRoIGQ9Ik0zODIuMTI1LDIxMC4yNSBMMzgyLjEyNSwyMTIgTDM4Ny4wNjI1LDIxMiBMMzg3LjA2MjUsMjEwLjI1IEwzODIuMTI1LDIxMC4yNSBaIE0zODIuODEyNSwyMTAuOTM3NSBRMzgyLjgxMjUsMjEwLjkzNzUgMzgyLjgxMjUsMjAxLjc1IEwzODEuMDYyNSwyMDEuNzUgUTM4MS4wNjI1LDIwMS43NSAzODEuMDYyNSwyMTAuOTM3NSBMMzgyLjgxMjUsMjEwLjkzNzUgWiBNMzg2LjM3NSwyMTAuOTM3NSBMMzg4LjEyNSwyMTAuOTM3NSBRMzg4LjEyNSwyMTAuOTM3NSAzODguMTI1LDIwOC4xMjUgTDM4Ni4zNzUsMjA4LjEyNSBRMzg2LjM3NSwyMDguMTI1IDM4Ni4zNzUsMjEwLjkzNzUgWiBNMzg2LjM3NSwyMDEuNzUgUTM4Ni4zNzUsMjAxLjc1IDM4Ni4zNzUsMjA0LjU2MjUgTDM4OC4xMjUsMjA0LjU2MjUgUTM4OC4xMjUsMjA0LjU2MjUgMzg4LjEyNSwyMDEuNzUgTDM4Ni4zNzUsMjAxLjc1IFogTTM4Mi4xMjUsMjAyLjQzNzUgTDM4Ny4wNjI1LDIwMi40Mzc1IEwzODcuMDYyNSwyMDAuNjg3NSBMMzgyLjEyNSwyMDAuNjg3NSBMMzgyLjEyNSwyMDIuNDM3NSBaICIgZmlsbD0iIzAwMDAwMCIvPjx0ZXh0IGZpbGw9IiMwMDAwMDAiIGZvbnQtZmFtaWx5PSJzYW5zLXNlcmlmIiBmb250LXNpemU9IjEzIiBsZW5ndGhBZGp1c3Q9InNwYWNpbmciIHRleHRMZW5ndGg9Ijk3LjUiIHg9IjQwNSIgeT0iMjExLjMzMiI+JiMxMDU1OyYjMTA4NjsmIzEwODA7JiMxMDg5OyYjMTA4MjsmIzEwODY7JiMxMDc0OyYjMTA5OTsmIzEwODE7JiMxMDU3OyYjMTA3NzsmIzEwODg7JiMxMDc0OyYjMTA4MDsmIzEwODk7PC90ZXh0PjxsaW5lIHN0eWxlPSJzdHJva2U6IzVCOUJENTtzdHJva2Utd2lkdGg6MC41OyIgeDE9IjMxMCIgeDI9IjU2NSIgeTE9IjIyMiIgeTI9IjIyMiIvPjxsaW5lIHN0eWxlPSJzdHJva2U6IzVCOUJENTtzdHJva2Utd2lkdGg6MC41OyIgeDE9IjMxMCIgeDI9IjU2NSIgeTE9IjIzMCIgeTI9IjIzMCIvPjxlbGxpcHNlIGN4PSIzMjAiIGN5PSIyNDIuOTkyMiIgZmlsbD0iIzg0QkU4NCIgcng9IjMiIHJ5PSIzIiBzdHlsZT0ic3Ryb2tlOiMwMzgwNDg7c3Ryb2tlLXdpZHRoOjE7Ii8+PHRleHQgZmlsbD0iIzAwMDAwMCIgZm9udC1mYW1pbHk9InNhbnMtc2VyaWYiIGZvbnQtc2l6ZT0iMTQiIGxlbmd0aEFkanVzdD0ic3BhY2luZyIgdGV4dExlbmd0aD0iMjMxIiB4PSIzMjkiIHk9IjI0Ny4yMzQ0Ij4mIzEwODc7JiMxMDg2OyYjMTA4MDsmIzEwODk7JiMxMDgyOygpOiBMaXN0Jmx0OyYjMTA1NDsmIzEwNzM7JiMxMDk4OyYjMTA3NzsmIzEwODI7JiMxMDkwOyYjMTA1MzsmIzEwNzc7JiMxMDc2OyYjMTA3NDsmIzEwODA7JiMxMDc4OyYjMTA4MDsmIzEwODQ7JiMxMDg2OyYjMTA4OTsmIzEwOTA7JiMxMDgwOyZndDs8L3RleHQ+PC9nPjxnIGNsYXNzPSJlbnRpdHkiIGRhdGEtZW50aXR5PSJHTU4xMCIgZGF0YS1zb3VyY2UtbGluZT0iMzUiIGRhdGEtdWlkPSJlbnQwMDExIiBpZD0iZW50aXR5X0dNTjEwIj48cGF0aCBkPSJNMzU4LjUsMzQ5IEwzNTguNSw0MTQuNjU2MyBBMCwwIDAgMCAwIDM1OC41LDQxNC42NTYzIEw1MTYsNDE0LjY1NjMgQTAsMCAwIDAgMCA1MTYsNDE0LjY1NjMgTDUxNiwzNTkgTDUwNiwzNDkgTDQ0MS41LDM0OSBMNDM3LjUsMjUzLjA2IEw0MzMuNSwzNDkgTDM1OC41LDM0OSBBMCwwIDAgMCAwIDM1OC41LDM0OSIgZmlsbD0iI0ZFRkZERCIgc3R5bGU9InN0cm9rZTojMTgxODE4O3N0cm9rZS13aWR0aDowLjU7Ii8+PHBhdGggZD0iTTUwNiwzNDkgTDUwNiwzNTkgTDUxNiwzNTkgTDUwNiwzNDkiIGZpbGw9IiNGRUZGREQiIHN0eWxlPSJzdHJva2U6IzE4MTgxODtzdHJva2Utd2lkdGg6MC41OyIvPjx0ZXh0IGZpbGw9IiMwMDAwMDAiIGZvbnQtZmFtaWx5PSJzYW5zLXNlcmlmIiBmb250LXNpemU9IjEzIiBsZW5ndGhBZGp1c3Q9InNwYWNpbmciIHRleHRMZW5ndGg9IjY1IiB4PSIzNjQuNSIgeT0iMzY2LjI4OTEiPiYjMTA1MDsmIzEwODg7JiMxMDcyOyYjMTA5MDsmIzEwODU7JiMxMDg2OyYjMTA4OTsmIzEwOTA7JiMxMTAwOzo8L3RleHQ+PHRleHQgZmlsbD0iIzAwMDAwMCIgZm9udC1mYW1pbHk9InNhbnMtc2VyaWYiIGZvbnQtc2l6ZT0iMTMiIGxlbmd0aEFkanVzdD0ic3BhY2luZyIgdGV4dExlbmd0aD0iOTEiIHg9IjM2NC41IiB5PSIzODAuMjAzMSI+MSAtICYjMTA4ODsmIzEwODY7JiMxMDc0OyYjMTA4NTsmIzEwODY7ICYjMTA4NjsmIzEwNzY7JiMxMDgwOyYjMTA4NTs8L3RleHQ+PHRleHQgZmlsbD0iIzAwMDAwMCIgZm9udC1mYW1pbHk9InNhbnMtc2VyaWYiIGZvbnQtc2l6ZT0iMTMiIGxlbmd0aEFkanVzdD0ic3BhY2luZyIgdGV4dExlbmd0aD0iMTM2LjUiIHg9IjM2NC41IiB5PSIzOTQuMTE3MiI+MC4uKiAtICYjMTA4NTsmIzEwODY7JiMxMDgzOyYjMTEwMDsgJiMxMDgwOyYjMTA4MzsmIzEwODA7ICYjMTA3MzsmIzEwODY7JiMxMDgzOyYjMTA3NzsmIzEwNzc7PC90ZXh0Pjx0ZXh0IGZpbGw9IiMwMDAwMDAiIGZvbnQtZmFtaWx5PSJzYW5zLXNlcmlmIiBmb250LXNpemU9IjEzIiBsZW5ndGhBZGp1c3Q9InNwYWNpbmciIHRleHRMZW5ndGg9IjEzNi41IiB4PSIzNjQuNSIgeT0iNDA4LjAzMTMiPjEuLiogLSAmIzEwODY7JiMxMDc2OyYjMTA4MDsmIzEwODU7ICYjMTA4MDsmIzEwODM7JiMxMDgwOyAmIzEwNzM7JiMxMDg2OyYjMTA4MzsmIzEwNzc7JiMxMDc3OzwvdGV4dD48L2c+PCEtLWxpbmsgPz8/Pz8/Pz8/Pz8/IHRvID8/Pz8/Pz8/Pz8/Pz8/Pz8/Py0tPjxnIGNsYXNzPSJsaW5rIiBkYXRhLWVudGl0eS0xPSImIzEwNTU7JiMxMDg2OyYjMTA4MzsmIzExMDA7JiMxMDc5OyYjMTA4NjsmIzEwNzQ7JiMxMDcyOyYjMTA5MDsmIzEwNzc7JiMxMDgzOyYjMTEwMDsiIGRhdGEtZW50aXR5LTI9IiYjMTA1NDsmIzEwNzM7JiMxMDk4OyYjMTA3NzsmIzEwODI7JiMxMDkwOyYjMTA1MzsmIzEwNzc7JiMxMDc2OyYjMTA3NDsmIzEwODA7JiMxMDc4OyYjMTA4MDsmIzEwODQ7JiMxMDg2OyYjMTA4OTsmIzEwOTA7JiMxMDgwOyIgZGF0YS1zb3VyY2UtbGluZT0iMjYiIGRhdGEtdWlkPSJsbms1IiBpZD0ibGlua18mIzEwNTU7JiMxMDg2OyYjMTA4MzsmIzExMDA7JiMxMDc5OyYjMTA4NjsmIzEwNzQ7JiMxMDcyOyYjMTA5MDsmIzEwNzc7JiMxMDgzOyYjMTEwMDtfJiMxMDU0OyYjMTA3MzsmIzEwOTg7JiMxMDc3OyYjMTA4MjsmIzEwOTA7JiMxMDUzOyYjMTA3NzsmIzEwNzY7JiMxMDc0OyYjMTA4MDsmIzEwNzg7JiMxMDgwOyYjMTA4NDsmIzEwODY7JiMxMDg5OyYjMTA5MDsmIzEwODA7Ij48cGF0aCBjb2RlTGluZT0iMjYiIGQ9Ik0xNjkuNzksMTAwLjMzIEMxNTkuNTYsMTA5LjY4IDE0OS4zNSwxMTkuNzkgMTQwLjUsMTMwIEMxMjguNzEsMTQzLjYxIDExNy40NiwxNTkuNzQgMTA4LjAxLDE3NC41OCIgZmlsbD0ibm9uZSIgaWQ9IiYjMTA1NTsmIzEwODY7JiMxMDgzOyYjMTEwMDsmIzEwNzk7JiMxMDg2OyYjMTA3NDsmIzEwNzI7JiMxMDkwOyYjMTA3NzsmIzEwODM7JiMxMTAwOy0mIzEwNTQ7JiMxMDczOyYjMTA5ODsmIzEwNzc7JiMxMDgyOyYjMTA5MDsmIzEwNTM7JiMxMDc3OyYjMTA3NjsmIzEwNzQ7JiMxMDgwOyYjMTA3ODsmIzEwODA7JiMxMDg0OyYjMTA4NjsmIzEwODk7JiMxMDkwOyYjMTA4MDsiIHN0eWxlPSJzdHJva2U6IzQ0NzJDNDtzdHJva2Utd2lkdGg6MTsiLz48dGV4dCBmaWxsPSIjMDAwMDAwIiBmb250LWZhbWlseT0ic2Fucy1zZXJpZiIgZm9udC1zaXplPSIxMyIgbGVuZ3RoQWRqdXN0PSJzcGFjaW5nIiB0ZXh0TGVuZ3RoPSI1OC41IiB4PSIxNDEuNSIgeT0iMTQzLjI4OTEiPiYjMTA0ODsmIzEwNzk7JiMxMDczOyYjMTA4ODsmIzEwNzI7JiMxMDg1OyYjMTA4NTsmIzEwODY7JiMxMDc3OzwvdGV4dD48dGV4dCBmaWxsPSIjMDAwMDAwIiBmb250LWZhbWlseT0ic2Fucy1zZXJpZiIgZm9udC1zaXplPSIxMyIgbGVuZ3RoQWRqdXN0PSJzcGFjaW5nIiB0ZXh0TGVuZ3RoPSI2LjUiIHg9IjE1NS40Mjg0IiB5PSIxMjAuMTg2MiI+MTwvdGV4dD48dGV4dCBmaWxsPSIjMDAwMDAwIiBmb250LWZhbWlseT0ic2Fucy1zZXJpZiIgZm9udC1zaXplPSIxMyIgbGVuZ3RoQWRqdXN0PSJzcGFjaW5nIiB0ZXh0TGVuZ3RoPSIyNiIgeD0iODQuMTYzMiIgeT0iMTY1LjQzMTgiPjAuLio8L3RleHQ+PC9nPjwhLS1saW5rID8/Pz8/Pz8/Pz8/PyB0byA/Pz8/Pz8/Pz8/Pz8tLT48ZyBjbGFzcz0ibGluayIgZGF0YS1lbnRpdHktMT0iJiMxMDU1OyYjMTA4NjsmIzEwODM7JiMxMTAwOyYjMTA3OTsmIzEwODY7JiMxMDc0OyYjMTA3MjsmIzEwOTA7JiMxMDc3OyYjMTA4MzsmIzExMDA7IiBkYXRhLWVudGl0eS0yPSImIzEwNDE7JiMxMDg4OyYjMTA4NjsmIzEwODU7JiMxMDgwOyYjMTA4ODsmIzEwODY7JiMxMDc0OyYjMTA3MjsmIzEwODU7JiMxMDgwOyYjMTA3NzsiIGRhdGEtc291cmNlLWxpbmU9IjI3IiBkYXRhLXVpZD0ibG5rNiIgaWQ9ImxpbmtfJiMxMDU1OyYjMTA4NjsmIzEwODM7JiMxMTAwOyYjMTA3OTsmIzEwODY7JiMxMDc0OyYjMTA3MjsmIzEwOTA7JiMxMDc3OyYjMTA4MzsmIzExMDA7XyYjMTA0MTsmIzEwODg7JiMxMDg2OyYjMTA4NTsmIzEwODA7JiMxMDg4OyYjMTA4NjsmIzEwNzQ7JiMxMDcyOyYjMTA4NTsmIzEwODA7JiMxMDc3OyI+PHBhdGggY29kZUxpbmU9IjI3IiBkPSJNMjE5LjUsMTAwLjI0IEMyMDkuNTgsMTY1IDE5MS42MiwyODIuMjUgMTgyLjM3LDM0Mi42OSIgZmlsbD0ibm9uZSIgaWQ9IiYjMTA1NTsmIzEwODY7JiMxMDgzOyYjMTEwMDsmIzEwNzk7JiMxMDg2OyYjMTA3NDsmIzEwNzI7JiMxMDkwOyYjMTA3NzsmIzEwODM7JiMxMTAwOy0mIzEwNDE7JiMxMDg4OyYjMTA4NjsmIzEwODU7JiMxMDgwOyYjMTA4ODsmIzEwODY7JiMxMDc0OyYjMTA3MjsmIzEwODU7JiMxMDgwOyYjMTA3NzsiIHN0eWxlPSJzdHJva2U6IzQ0NzJDNDtzdHJva2Utd2lkdGg6MTsiLz48dGV4dCBmaWxsPSIjMDAwMDAwIiBmb250LWZhbWlseT0ic2Fucy1zZXJpZiIgZm9udC1zaXplPSIxMyIgbGVuZ3RoQWRqdXN0PSJzcGFjaW5nIiB0ZXh0TGVuZ3RoPSI0NS41IiB4PSIyMDguNSIgeT0iMjI3LjI4OTEiPiYjMTA1NzsmIzEwODY7JiMxMDc5OyYjMTA3NjsmIzEwNzI7JiMxMDc3OyYjMTA5MDs8L3RleHQ+PHRleHQgZmlsbD0iIzAwMDAwMCIgZm9udC1mYW1pbHk9InNhbnMtc2VyaWYiIGZvbnQtc2l6ZT0iMTMiIGxlbmd0aEFkanVzdD0ic3BhY2luZyIgdGV4dExlbmd0aD0iNi41IiB4PSIyMTIuMTI4OSIgeT0iMTIwLjA4MzUiPjE8L3RleHQ+PHRleHQgZmlsbD0iIzAwMDAwMCIgZm9udC1mYW1pbHk9InNhbnMtc2VyaWYiIGZvbnQtc2l6ZT0iMTMiIGxlbmd0aEFkanVzdD0ic3BhY2luZyIgdGV4dExlbmd0aD0iMjYiIHg9IjE1NS4wMTA4IiB5PSIzMzMuMzM2NiI+MC4uKjwvdGV4dD48L2c+PCEtLWxpbmsgPz8/Pz8/Pz8/Pz8/Pz8/Pz8/IHRvID8/Pz8/Pz8/Pz8/Py0tPjxnIGNsYXNzPSJsaW5rIiBkYXRhLWVudGl0eS0xPSImIzEwNTQ7JiMxMDczOyYjMTA5ODsmIzEwNzc7JiMxMDgyOyYjMTA5MDsmIzEwNTM7JiMxMDc3OyYjMTA3NjsmIzEwNzQ7JiMxMDgwOyYjMTA3ODsmIzEwODA7JiMxMDg0OyYjMTA4NjsmIzEwODk7JiMxMDkwOyYjMTA4MDsiIGRhdGEtZW50aXR5LTI9IiYjMTA0MTsmIzEwODg7JiMxMDg2OyYjMTA4NTsmIzEwODA7JiMxMDg4OyYjMTA4NjsmIzEwNzQ7JiMxMDcyOyYjMTA4NTsmIzEwODA7JiMxMDc3OyIgZGF0YS1zb3VyY2UtbGluZT0iMjgiIGRhdGEtdWlkPSJsbms3IiBpZD0ibGlua18mIzEwNTQ7JiMxMDczOyYjMTA5ODsmIzEwNzc7JiMxMDgyOyYjMTA5MDsmIzEwNTM7JiMxMDc3OyYjMTA3NjsmIzEwNzQ7JiMxMDgwOyYjMTA3ODsmIzEwODA7JiMxMDg0OyYjMTA4NjsmIzEwODk7JiMxMDkwOyYjMTA4MDtfJiMxMDQxOyYjMTA4ODsmIzEwODY7JiMxMDg1OyYjMTA4MDsmIzEwODg7JiMxMDg2OyYjMTA3NDsmIzEwNzI7JiMxMDg1OyYjMTA4MDsmIzEwNzc7Ij48cGF0aCBjb2RlTGluZT0iMjgiIGQ9Ik0xMDguOTgsMjY4LjM0IEMxMjMuMTIsMjkxLjkzIDE0MC4xNSwzMjAuMzUgMTUzLjU3LDM0Mi43NSIgZmlsbD0ibm9uZSIgaWQ9IiYjMTA1NDsmIzEwNzM7JiMxMDk4OyYjMTA3NzsmIzEwODI7JiMxMDkwOyYjMTA1MzsmIzEwNzc7JiMxMDc2OyYjMTA3NDsmIzEwODA7JiMxMDc4OyYjMTA4MDsmIzEwODQ7JiMxMDg2OyYjMTA4OTsmIzEwOTA7JiMxMDgwOy0mIzEwNDE7JiMxMDg4OyYjMTA4NjsmIzEwODU7JiMxMDgwOyYjMTA4ODsmIzEwODY7JiMxMDc0OyYjMTA3MjsmIzEwODU7JiMxMDgwOyYjMTA3NzsiIHN0eWxlPSJzdHJva2U6IzQ0NzJDNDtzdHJva2Utd2lkdGg6MTsiLz48dGV4dCBmaWxsPSIjMDAwMDAwIiBmb250LWZhbWlseT0ic2Fucy1zZXJpZiIgZm9udC1zaXplPSIxMyIgbGVuZ3RoQWRqdXN0PSJzcGFjaW5nIiB0ZXh0TGVuZ3RoPSIzMi41IiB4PSIxMzYuNSIgeT0iMzExLjI4OTEiPiYjMTA0ODsmIzEwODQ7JiMxMDc3OyYjMTA3NzsmIzEwOTA7PC90ZXh0Pjx0ZXh0IGZpbGw9IiMwMDAwMDAiIGZvbnQtZmFtaWx5PSJzYW5zLXNlcmlmIiBmb250LXNpemU9IjEzIiBsZW5ndGhBZGp1c3Q9InNwYWNpbmciIHRleHRMZW5ndGg9IjYuNSIgeD0iMTA2LjQ1NzciIHk9IjI4OC4xOTc2Ij4xPC90ZXh0Pjx0ZXh0IGZpbGw9IiMwMDAwMDAiIGZvbnQtZmFtaWx5PSJzYW5zLXNlcmlmIiBmb250LXNpemU9IjEzIiBsZW5ndGhBZGp1c3Q9InNwYWNpbmciIHRleHRMZW5ndGg9IjI2IiB4PSIxMjAuNzIwOCIgeT0iMzMzLjQwODEiPjAuLio8L3RleHQ+PC9nPjwhLS1saW5rID8/Pz8/Pz8/Pz8/PyB0byA/Pz8/Pz8/Pz8/Pz8/Pz8tLT48ZyBjbGFzcz0ibGluayIgZGF0YS1lbnRpdHktMT0iJiMxMDU1OyYjMTA4NjsmIzEwODM7JiMxMTAwOyYjMTA3OTsmIzEwODY7JiMxMDc0OyYjMTA3MjsmIzEwOTA7JiMxMDc3OyYjMTA4MzsmIzExMDA7IiBkYXRhLWVudGl0eS0yPSImIzEwNTU7JiMxMDg2OyYjMTA4MDsmIzEwODk7JiMxMDgyOyYjMTA4NjsmIzEwNzQ7JiMxMDk5OyYjMTA4MTsmIzEwNTc7JiMxMDc3OyYjMTA4ODsmIzEwNzQ7JiMxMDgwOyYjMTA4OTsiIGRhdGEtc291cmNlLWxpbmU9IjMzIiBkYXRhLXVpZD0ibG5rOSIgaWQ9ImxpbmtfJiMxMDU1OyYjMTA4NjsmIzEwODM7JiMxMTAwOyYjMTA3OTsmIzEwODY7JiMxMDc0OyYjMTA3MjsmIzEwOTA7JiMxMDc3OyYjMTA4MzsmIzExMDA7XyYjMTA1NTsmIzEwODY7JiMxMDgwOyYjMTA4OTsmIzEwODI7JiMxMDg2OyYjMTA3NDsmIzEwOTk7JiMxMDgxOyYjMTA1NzsmIzEwNzc7JiMxMDg4OyYjMTA3NDsmIzEwODA7JiMxMDg5OyI+PHBhdGggY29kZUxpbmU9IjMzIiBkPSJNMjg0LjQ0LDEwMC4wOCBDMzIwLjc5LDEyOC42OCAzNjEuOTY0MiwxNjEuMDcwNCAzOTMuOTc0MiwxODYuMjUwNCIgZmlsbD0ibm9uZSIgaWQ9IiYjMTA1NTsmIzEwODY7JiMxMDgzOyYjMTEwMDsmIzEwNzk7JiMxMDg2OyYjMTA3NDsmIzEwNzI7JiMxMDkwOyYjMTA3NzsmIzEwODM7JiMxMTAwOy10by0mIzEwNTU7JiMxMDg2OyYjMTA4MDsmIzEwODk7JiMxMDgyOyYjMTA4NjsmIzEwNzQ7JiMxMDk5OyYjMTA4MTsmIzEwNTc7JiMxMDc3OyYjMTA4ODsmIzEwNzQ7JiMxMDgwOyYjMTA4OTsiIHN0eWxlPSJzdHJva2U6IzQ0NzJDNDtzdHJva2Utd2lkdGg6MTsiLz48cG9seWdvbiBmaWxsPSIjNDQ3MkM0IiBwb2ludHM9IjM5OC42OSwxODkuOTYsMzk0LjA4OTMsMTgxLjI1MTcsMzk0Ljc2MDIsMTg2Ljg2ODcsMzg5LjE0MzIsMTg3LjUzOTUsMzk4LjY5LDE4OS45NiIgc3R5bGU9InN0cm9rZTojNDQ3MkM0O3N0cm9rZS13aWR0aDoxOyIvPjwvZz48IS0tU1JDPVtaTEJCSWlEMDVEdGRBb3ZydU9pS2duS25ZNjJoTlJicHdvUlE4QzRzOHNiNEs4SXNXV2loWWhpWWdGVzdSTWFxRmJmX3VTdVZVTU9Rakp3QU1PSjlGTlZFRVZTbmJMdE5zeER6a3FwUjlSakllSUUzQTZUbHgteHVPanlodmFMOS0zSXNMWVhhMnRjTDROeEh5TURxRmhVT012cTdra0J4dVkwNml6YzVzTm1NTzQ1dW1PUHh3NTFjcFpXc1o4NHd0dDZWTi1HdkYtQmlTNGxNRUxJbmpmcnNZblBqMUJ4aHhRWjhpeWxFU0NwRnVGSjBRRjZwaENsNlAtdkJfUFJSeVdvQW9GQ0RwWXV5OGR4MHp5ZnpNR0NRX1VLYUp0NnRub3NCTGlOLUxpZEhSWXRrb1lnN2lsUTdwbktvZzhLWlZROEZ6U19YRzFra2dZLWJQV1RRSXBpM2FvVlZyU1E5eHhhWkJwNkRZNklESzdUTFN0azNRa012bDMxNlpZb0xJUDVmS2NlY2RQdkE5VWhUOGN2MmZnclN1MDROM1hGaFotWlBLWnRxR0tSTmM1UlRJQkk0bkRmRGE0QWpFX28yOGJkSmh3NFo2X200X24yeVphQlozUm56dDljT2o2WlRoR0hCSVFmUW5hdjZKaUNxYl9fbkRXbkYxMHZqWUkwR1BQSC1fTkVQcmdRTjhQRlk3VzRKVmhnZWVCVmZnSzRXZnRVWXg4Mi1PNHhTTGg2UTBCWm5iUFpwLXlleF0tLT48L2c+PC9zdmc+;" parent="1" vertex="1">
            <mxGeometry x="940" y="880" width="573" height="427" as="geometry" />
          </mxCell>
        </UserObject>
        <UserObject label="" plantUmlData="{&#xa;  &quot;data&quot;: &quot;@startuml\nleft to right direction\nskinparam usecase {\n  BackgroundColor #FFF8E1\n  BorderColor #FFA000\n  ActorFontSize 14\n}\n\nactor \&quot;Гость\&quot; as Guest #lightgray\nactor \&quot;Пользователь\&quot; as User #FFC66D\nactor \&quot;Риелтор\&quot; as Realtor #FFAA66\nactor \&quot;Админ\&quot; as Admin #FF6666\n\nrectangle \&quot;Система поиска недвижимости\&quot; {\n  (Поиск объектов) as UC1\n  (Просмотр деталей) as UC2\n  (Регистрация) as UC3\n  (Авторизация) as UC4\n  (Сохранение в избранное) as UC5\n  (Подача заявки) as UC6\n  (Управление объявлениями) as UC7\n  (Модерация контента) as UC8\n  \n  UC1 .&gt; (Фильтрация): include\n  UC6 .&gt; (Проверка данных): extend\n}\n\nGuest --&gt; UC1\nGuest --&gt; UC2\nGuest --&gt; UC3\nGuest --&gt; UC4\n\nUser --&gt; UC5\nUser --&gt; UC6\nRealtor --&gt; UC7\nAdmin --&gt; UC8\n\nnote right of UC1: Применен паттерн **Стратегия**\\nдля динамического выбора\\nалгоритмов поиска\nnote left of UC7: Использует **Фасад** для упрощения\\nкомплексных операций\\nс объявлениями\n@enduml&quot;,&#xa;  &quot;format&quot;: &quot;svg&quot;&#xa;}" id="C9_sTyGphZHRCnXT_EhT-2">
          <mxCell style="shape=image;noLabel=1;verticalAlign=top;aspect=fixed;imageAspect=0;image=data:image/svg+xml,PHN2ZyB4bWxucz0iaHR0cDovL3d3dy53My5vcmcvMjAwMC9zdmciIHhtbG5zOnhsaW5rPSJodHRwOi8vd3d3LnczLm9yZy8xOTk5L3hsaW5rIiBjb250ZW50U3R5bGVUeXBlPSJ0ZXh0L2NzcyIgZGF0YS1kaWFncmFtLXR5cGU9IkRFU0NSSVBUSU9OIiBoZWlnaHQ9Ijc4OHB4IiBwcmVzZXJ2ZUFzcGVjdFJhdGlvPSJub25lIiBzdHlsZT0id2lkdGg6NzQwcHg7aGVpZ2h0Ojc4OHB4O2JhY2tncm91bmQ6I0ZGRkZGRjsiIHZlcnNpb249IjEuMSIgdmlld0JveD0iMCAwIDc0MCA3ODgiIHdpZHRoPSI3NDBweCIgem9vbUFuZFBhbj0ibWFnbmlmeSI+PGRlZnMvPjxnPjwhLS1jbHVzdGVyID8/Pz8/Pz8gPz8/Pz8/ID8/Pz8/Pz8/Pz8/Py0tPjxnIGNsYXNzPSJjbHVzdGVyIiBkYXRhLWVudGl0eT0iJiMxMDU3OyYjMTA4MDsmIzEwODk7JiMxMDkwOyYjMTA3NzsmIzEwODQ7JiMxMDcyOyAmIzEwODc7JiMxMDg2OyYjMTA4MDsmIzEwODk7JiMxMDgyOyYjMTA3MjsgJiMxMDg1OyYjMTA3NzsmIzEwNzY7JiMxMDc0OyYjMTA4MDsmIzEwNzg7JiMxMDgwOyYjMTA4NDsmIzEwODY7JiMxMDg5OyYjMTA5MDsmIzEwODA7IiBkYXRhLXNvdXJjZS1saW5lPSIxMyIgZGF0YS11aWQ9ImVudDAwMDYiIGlkPSJjbHVzdGVyXyYjMTA1NzsmIzEwODA7JiMxMDg5OyYjMTA5MDsmIzEwNzc7JiMxMDg0OyYjMTA3MjsgJiMxMDg3OyYjMTA4NjsmIzEwODA7JiMxMDg5OyYjMTA4MjsmIzEwNzI7ICYjMTA4NTsmIzEwNzc7JiMxMDc2OyYjMTA3NDsmIzEwODA7JiMxMDc4OyYjMTA4MDsmIzEwODQ7JiMxMDg2OyYjMTA4OTsmIzEwOTA7JiMxMDgwOyI+PHJlY3QgZmlsbD0ibm9uZSIgaGVpZ2h0PSI3MzgiIHJ4PSIyLjUiIHJ5PSIyLjUiIHN0eWxlPSJzdHJva2U6IzE4MTgxODtzdHJva2Utd2lkdGg6MTsiIHdpZHRoPSIyMjciIHg9IjI2OSIgeT0iNyIvPjx0ZXh0IGZpbGw9IiMwMDAwMDAiIGZvbnQtZmFtaWx5PSJzYW5zLXNlcmlmIiBmb250LXNpemU9IjE0IiBmb250LXdlaWdodD0iYm9sZCIgbGVuZ3RoQWRqdXN0PSJzcGFjaW5nIiB0ZXh0TGVuZ3RoPSIxODkiIHg9IjI4OCIgeT0iMjIuMjM0NCI+JiMxMDU3OyYjMTA4MDsmIzEwODk7JiMxMDkwOyYjMTA3NzsmIzEwODQ7JiMxMDcyOyAmIzEwODc7JiMxMDg2OyYjMTA4MDsmIzEwODk7JiMxMDgyOyYjMTA3MjsgJiMxMDg1OyYjMTA3NzsmIzEwNzY7JiMxMDc0OyYjMTA4MDsmIzEwNzg7JiMxMDgwOyYjMTA4NDsmIzEwODY7JiMxMDg5OyYjMTA5MDsmIzEwODA7PC90ZXh0PjwvZz48ZyBjbGFzcz0iZW50aXR5IiBkYXRhLWVudGl0eT0iVUMxIiBkYXRhLXNvdXJjZS1saW5lPSIxNCIgZGF0YS11aWQ9ImVudDAwMDciIGlkPSJlbnRpdHlfVUMxIj48ZWxsaXBzZSBjeD0iMzgyLjU0NTYiIGN5PSIxOTguODA5MSIgZmlsbD0iI0ZGRjhFMSIgcng9IjY5LjU0NTYiIHJ5PSIxNi4zMDkxIiBzdHlsZT0ic3Ryb2tlOiNGRkEwMDA7c3Ryb2tlLXdpZHRoOjAuNTsiLz48dGV4dCBmaWxsPSIjMDAwMDAwIiBmb250LWZhbWlseT0ic2Fucy1zZXJpZiIgZm9udC1zaXplPSIxNCIgbGVuZ3RoQWRqdXN0PSJzcGFjaW5nIiB0ZXh0TGVuZ3RoPSI5OCIgeD0iMzMzLjU0NTYiIHk9IjIwMi41NTEzIj4mIzEwNTU7JiMxMDg2OyYjMTA4MDsmIzEwODk7JiMxMDgyOyAmIzEwODY7JiMxMDczOyYjMTA5ODsmIzEwNzc7JiMxMDgyOyYjMTA5MDsmIzEwODY7JiMxMDc0OzwvdGV4dD48L2c+PGcgY2xhc3M9ImVudGl0eSIgZGF0YS1lbnRpdHk9IlVDMiIgZGF0YS1zb3VyY2UtbGluZT0iMTUiIGRhdGEtdWlkPSJlbnQwMDA4IiBpZD0iZW50aXR5X1VDMiI+PGVsbGlwc2UgY3g9IjM4Mi40Mzg0IiBjeT0iMjY3Ljk4NzciIGZpbGw9IiNGRkY4RTEiIHJ4PSI3NS40Mzg0IiByeT0iMTcuNDg3NyIgc3R5bGU9InN0cm9rZTojRkZBMDAwO3N0cm9rZS13aWR0aDowLjU7Ii8+PHRleHQgZmlsbD0iIzAwMDAwMCIgZm9udC1mYW1pbHk9InNhbnMtc2VyaWYiIGZvbnQtc2l6ZT0iMTQiIGxlbmd0aEFkanVzdD0ic3BhY2luZyIgdGV4dExlbmd0aD0iMTEyIiB4PSIzMjYuNDM4NCIgeT0iMjcxLjcyOTkiPiYjMTA1NTsmIzEwODg7JiMxMDg2OyYjMTA4OTsmIzEwODQ7JiMxMDg2OyYjMTA5MDsmIzEwODg7ICYjMTA3NjsmIzEwNzc7JiMxMDkwOyYjMTA3MjsmIzEwODM7JiMxMDc3OyYjMTA4MTs8L3RleHQ+PC9nPjxnIGNsYXNzPSJlbnRpdHkiIGRhdGEtZW50aXR5PSJVQzMiIGRhdGEtc291cmNlLWxpbmU9IjE2IiBkYXRhLXVpZD0iZW50MDAwOSIgaWQ9ImVudGl0eV9VQzMiPjxlbGxpcHNlIGN4PSIzODIuNjY4NSIgY3k9IjMzNS4xMzM3IiBmaWxsPSIjRkZGOEUxIiByeD0iNjEuMTY4NSIgcnk9IjE0LjYzMzciIHN0eWxlPSJzdHJva2U6I0ZGQTAwMDtzdHJva2Utd2lkdGg6MC41OyIvPjx0ZXh0IGZpbGw9IiMwMDAwMDAiIGZvbnQtZmFtaWx5PSJzYW5zLXNlcmlmIiBmb250LXNpemU9IjE0IiBsZW5ndGhBZGp1c3Q9InNwYWNpbmciIHRleHRMZW5ndGg9Ijc3IiB4PSIzNDQuMTY4NSIgeT0iMzM4Ljg3NTkiPiYjMTA1NjsmIzEwNzc7JiMxMDc1OyYjMTA4MDsmIzEwODk7JiMxMDkwOyYjMTA4ODsmIzEwNzI7JiMxMDk0OyYjMTA4MDsmIzExMDM7PC90ZXh0PjwvZz48ZyBjbGFzcz0iZW50aXR5IiBkYXRhLWVudGl0eT0iVUM0IiBkYXRhLXNvdXJjZS1saW5lPSIxNyIgZGF0YS11aWQ9ImVudDAwMTAiIGlkPSJlbnRpdHlfVUM0Ij48ZWxsaXBzZSBjeD0iMzgyLjY2ODUiIGN5PSI1NS4xMzM3IiBmaWxsPSIjRkZGOEUxIiByeD0iNjEuMTY4NSIgcnk9IjE0LjYzMzciIHN0eWxlPSJzdHJva2U6I0ZGQTAwMDtzdHJva2Utd2lkdGg6MC41OyIvPjx0ZXh0IGZpbGw9IiMwMDAwMDAiIGZvbnQtZmFtaWx5PSJzYW5zLXNlcmlmIiBmb250LXNpemU9IjE0IiBsZW5ndGhBZGp1c3Q9InNwYWNpbmciIHRleHRMZW5ndGg9Ijc3IiB4PSIzNDQuMTY4NSIgeT0iNTguODc1OSI+JiMxMDQwOyYjMTA3NDsmIzEwOTA7JiMxMDg2OyYjMTA4ODsmIzEwODA7JiMxMDc5OyYjMTA3MjsmIzEwOTQ7JiMxMDgwOyYjMTEwMzs8L3RleHQ+PC9nPjxnIGNsYXNzPSJlbnRpdHkiIGRhdGEtZW50aXR5PSJVQzUiIGRhdGEtc291cmNlLWxpbmU9IjE4IiBkYXRhLXVpZD0iZW50MDAxMSIgaWQ9ImVudGl0eV9VQzUiPjxlbGxpcHNlIGN4PSIzODIuNTYyMiIgY3k9IjQwNi4yMTI0IiBmaWxsPSIjRkZGOEUxIiByeD0iOTQuMDYyMiIgcnk9IjIxLjIxMjQiIHN0eWxlPSJzdHJva2U6I0ZGQTAwMDtzdHJva2Utd2lkdGg6MC41OyIvPjx0ZXh0IGZpbGw9IiMwMDAwMDAiIGZvbnQtZmFtaWx5PSJzYW5zLXNlcmlmIiBmb250LXNpemU9IjE0IiBsZW5ndGhBZGp1c3Q9InNwYWNpbmciIHRleHRMZW5ndGg9IjE1NCIgeD0iMzA1LjU2MjIiIHk9IjQwOS45NTQ2Ij4mIzEwNTc7JiMxMDg2OyYjMTA5MzsmIzEwODg7JiMxMDcyOyYjMTA4NTsmIzEwNzc7JiMxMDg1OyYjMTA4MDsmIzEwNzc7ICYjMTA3NDsgJiMxMDgwOyYjMTA3OTsmIzEwNzM7JiMxMDg4OyYjMTA3MjsmIzEwODU7JiMxMDg1OyYjMTA4NjsmIzEwNzc7PC90ZXh0PjwvZz48ZyBjbGFzcz0iZW50aXR5IiBkYXRhLWVudGl0eT0iVUM2IiBkYXRhLXNvdXJjZS1saW5lPSIxOSIgZGF0YS11aWQ9ImVudDAwMTIiIGlkPSJlbnRpdHlfVUM2Ij48ZWxsaXBzZSBjeD0iMzgyLjY4MzQiIGN5PSI1NjEuMjM2NyIgZmlsbD0iI0ZGRjhFMSIgcng9IjY2LjY4MzQiIHJ5PSIxNS43MzY3IiBzdHlsZT0ic3Ryb2tlOiNGRkEwMDA7c3Ryb2tlLXdpZHRoOjAuNTsiLz48dGV4dCBmaWxsPSIjMDAwMDAwIiBmb250LWZhbWlseT0ic2Fucy1zZXJpZiIgZm9udC1zaXplPSIxNCIgbGVuZ3RoQWRqdXN0PSJzcGFjaW5nIiB0ZXh0TGVuZ3RoPSI5MSIgeD0iMzM3LjE4MzQiIHk9IjU2NC45Nzg5Ij4mIzEwNTU7JiMxMDg2OyYjMTA3NjsmIzEwNzI7JiMxMDk1OyYjMTA3MjsgJiMxMDc5OyYjMTA3MjsmIzExMDM7JiMxMDc0OyYjMTA4MjsmIzEwODA7PC90ZXh0PjwvZz48ZyBjbGFzcz0iZW50aXR5IiBkYXRhLWVudGl0eT0iVUM3IiBkYXRhLXNvdXJjZS1saW5lPSIyMCIgZGF0YS11aWQ9ImVudDAwMTMiIGlkPSJlbnRpdHlfVUM3Ij48ZWxsaXBzZSBjeD0iMzgyLjI2MzMiIGN5PSI2MzMuODUyNyIgZmlsbD0iI0ZGRjhFMSIgcng9Ijk3LjI2MzMiIHJ5PSIyMS44NTI3IiBzdHlsZT0ic3Ryb2tlOiNGRkEwMDA7c3Ryb2tlLXdpZHRoOjAuNTsiLz48dGV4dCBmaWxsPSIjMDAwMDAwIiBmb250LWZhbWlseT0ic2Fucy1zZXJpZiIgZm9udC1zaXplPSIxNCIgbGVuZ3RoQWRqdXN0PSJzcGFjaW5nIiB0ZXh0TGVuZ3RoPSIxNjEiIHg9IjMwMS43NjMzIiB5PSI2MzcuNTk0OCI+JiMxMDU5OyYjMTA4NzsmIzEwODg7JiMxMDcyOyYjMTA3NDsmIzEwODM7JiMxMDc3OyYjMTA4NTsmIzEwODA7JiMxMDc3OyAmIzEwODY7JiMxMDczOyYjMTA5ODsmIzExMDM7JiMxMDc0OyYjMTA4MzsmIzEwNzc7JiMxMDg1OyYjMTA4MDsmIzExMDM7JiMxMDg0OyYjMTA4MDs8L3RleHQ+PC9nPjxnIGNsYXNzPSJlbnRpdHkiIGRhdGEtZW50aXR5PSJVQzgiIGRhdGEtc291cmNlLWxpbmU9IjIxIiBkYXRhLXVpZD0iZW50MDAxNCIgaWQ9ImVudGl0eV9VQzgiPjxlbGxpcHNlIGN4PSIzODIuNTEzMiIgY3k9IjcxMC4yMDI2IiBmaWxsPSIjRkZGOEUxIiByeD0iODEuNTEzMiIgcnk9IjE4LjcwMjYiIHN0eWxlPSJzdHJva2U6I0ZGQTAwMDtzdHJva2Utd2lkdGg6MC41OyIvPjx0ZXh0IGZpbGw9IiMwMDAwMDAiIGZvbnQtZmFtaWx5PSJzYW5zLXNlcmlmIiBmb250LXNpemU9IjE0IiBsZW5ndGhBZGp1c3Q9InNwYWNpbmciIHRleHRMZW5ndGg9IjEyNiIgeD0iMzE5LjUxMzIiIHk9IjcxMy45NDQ4Ij4mIzEwNTI7JiMxMDg2OyYjMTA3NjsmIzEwNzc7JiMxMDg4OyYjMTA3MjsmIzEwOTQ7JiMxMDgwOyYjMTEwMzsgJiMxMDgyOyYjMTA4NjsmIzEwODU7JiMxMDkwOyYjMTA3NzsmIzEwODU7JiMxMDkwOyYjMTA3Mjs8L3RleHQ+PC9nPjxnIGNsYXNzPSJlbnRpdHkiIGRhdGEtZW50aXR5PSImIzEwNjA7JiMxMDgwOyYjMTA4MzsmIzExMDA7JiMxMDkwOyYjMTA4ODsmIzEwNzI7JiMxMDk0OyYjMTA4MDsmIzExMDM7IiBkYXRhLXNvdXJjZS1saW5lPSIyMyIgZGF0YS11aWQ9ImVudDAwMTUiIGlkPSJlbnRpdHlfJiMxMDYwOyYjMTA4MDsmIzEwODM7JiMxMTAwOyYjMTA5MDsmIzEwODg7JiMxMDcyOyYjMTA5NDsmIzEwODA7JiMxMTAzOyI+PGVsbGlwc2UgY3g9IjM4Mi41MzY3IiBjeT0iMTE5LjEwNzMiIGZpbGw9IiNGRkY4RTEiIHJ4PSI1OC41MzY3IiByeT0iMTQuMTA3MyIgc3R5bGU9InN0cm9rZTojRkZBMDAwO3N0cm9rZS13aWR0aDowLjU7Ii8+PHRleHQgZmlsbD0iIzAwMDAwMCIgZm9udC1mYW1pbHk9InNhbnMtc2VyaWYiIGZvbnQtc2l6ZT0iMTQiIGxlbmd0aEFkanVzdD0ic3BhY2luZyIgdGV4dExlbmd0aD0iNzAiIHg9IjM0Ny41MzY3IiB5PSIxMjIuODQ5NSI+JiMxMDYwOyYjMTA4MDsmIzEwODM7JiMxMTAwOyYjMTA5MDsmIzEwODg7JiMxMDcyOyYjMTA5NDsmIzEwODA7JiMxMTAzOzwvdGV4dD48L2c+PGcgY2xhc3M9ImVudGl0eSIgZGF0YS1lbnRpdHk9IiYjMTA1NTsmIzEwODg7JiMxMDg2OyYjMTA3NDsmIzEwNzc7JiMxMDg4OyYjMTA4MjsmIzEwNzI7ICYjMTA3NjsmIzEwNzI7JiMxMDg1OyYjMTA4NTsmIzEwOTk7JiMxMDkzOyIgZGF0YS1zb3VyY2UtbGluZT0iMjQiIGRhdGEtdWlkPSJlbnQwMDE3IiBpZD0iZW50aXR5XyYjMTA1NTsmIzEwODg7JiMxMDg2OyYjMTA3NDsmIzEwNzc7JiMxMDg4OyYjMTA4MjsmIzEwNzI7ICYjMTA3NjsmIzEwNzI7JiMxMDg1OyYjMTA4NTsmIzEwOTk7JiMxMDkzOyI+PGVsbGlwc2UgY3g9IjM4Mi40NjYzIiBjeT0iNDc4Ljg5MzMiIGZpbGw9IiNGRkY4RTEiIHJ4PSI3Mi40NjYzIiByeT0iMTYuODkzMyIgc3R5bGU9InN0cm9rZTojRkZBMDAwO3N0cm9rZS13aWR0aDowLjU7Ii8+PHRleHQgZmlsbD0iIzAwMDAwMCIgZm9udC1mYW1pbHk9InNhbnMtc2VyaWYiIGZvbnQtc2l6ZT0iMTQiIGxlbmd0aEFkanVzdD0ic3BhY2luZyIgdGV4dExlbmd0aD0iMTA1IiB4PSIzMjkuOTY2MyIgeT0iNDgyLjYzNTUiPiYjMTA1NTsmIzEwODg7JiMxMDg2OyYjMTA3NDsmIzEwNzc7JiMxMDg4OyYjMTA4MjsmIzEwNzI7ICYjMTA3NjsmIzEwNzI7JiMxMDg1OyYjMTA4NTsmIzEwOTk7JiMxMDkzOzwvdGV4dD48L2c+PCEtLWVudGl0eSBHdWVzdC0tPjxnIGNsYXNzPSJlbnRpdHkiIGRhdGEtZW50aXR5PSJHdWVzdCIgZGF0YS1zb3VyY2UtbGluZT0iOCIgZGF0YS11aWQ9ImVudDAwMDIiIGlkPSJlbnRpdHlfR3Vlc3QiPjxlbGxpcHNlIGN4PSIxMTQiIGN5PSIyMDQiIGZpbGw9IiNEM0QzRDMiIHJ4PSI4IiByeT0iOCIgc3R5bGU9InN0cm9rZTojMTgxODE4O3N0cm9rZS13aWR0aDowLjU7Ii8+PHBhdGggZD0iTTExNCwyMTIgTDExNCwyMzkgTTEwMSwyMjAgTDEyNywyMjAgTTExNCwyMzkgTDEwMSwyNTQgTTExNCwyMzkgTDEyNywyNTQiIGZpbGw9Im5vbmUiIHN0eWxlPSJzdHJva2U6IzE4MTgxODtzdHJva2Utd2lkdGg6MC41OyIvPjx0ZXh0IGZpbGw9IiMwMDAwMDAiIGZvbnQtZmFtaWx5PSJzYW5zLXNlcmlmIiBmb250LXNpemU9IjE0IiBsZW5ndGhBZGp1c3Q9InNwYWNpbmciIHRleHRMZW5ndGg9IjM1IiB4PSI5Ni41IiB5PSIyNjguNzM0NCI+JiMxMDQzOyYjMTA4NjsmIzEwODk7JiMxMDkwOyYjMTEwMDs8L3RleHQ+PC9nPjwhLS1lbnRpdHkgVXNlci0tPjxnIGNsYXNzPSJlbnRpdHkiIGRhdGEtZW50aXR5PSJVc2VyIiBkYXRhLXNvdXJjZS1saW5lPSI5IiBkYXRhLXVpZD0iZW50MDAwMyIgaWQ9ImVudGl0eV9Vc2VyIj48ZWxsaXBzZSBjeD0iMTE0IiBjeT0iMzk5IiBmaWxsPSIjRkZDNjZEIiByeD0iOCIgcnk9IjgiIHN0eWxlPSJzdHJva2U6IzE4MTgxODtzdHJva2Utd2lkdGg6MC41OyIvPjxwYXRoIGQ9Ik0xMTQsNDA3IEwxMTQsNDM0IE0xMDEsNDE1IEwxMjcsNDE1IE0xMTQsNDM0IEwxMDEsNDQ5IE0xMTQsNDM0IEwxMjcsNDQ5IiBmaWxsPSJub25lIiBzdHlsZT0ic3Ryb2tlOiMxODE4MTg7c3Ryb2tlLXdpZHRoOjAuNTsiLz48dGV4dCBmaWxsPSIjMDAwMDAwIiBmb250LWZhbWlseT0ic2Fucy1zZXJpZiIgZm9udC1zaXplPSIxNCIgbGVuZ3RoQWRqdXN0PSJzcGFjaW5nIiB0ZXh0TGVuZ3RoPSI4NCIgeD0iNzIiIHk9IjQ2My43MzQ0Ij4mIzEwNTU7JiMxMDg2OyYjMTA4MzsmIzExMDA7JiMxMDc5OyYjMTA4NjsmIzEwNzQ7JiMxMDcyOyYjMTA5MDsmIzEwNzc7JiMxMDgzOyYjMTEwMDs8L3RleHQ+PC9nPjwhLS1lbnRpdHkgUmVhbHRvci0tPjxnIGNsYXNzPSJlbnRpdHkiIGRhdGEtZW50aXR5PSJSZWFsdG9yIiBkYXRhLXNvdXJjZS1saW5lPSIxMCIgZGF0YS11aWQ9ImVudDAwMDQiIGlkPSJlbnRpdHlfUmVhbHRvciI+PGVsbGlwc2UgY3g9IjExNCIgY3k9IjYwNSIgZmlsbD0iI0ZGQUE2NiIgcng9IjgiIHJ5PSI4IiBzdHlsZT0ic3Ryb2tlOiMxODE4MTg7c3Ryb2tlLXdpZHRoOjAuNTsiLz48cGF0aCBkPSJNMTE0LDYxMyBMMTE0LDY0MCBNMTAxLDYyMSBMMTI3LDYyMSBNMTE0LDY0MCBMMTAxLDY1NSBNMTE0LDY0MCBMMTI3LDY1NSIgZmlsbD0ibm9uZSIgc3R5bGU9InN0cm9rZTojMTgxODE4O3N0cm9rZS13aWR0aDowLjU7Ii8+PHRleHQgZmlsbD0iIzAwMDAwMCIgZm9udC1mYW1pbHk9InNhbnMtc2VyaWYiIGZvbnQtc2l6ZT0iMTQiIGxlbmd0aEFkanVzdD0ic3BhY2luZyIgdGV4dExlbmd0aD0iNDkiIHg9Ijg5LjUiIHk9IjY2OS43MzQ0Ij4mIzEwNTY7JiMxMDgwOyYjMTA3NzsmIzEwODM7JiMxMDkwOyYjMTA4NjsmIzEwODg7PC90ZXh0PjwvZz48IS0tZW50aXR5IEFkbWluLS0+PGcgY2xhc3M9ImVudGl0eSIgZGF0YS1lbnRpdHk9IkFkbWluIiBkYXRhLXNvdXJjZS1saW5lPSIxMSIgZGF0YS11aWQ9ImVudDAwMDUiIGlkPSJlbnRpdHlfQWRtaW4iPjxlbGxpcHNlIGN4PSIxMTQiIGN5PSI3MTUiIGZpbGw9IiNGRjY2NjYiIHJ4PSI4IiByeT0iOCIgc3R5bGU9InN0cm9rZTojMTgxODE4O3N0cm9rZS13aWR0aDowLjU7Ii8+PHBhdGggZD0iTTExNCw3MjMgTDExNCw3NTAgTTEwMSw3MzEgTDEyNyw3MzEgTTExNCw3NTAgTDEwMSw3NjUgTTExNCw3NTAgTDEyNyw3NjUiIGZpbGw9Im5vbmUiIHN0eWxlPSJzdHJva2U6IzE4MTgxODtzdHJva2Utd2lkdGg6MC41OyIvPjx0ZXh0IGZpbGw9IiMwMDAwMDAiIGZvbnQtZmFtaWx5PSJzYW5zLXNlcmlmIiBmb250LXNpemU9IjE0IiBsZW5ndGhBZGp1c3Q9InNwYWNpbmciIHRleHRMZW5ndGg9IjM1IiB4PSI5Ni41IiB5PSI3NzkuNzM0NCI+JiMxMDQwOyYjMTA3NjsmIzEwODQ7JiMxMDgwOyYjMTA4NTs8L3RleHQ+PC9nPjxnIGNsYXNzPSJlbnRpdHkiIGRhdGEtZW50aXR5PSJHTU4yNyIgZGF0YS1zb3VyY2UtbGluZT0iMzciIGRhdGEtdWlkPSJlbnQwMDI4IiBpZD0iZW50aXR5X0dNTjI3Ij48cGF0aCBkPSJNNTQzLDE3MyBMNTQzLDE5NSBMNDUyLjEsMTk5IEw1NDMsMjAzIEw1NDMsMjI0Ljc0MjIgQTAsMCAwIDAgMCA1NDMsMjI0Ljc0MjIgTDczMywyMjQuNzQyMiBBMCwwIDAgMCAwIDczMywyMjQuNzQyMiBMNzMzLDE4MyBMNzIzLDE3MyBMNTQzLDE3MyBBMCwwIDAgMCAwIDU0MywxNzMiIGZpbGw9IiNGRUZGREQiIHN0eWxlPSJzdHJva2U6IzE4MTgxODtzdHJva2Utd2lkdGg6MC41OyIvPjxwYXRoIGQ9Ik03MjMsMTczIEw3MjMsMTgzIEw3MzMsMTgzIEw3MjMsMTczIiBmaWxsPSIjRkVGRkREIiBzdHlsZT0ic3Ryb2tlOiMxODE4MTg7c3Ryb2tlLXdpZHRoOjAuNTsiLz48dGV4dCBmaWxsPSIjMDAwMDAwIiBmb250LWZhbWlseT0ic2Fucy1zZXJpZiIgZm9udC1zaXplPSIxMyIgbGVuZ3RoQWRqdXN0PSJzcGFjaW5nIiB0ZXh0TGVuZ3RoPSIxMDQiIHg9IjU0OSIgeT0iMTkwLjI4OTEiPiYjMTA1NTsmIzEwODg7JiMxMDgwOyYjMTA4NDsmIzEwNzc7JiMxMDg1OyYjMTA3NzsmIzEwODU7ICYjMTA4NzsmIzEwNzI7JiMxMDkwOyYjMTA5MDsmIzEwNzc7JiMxMDg4OyYjMTA4NTs8L3RleHQ+PHRleHQgZmlsbD0iIzAwMDAwMCIgZm9udC1mYW1pbHk9InNhbnMtc2VyaWYiIGZvbnQtc2l6ZT0iMTMiIGZvbnQtd2VpZ2h0PSJib2xkIiBsZW5ndGhBZGp1c3Q9InNwYWNpbmciIHRleHRMZW5ndGg9IjU4LjUiIHg9IjY1OS41IiB5PSIxOTAuMjg5MSI+JiMxMDU3OyYjMTA5MDsmIzEwODg7JiMxMDcyOyYjMTA5MDsmIzEwNzc7JiMxMDc1OyYjMTA4MDsmIzExMDM7PC90ZXh0Pjx0ZXh0IGZpbGw9IiMwMDAwMDAiIGZvbnQtZmFtaWx5PSJzYW5zLXNlcmlmIiBmb250LXNpemU9IjEzIiBsZW5ndGhBZGp1c3Q9InNwYWNpbmciIHRleHRMZW5ndGg9IjE1NiIgeD0iNTQ5IiB5PSIyMDQuMjAzMSI+JiMxMDc2OyYjMTA4MzsmIzExMDM7ICYjMTA3NjsmIzEwODA7JiMxMDg1OyYjMTA3MjsmIzEwODQ7JiMxMDgwOyYjMTA5NTsmIzEwNzc7JiMxMDg5OyYjMTA4MjsmIzEwODY7JiMxMDc1OyYjMTA4NjsgJiMxMDc0OyYjMTA5OTsmIzEwNzM7JiMxMDg2OyYjMTA4ODsmIzEwNzI7PC90ZXh0Pjx0ZXh0IGZpbGw9IiMwMDAwMDAiIGZvbnQtZmFtaWx5PSJzYW5zLXNlcmlmIiBmb250LXNpemU9IjEzIiBsZW5ndGhBZGp1c3Q9InNwYWNpbmciIHRleHRMZW5ndGg9IjExMC41IiB4PSI1NDkiIHk9IjIxOC4xMTcyIj4mIzEwNzI7JiMxMDgzOyYjMTA3NTsmIzEwODY7JiMxMDg4OyYjMTA4MDsmIzEwOTA7JiMxMDg0OyYjMTA4NjsmIzEwNzQ7ICYjMTA4NzsmIzEwODY7JiMxMDgwOyYjMTA4OTsmIzEwODI7JiMxMDcyOzwvdGV4dD48L2c+PGcgY2xhc3M9ImVudGl0eSIgZGF0YS1lbnRpdHk9IkdNTjMwIiBkYXRhLXNvdXJjZS1saW5lPSIzOCIgZGF0YS11aWQ9ImVudDAwMzEiIGlkPSJlbnRpdHlfR01OMzAiPjxwYXRoIGQ9Ik02LDUwOSBMNiw1NjAuNzQyMiBMMjIyLDU2MC43NDIyIEwyMjIsNTE5IEwyMTIsNTA5IEw2LDUwOSIgZmlsbD0iI0ZFRkZERCIgc3R5bGU9InN0cm9rZTojMTgxODE4O3N0cm9rZS13aWR0aDowLjU7Ii8+PHBhdGggZD0iTTIxMiw1MDkgTDIxMiw1MTkgTDIyMiw1MTkgTDIxMiw1MDkiIGZpbGw9IiNGRUZGREQiIHN0eWxlPSJzdHJva2U6IzE4MTgxODtzdHJva2Utd2lkdGg6MTsiLz48dGV4dCBmaWxsPSIjMDAwMDAwIiBmb250LWZhbWlseT0ic2Fucy1zZXJpZiIgZm9udC1zaXplPSIxMyIgbGVuZ3RoQWRqdXN0PSJzcGFjaW5nIiB0ZXh0TGVuZ3RoPSI2NSIgeD0iMTIiIHk9IjUyNi4yODkxIj4mIzEwNDg7JiMxMDg5OyYjMTA4NzsmIzEwODY7JiMxMDgzOyYjMTEwMDsmIzEwNzk7JiMxMDkxOyYjMTA3NzsmIzEwOTA7PC90ZXh0Pjx0ZXh0IGZpbGw9IiMwMDAwMDAiIGZvbnQtZmFtaWx5PSJzYW5zLXNlcmlmIiBmb250LXNpemU9IjEzIiBmb250LXdlaWdodD0iYm9sZCIgbGVuZ3RoQWRqdXN0PSJzcGFjaW5nIiB0ZXh0TGVuZ3RoPSIzMi41IiB4PSI4My41IiB5PSI1MjYuMjg5MSI+JiMxMDYwOyYjMTA3MjsmIzEwODk7JiMxMDcyOyYjMTA3Njs8L3RleHQ+PHRleHQgZmlsbD0iIzAwMDAwMCIgZm9udC1mYW1pbHk9InNhbnMtc2VyaWYiIGZvbnQtc2l6ZT0iMTMiIGxlbmd0aEFkanVzdD0ic3BhY2luZyIgdGV4dExlbmd0aD0iODQuNSIgeD0iMTIyLjUiIHk9IjUyNi4yODkxIj4mIzEwNzY7JiMxMDgzOyYjMTEwMzsgJiMxMDkxOyYjMTA4NzsmIzEwODg7JiMxMDg2OyYjMTA5NzsmIzEwNzc7JiMxMDg1OyYjMTA4MDsmIzExMDM7PC90ZXh0Pjx0ZXh0IGZpbGw9IiMwMDAwMDAiIGZvbnQtZmFtaWx5PSJzYW5zLXNlcmlmIiBmb250LXNpemU9IjEzIiBsZW5ndGhBZGp1c3Q9InNwYWNpbmciIHRleHRMZW5ndGg9IjEzMCIgeD0iMTIiIHk9IjU0MC4yMDMxIj4mIzEwODI7JiMxMDg2OyYjMTA4NDsmIzEwODc7JiMxMDgzOyYjMTA3NzsmIzEwODI7JiMxMDg5OyYjMTA4NTsmIzEwOTk7JiMxMDkzOyAmIzEwODY7JiMxMDg3OyYjMTA3NzsmIzEwODg7JiMxMDcyOyYjMTA5NDsmIzEwODA7JiMxMDgxOzwvdGV4dD48dGV4dCBmaWxsPSIjMDAwMDAwIiBmb250LWZhbWlseT0ic2Fucy1zZXJpZiIgZm9udC1zaXplPSIxMyIgbGVuZ3RoQWRqdXN0PSJzcGFjaW5nIiB0ZXh0TGVuZ3RoPSI5MSIgeD0iMTIiIHk9IjU1NC4xMTcyIj4mIzEwODk7ICYjMTA4NjsmIzEwNzM7JiMxMDk4OyYjMTEwMzsmIzEwNzQ7JiMxMDgzOyYjMTA3NzsmIzEwODU7JiMxMDgwOyYjMTEwMzsmIzEwODQ7JiMxMDgwOzwvdGV4dD48L2c+PCEtLWxpbmsgVUMxIHRvID8/Pz8/Pz8/Pz8tLT48ZyBjbGFzcz0ibGluayIgZGF0YS1lbnRpdHktMT0iVUMxIiBkYXRhLWVudGl0eS0yPSImIzEwNjA7JiMxMDgwOyYjMTA4MzsmIzExMDA7JiMxMDkwOyYjMTA4ODsmIzEwNzI7JiMxMDk0OyYjMTA4MDsmIzExMDM7IiBkYXRhLXNvdXJjZS1saW5lPSIyMyIgZGF0YS11aWQ9ImxuazE2IiBpZD0ibGlua19VQzFfJiMxMDYwOyYjMTA4MDsmIzEwODM7JiMxMTAwOyYjMTA5MDsmIzEwODg7JiMxMDcyOyYjMTA5NDsmIzEwODA7JiMxMTAzOyI+PHBhdGggZD0iTTM4Mi41LDE4Mi40MiBDMzgyLjUsMTY3Ljg3IDM4Mi41LDE1Mi45MyAzODIuNSwxMzkuMTUiIGZpbGw9Im5vbmUiIGlkPSJVQzEtdG8tJiMxMDYwOyYjMTA4MDsmIzEwODM7JiMxMTAwOyYjMTA5MDsmIzEwODg7JiMxMDcyOyYjMTA5NDsmIzEwODA7JiMxMTAzOyIgc3R5bGU9InN0cm9rZTojMTgxODE4O3N0cm9rZS13aWR0aDoxO3N0cm9rZS1kYXNoYXJyYXk6Ny4wLDcuMDsiLz48cG9seWdvbiBmaWxsPSIjMTgxODE4IiBwb2ludHM9IjM4Mi41LDEzMy4xNSwzNzguNSwxNDIuMTUsMzgyLjUsMTM4LjE1LDM4Ni41LDE0Mi4xNSwzODIuNSwxMzMuMTUiIHN0eWxlPSJzdHJva2U6IzE4MTgxODtzdHJva2Utd2lkdGg6MTsiLz48dGV4dCBmaWxsPSIjMDAwMDAwIiBmb250LWZhbWlseT0ic2Fucy1zZXJpZiIgZm9udC1zaXplPSIxMyIgbGVuZ3RoQWRqdXN0PSJzcGFjaW5nIiB0ZXh0TGVuZ3RoPSI0NS41IiB4PSIzNDkuNSIgeT0iMTYzLjUzOTEiPmluY2x1ZGU8L3RleHQ+PC9nPjwhLS1saW5rIFVDNiB0byA/Pz8/Pz8/PyA/Pz8/Pz8tLT48ZyBjbGFzcz0ibGluayIgZGF0YS1lbnRpdHktMT0iVUM2IiBkYXRhLWVudGl0eS0yPSImIzEwNTU7JiMxMDg4OyYjMTA4NjsmIzEwNzQ7JiMxMDc3OyYjMTA4ODsmIzEwODI7JiMxMDcyOyAmIzEwNzY7JiMxMDcyOyYjMTA4NTsmIzEwODU7JiMxMDk5OyYjMTA5MzsiIGRhdGEtc291cmNlLWxpbmU9IjI0IiBkYXRhLXVpZD0ibG5rMTgiIGlkPSJsaW5rX1VDNl8mIzEwNTU7JiMxMDg4OyYjMTA4NjsmIzEwNzQ7JiMxMDc3OyYjMTA4ODsmIzEwODI7JiMxMDcyOyAmIzEwNzY7JiMxMDcyOyYjMTA4NTsmIzEwODU7JiMxMDk5OyYjMTA5MzsiPjxwYXRoIGQ9Ik0zODIuNSw1NDUuMTkgQzM4Mi41LDUzMS4xMyAzODIuNSw1MTYuNjMgMzgyLjUsNTAyLjE4IiBmaWxsPSJub25lIiBpZD0iVUM2LXRvLSYjMTA1NTsmIzEwODg7JiMxMDg2OyYjMTA3NDsmIzEwNzc7JiMxMDg4OyYjMTA4MjsmIzEwNzI7ICYjMTA3NjsmIzEwNzI7JiMxMDg1OyYjMTA4NTsmIzEwOTk7JiMxMDkzOyIgc3R5bGU9InN0cm9rZTojMTgxODE4O3N0cm9rZS13aWR0aDoxO3N0cm9rZS1kYXNoYXJyYXk6Ny4wLDcuMDsiLz48cG9seWdvbiBmaWxsPSIjMTgxODE4IiBwb2ludHM9IjM4Mi41LDQ5Ni4xOCwzNzguNSw1MDUuMTgsMzgyLjUsNTAxLjE4LDM4Ni41LDUwNS4xOCwzODIuNSw0OTYuMTgiIHN0eWxlPSJzdHJva2U6IzE4MTgxODtzdHJva2Utd2lkdGg6MTsiLz48dGV4dCBmaWxsPSIjMDAwMDAwIiBmb250LWZhbWlseT0ic2Fucy1zZXJpZiIgZm9udC1zaXplPSIxMyIgbGVuZ3RoQWRqdXN0PSJzcGFjaW5nIiB0ZXh0TGVuZ3RoPSIzOSIgeD0iMzUyLjUiIHk9IjUyNi41MzkxIj5leHRlbmQ8L3RleHQ+PC9nPjwhLS1saW5rIEd1ZXN0IHRvIFVDMS0tPjxnIGNsYXNzPSJsaW5rIiBkYXRhLWVudGl0eS0xPSJHdWVzdCIgZGF0YS1lbnRpdHktMj0iVUMxIiBkYXRhLXNvdXJjZS1saW5lPSIyNyIgZGF0YS11aWQ9ImxuazE5IiBpZD0ibGlua19HdWVzdF9VQzEiPjxwYXRoIGQ9Ik0xMzEuNjcsMjMwLjg3IEMxNjguNzYsMjI2LjE0IDI1My43MTgyLDIxNS4yOTkzIDMxNS4wMTgyLDIwNy40NzkzIiBmaWxsPSJub25lIiBpZD0iR3Vlc3QtdG8tVUMxIiBzdHlsZT0ic3Ryb2tlOiMxODE4MTg7c3Ryb2tlLXdpZHRoOjE7Ii8+PHBvbHlnb24gZmlsbD0iIzE4MTgxOCIgcG9pbnRzPSIzMjAuOTcsMjA2LjcyLDMxMS41MzYyLDIwMy44OTExLDMxNi4wMTAyLDIwNy4zNTI3LDMxMi41NDg1LDIxMS44MjY3LDMyMC45NywyMDYuNzIiIHN0eWxlPSJzdHJva2U6IzE4MTgxODtzdHJva2Utd2lkdGg6MTsiLz48L2c+PCEtLWxpbmsgR3Vlc3QgdG8gVUMyLS0+PGcgY2xhc3M9ImxpbmsiIGRhdGEtZW50aXR5LTE9Ikd1ZXN0IiBkYXRhLWVudGl0eS0yPSJVQzIiIGRhdGEtc291cmNlLWxpbmU9IjI4IiBkYXRhLXVpZD0ibG5rMjAiIGlkPSJsaW5rX0d1ZXN0X1VDMiI+PHBhdGggZD0iTTEzMS42NywyMzUuMTkgQzE2Ny44NSwyMzkuOTQgMjQ5LjI4MSwyNTAuNjM5MSAzMTAuNDUxLDI1OC42NjkxIiBmaWxsPSJub25lIiBpZD0iR3Vlc3QtdG8tVUMyIiBzdHlsZT0ic3Ryb2tlOiMxODE4MTg7c3Ryb2tlLXdpZHRoOjE7Ii8+PHBvbHlnb24gZmlsbD0iIzE4MTgxOCIgcG9pbnRzPSIzMTYuNCwyNTkuNDUsMzA3Ljk5NzIsMjU0LjMxMjYsMzExLjQ0MjUsMjU4Ljc5OTIsMzA2Ljk1NTksMjYyLjI0NDYsMzE2LjQsMjU5LjQ1IiBzdHlsZT0ic3Ryb2tlOiMxODE4MTg7c3Ryb2tlLXdpZHRoOjE7Ii8+PC9nPjwhLS1saW5rIEd1ZXN0IHRvIFVDMy0tPjxnIGNsYXNzPSJsaW5rIiBkYXRhLWVudGl0eS0xPSJHdWVzdCIgZGF0YS1lbnRpdHktMj0iVUMzIiBkYXRhLXNvdXJjZS1saW5lPSIyOSIgZGF0YS11aWQ9ImxuazIxIiBpZD0ibGlua19HdWVzdF9VQzMiPjxwYXRoIGQ9Ik0xMzEuNjMsMjQyLjI1IEMxNTguMjgsMjU2Ljc3IDIxMi40NywyODUuMSAyNjEsMzAzIEMyODUuNTcsMzEyLjA2IDMwOC4wMDcyLDMxOC4zMDMyIDMzMC45NzcyLDMyMy44NDMyIiBmaWxsPSJub25lIiBpZD0iR3Vlc3QtdG8tVUMzIiBzdHlsZT0ic3Ryb2tlOiMxODE4MTg7c3Ryb2tlLXdpZHRoOjE7Ii8+PHBvbHlnb24gZmlsbD0iIzE4MTgxOCIgcG9pbnRzPSIzMzYuODEsMzI1LjI1LDMyOC45OTg3LDMxOS4yNTEzLDMzMS45NDk0LDMyNC4wNzc3LDMyNy4xMjMsMzI3LjAyODQsMzM2LjgxLDMyNS4yNSIgc3R5bGU9InN0cm9rZTojMTgxODE4O3N0cm9rZS13aWR0aDoxOyIvPjwvZz48IS0tbGluayBHdWVzdCB0byBVQzQtLT48ZyBjbGFzcz0ibGluayIgZGF0YS1lbnRpdHktMT0iR3Vlc3QiIGRhdGEtZW50aXR5LTI9IlVDNCIgZGF0YS1zb3VyY2UtbGluZT0iMzAiIGRhdGEtdWlkPSJsbmsyMiIgaWQ9ImxpbmtfR3Vlc3RfVUM0Ij48cGF0aCBkPSJNMTMxLjU5LDIxMC4wMSBDMTU2LjE3LDE3Ny42NCAyMDUuNCwxMTkuMDIgMjYxLDg3IEMyODIuMDEsNzQuOSAzMDEuODMyOCw2OC41MTUyIDMyNC4wODI4LDYzLjc1NTIiIGZpbGw9Im5vbmUiIGlkPSJHdWVzdC10by1VQzQiIHN0eWxlPSJzdHJva2U6IzE4MTgxODtzdHJva2Utd2lkdGg6MTsiLz48cG9seWdvbiBmaWxsPSIjMTgxODE4IiBwb2ludHM9IjMyOS45NSw2Mi41LDMyMC4zMTIzLDYwLjQ3MTMsMzI1LjA2MDYsNjMuNTQ2LDMyMS45ODU5LDY4LjI5NDMsMzI5Ljk1LDYyLjUiIHN0eWxlPSJzdHJva2U6IzE4MTgxODtzdHJva2Utd2lkdGg6MTsiLz48L2c+PCEtLWxpbmsgVXNlciB0byBVQzUtLT48ZyBjbGFzcz0ibGluayIgZGF0YS1lbnRpdHktMT0iVXNlciIgZGF0YS1lbnRpdHktMj0iVUM1IiBkYXRhLXNvdXJjZS1saW5lPSIzMiIgZGF0YS11aWQ9ImxuazIzIiBpZD0ibGlua19Vc2VyX1VDNSI+PHBhdGggZD0iTTE1Ni4wNiw0MjQuNjEgQzE5Mi43LDQyMS41OSAyNDEuNjIwMyw0MTcuNTQzMSAyODguMDcwMyw0MTMuNzEzMSIgZmlsbD0ibm9uZSIgaWQ9IlVzZXItdG8tVUM1IiBzdHlsZT0ic3Ryb2tlOiMxODE4MTg7c3Ryb2tlLXdpZHRoOjE7Ii8+PHBvbHlnb24gZmlsbD0iIzE4MTgxOCIgcG9pbnRzPSIyOTQuMDUsNDEzLjIyLDI4NC43NTE3LDQwOS45NzMxLDI4OS4wNjY5LDQxMy42MzA5LDI4NS40MDkxLDQxNy45NDYsMjk0LjA1LDQxMy4yMiIgc3R5bGU9InN0cm9rZTojMTgxODE4O3N0cm9rZS13aWR0aDoxOyIvPjwvZz48IS0tbGluayBVc2VyIHRvIFVDNi0tPjxnIGNsYXNzPSJsaW5rIiBkYXRhLWVudGl0eS0xPSJVc2VyIiBkYXRhLWVudGl0eS0yPSJVQzYiIGRhdGEtc291cmNlLWxpbmU9IjMzIiBkYXRhLXVpZD0ibG5rMjQiIGlkPSJsaW5rX1VzZXJfVUM2Ij48cGF0aCBkPSJNMTU2LjAxLDQ1Mi4yOSBDMTk1LjM4LDQ3NS41NCAyNTAuMzksNTA3LjgzIDI2MSw1MTMgQzI4OC41Myw1MjYuNDEgMzE1LjE5MzUsNTM3LjAzNjIgMzM5LjQxMzUsNTQ2LjAwNjIiIGZpbGw9Im5vbmUiIGlkPSJVc2VyLXRvLVVDNiIgc3R5bGU9InN0cm9rZTojMTgxODE4O3N0cm9rZS13aWR0aDoxOyIvPjxwb2x5Z29uIGZpbGw9IiMxODE4MTgiIHBvaW50cz0iMzQ1LjA0LDU0OC4wOSwzMzcuOTg5NCw1NDEuMjEzMywzNDAuMzUxMiw1NDYuMzUzNSwzMzUuMjExLDU0OC43MTUzLDM0NS4wNCw1NDguMDkiIHN0eWxlPSJzdHJva2U6IzE4MTgxODtzdHJva2Utd2lkdGg6MTsiLz48L2c+PCEtLWxpbmsgUmVhbHRvciB0byBVQzctLT48ZyBjbGFzcz0ibGluayIgZGF0YS1lbnRpdHktMT0iUmVhbHRvciIgZGF0YS1lbnRpdHktMj0iVUM3IiBkYXRhLXNvdXJjZS1saW5lPSIzNCIgZGF0YS11aWQ9ImxuazI1IiBpZD0ibGlua19SZWFsdG9yX1VDNyI+PHBhdGggZD0iTTEzOC42NSw2MzQgQzE3MS4zMyw2MzQgMjI2LjIxLDYzNCAyNzguODQsNjM0IiBmaWxsPSJub25lIiBpZD0iUmVhbHRvci10by1VQzciIHN0eWxlPSJzdHJva2U6IzE4MTgxODtzdHJva2Utd2lkdGg6MTsiLz48cG9seWdvbiBmaWxsPSIjMTgxODE4IiBwb2ludHM9IjI4NC44NCw2MzQsMjc1Ljg0LDYzMCwyNzkuODQsNjM0LDI3NS44NCw2MzgsMjg0Ljg0LDYzNCIgc3R5bGU9InN0cm9rZTojMTgxODE4O3N0cm9rZS13aWR0aDoxOyIvPjwvZz48IS0tbGluayBBZG1pbiB0byBVQzgtLT48ZyBjbGFzcz0ibGluayIgZGF0YS1lbnRpdHktMT0iQWRtaW4iIGRhdGEtZW50aXR5LTI9IlVDOCIgZGF0YS1zb3VyY2UtbGluZT0iMzUiIGRhdGEtdWlkPSJsbmsyNiIgaWQ9ImxpbmtfQWRtaW5fVUM4Ij48cGF0aCBkPSJNMTMxLjY3LDc0MS44NyBDMTY2LjgyLDczNy4zOSAyNDQuMzY4Myw3MjcuNDk5NSAzMDUuMTc4Myw3MTkuNzM5NSIgZmlsbD0ibm9uZSIgaWQ9IkFkbWluLXRvLVVDOCIgc3R5bGU9InN0cm9rZTojMTgxODE4O3N0cm9rZS13aWR0aDoxOyIvPjxwb2x5Z29uIGZpbGw9IiMxODE4MTgiIHBvaW50cz0iMzExLjEzLDcxOC45OCwzMDEuNjk2MSw3MTYuMTUxNCwzMDYuMTcwMiw3MTkuNjEyOSwzMDIuNzA4Nyw3MjQuMDg3MSwzMTEuMTMsNzE4Ljk4IiBzdHlsZT0ic3Ryb2tlOiMxODE4MTg7c3Ryb2tlLXdpZHRoOjE7Ii8+PC9nPjwhLS1saW5rIEdNTjMwIHRvIFVDNy0tPjxnIGNsYXNzPSJsaW5rIiBkYXRhLWVudGl0eS0xPSJHTU4zMCIgZGF0YS1lbnRpdHktMj0iVUM3IiBkYXRhLXNvdXJjZS1saW5lPSIzOCIgZGF0YS11aWQ9ImxuazMyIiBpZD0ibGlua19HTU4zMF9VQzciPjxwYXRoIGQ9Ik0xNzguMzUsNTYxLjA2IEMyMTAuMDYsNTc0LjAxIDI0NS4wMyw1ODguMTMgMjYxLDU5NCBDMjgxLjc5LDYwMS42NCAzMDQuODMsNjA5LjQ1IDMyNS4xNSw2MTYuMTEiIGZpbGw9Im5vbmUiIGlkPSJHTU4zMC1VQzciIHN0eWxlPSJzdHJva2U6IzE4MTgxODtzdHJva2Utd2lkdGg6MTtzdHJva2UtZGFzaGFycmF5OjcuMCw3LjA7Ii8+PC9nPjwhLS1TUkM9W1RQSFRJbmoxNThSbHZyU0NVakM2Qjd3a3VlTUdzZ1J0QlJ0cFBhZDZUNzdUQlBpRHo4RTJJUjZiTE9aV0pJeUFMVWVGWTM2ZnFOcHpYSkZfZ0V5dkNxUEpnNElwUC1PdlB6dnB2YnJaaXZsaEZETFBMN3NKd3FnS2NOOFVmT2NneEtOOXNwMEJ6dE16UGlmWHBVWUZJa2tkT05jbGNnTnJmQkFUbmNjY3Zxa2JxaVJwOVR2OWl1aDlmZ2w1blNMNWgxUkJVUGdMcVlIXzVOcW1VY2JMVkw4Z3YzS3pId1Nxald0UmpDVHBFZ3BmNXRMSm9fTHlwM0FnTVZYLVlsc1lDR3RpQ0x0WmtxRGpzd0dVbnZCcWtjUmFqRXFXVTNQREVBRS04NHRLRm4zaWZHZFp0RWlnMWk2S0ZBNGszSzZGWDJmTXpnRTRjRzBfSWw0V21nR1E2dTNkcjZVZkEza2FqZ085ZjYyMVJaYU9PUktCUE50d1d6LVhRdWh3U3BBbEhvOVZNOHM3SV9pVHoyckJleXZad00xeG9NN3NXM0NibHNhRkQ0aHNXQkxmVzhHUlpvdUJVZVFMQW9TOElNdHgxU3lqSndtOFNLOFRycHE0TlZ6M2gwZm5aanIzcFhSdjh2d09mZXVNX2pBbFpvMm92eEZNZmhycUtVeWh6eXM1TS1aeGJsZVUyV0p3SkhDZnExN2ZsaElxQmhYVm5GRG1jaFdrWUotYlVrLSAtOXV0UU9uaDl0RmJscy1DUm1GNzF3RklKQklIVXUwbXVPY09TY3BmQW9kNnpPV0dDNzJYM1hXTy1HLXdrd25nckhfT0c2VVBUUmY4QU16SVBTTTVYSS14ZE9SR3k0d3RDSEFqQVlJNVRqRk9tMkRJVDFyc3loZnBSTkJJWEw5QmNuaC0zd0l3VmtnYjVCWmtndm93OVZHVnh5cFltQ1RBNTBmdHhkZmxVNGdyMk9JVDFMbUNVTmZVVFpHT25Qem5PSl9tdzFaUjZKVGlaa1hJM2pDNnBvUXdTTkwxZm8yRVF5UldKNV9DXzJqNnMzY3FfaTNNdlVwRmpQcE9oMnhnMGMwT0FUV2k1eE5MV1NvQmNfZFB0eXBZSWJHbkhPMjJsR3lEVDBUamFTY3kwa2piOVJFRV90bGFCXS0tPjwvZz48L3N2Zz4=;" vertex="1" parent="1">
            <mxGeometry x="50" y="-788" width="740" height="788" as="geometry" />
          </mxCell>
        </UserObject>
        <UserObject label="" plantUmlData="{&#xa;  &quot;data&quot;: &quot;@startuml\ntitle Процесс поиска недвижимости\nskinparam sequence {\n  ArrowColor #5D4037\n  LifeLineBorderColor #5D4037\n}\n\nactor \&quot;Пользователь\&quot; as User\nparticipant \&quot;UI\&quot; as UI\nparticipant \&quot;SearchFacade\&quot; as Facade &lt;&lt;Фасад&gt;&gt;\nparticipant \&quot;SearchStrategy\&quot; as Strategy &lt;&lt;Стратегия&gt;&gt;\nparticipant \&quot;FilterValidator\&quot; as Validator\nparticipant \&quot;Database\&quot; as DB\n\nautonumber\n\nUser -&gt; UI: Ввод параметров (цена, район)\nactivate UI\n\nUI -&gt; Facade: findProperties(params)\nactivate Facade\n\nFacade -&gt; Validator: validateFilters(params)\nactivate Validator\nValidator --&gt; Facade: validationResult\ndeactivate Validator\n\nalt Невалидные параметры\n  Facade --&gt; UI: Ошибка валидации\n  UI -&gt; User: Показать ошибку\nelse Валидные параметры\n  Facade -&gt; Strategy: setStrategy(type)\n  activate Strategy\n  Strategy --&gt; Facade: подтверждение\n  deactivate Strategy\n  \n  Facade -&gt; Strategy: executeSearch(params)\n  activate Strategy\n  Strategy -&gt; DB: queryProperties(params)\n  activate DB\n  DB --&gt; Strategy: results\n  deactivate DB\n  Strategy --&gt; Facade: searchResults\n  deactivate Strategy\n  \n  Facade --&gt; UI: список объектов\n  deactivate Facade\n  \n  UI -&gt; User: Отобразить результаты\nend\n\ndeactivate UI\n@enduml&quot;,&#xa;  &quot;format&quot;: &quot;svg&quot;&#xa;}" id="C9_sTyGphZHRCnXT_EhT-3">
          <mxCell style="shape=image;noLabel=1;verticalAlign=top;aspect=fixed;imageAspect=0;image=data:image/svg+xml,PHN2ZyB4bWxucz0iaHR0cDovL3d3dy53My5vcmcvMjAwMC9zdmciIHhtbG5zOnhsaW5rPSJodHRwOi8vd3d3LnczLm9yZy8xOTk5L3hsaW5rIiBjb250ZW50U3R5bGVUeXBlPSJ0ZXh0L2NzcyIgZGF0YS1kaWFncmFtLXR5cGU9IlNFUVVFTkNFIiBoZWlnaHQ9IjY0OXB4IiBwcmVzZXJ2ZUFzcGVjdFJhdGlvPSJub25lIiBzdHlsZT0id2lkdGg6OTI4cHg7aGVpZ2h0OjY0OXB4O2JhY2tncm91bmQ6I0ZGRkZGRjsiIHZlcnNpb249IjEuMSIgdmlld0JveD0iMCAwIDkyOCA2NDkiIHdpZHRoPSI5MjhweCIgem9vbUFuZFBhbj0ibWFnbmlmeSI+PHRpdGxlPiYjMTA1NTsmIzEwODg7JiMxMDg2OyYjMTA5NDsmIzEwNzc7JiMxMDg5OyYjMTA4OTsgJiMxMDg3OyYjMTA4NjsmIzEwODA7JiMxMDg5OyYjMTA4MjsmIzEwNzI7ICYjMTA4NTsmIzEwNzc7JiMxMDc2OyYjMTA3NDsmIzEwODA7JiMxMDc4OyYjMTA4MDsmIzEwODQ7JiMxMDg2OyYjMTA4OTsmIzEwOTA7JiMxMDgwOzwvdGl0bGU+PGRlZnMvPjxnPjx0ZXh0IGZpbGw9IiMwMDAwMDAiIGZvbnQtZmFtaWx5PSJzYW5zLXNlcmlmIiBmb250LXNpemU9IjE0IiBmb250LXdlaWdodD0iYm9sZCIgbGVuZ3RoQWRqdXN0PSJzcGFjaW5nIiB0ZXh0TGVuZ3RoPSIxODkiIHg9IjM3MC43NSIgeT0iMjguMjM0NCI+JiMxMDU1OyYjMTA4ODsmIzEwODY7JiMxMDk0OyYjMTA3NzsmIzEwODk7JiMxMDg5OyAmIzEwODc7JiMxMDg2OyYjMTA4MDsmIzEwODk7JiMxMDgyOyYjMTA3MjsgJiMxMDg1OyYjMTA3NzsmIzEwNzY7JiMxMDc0OyYjMTA4MDsmIzEwNzg7JiMxMDgwOyYjMTA4NDsmIzEwODY7JiMxMDg5OyYjMTA5MDsmIzEwODA7PC90ZXh0PjxnPjx0aXRsZT5VSTwvdGl0bGU+PHJlY3QgZmlsbD0iI0ZGRkZGRiIgaGVpZ2h0PSI0MTQuNTcwMyIgc3R5bGU9InN0cm9rZTojNUQ0MDM3O3N0cm9rZS13aWR0aDoxOyIgd2lkdGg9IjEwIiB4PSIyODMiIHk9IjE0NS44ODI4Ii8+PC9nPjxnPjx0aXRsZT4mbHQ7Jmx0OyYjMTA2MDsmIzEwNzI7JiMxMDg5OyYjMTA3MjsmIzEwNzY7Jmd0OyZndDs8L3RpdGxlPjxyZWN0IGZpbGw9IiNGRkZGRkYiIGhlaWdodD0iMzQzLjc0MjIiIHN0eWxlPSJzdHJva2U6IzVENDAzNztzdHJva2Utd2lkdGg6MTsiIHdpZHRoPSIxMCIgeD0iNDY1LjUiIHk9IjE3My43OTY5Ii8+PC9nPjxnPjx0aXRsZT4mbHQ7Jmx0OyYjMTA1NzsmIzEwOTA7JiMxMDg4OyYjMTA3MjsmIzEwOTA7JiMxMDc3OyYjMTA3NTsmIzEwODA7JiMxMTAzOyZndDsmZ3Q7PC90aXRsZT48cmVjdCBmaWxsPSIjRkZGRkZGIiBoZWlnaHQ9IjI3LjkxNDEiIHN0eWxlPSJzdHJva2U6IzVENDAzNztzdHJva2Utd2lkdGg6MTsiIHdpZHRoPSIxMCIgeD0iNjQxLjUiIHk9IjM1MC4wNTQ3Ii8+PC9nPjxnPjx0aXRsZT4mbHQ7Jmx0OyYjMTA1NzsmIzEwOTA7JiMxMDg4OyYjMTA3MjsmIzEwOTA7JiMxMDc3OyYjMTA3NTsmIzEwODA7JiMxMTAzOyZndDsmZ3Q7PC90aXRsZT48cmVjdCBmaWxsPSIjRkZGRkZGIiBoZWlnaHQ9IjgzLjc0MjIiIHN0eWxlPSJzdHJva2U6IzVENDAzNztzdHJva2Utd2lkdGg6MTsiIHdpZHRoPSIxMCIgeD0iNjQxLjUiIHk9IjQwNS44ODI4Ii8+PC9nPjxnPjx0aXRsZT5GaWx0ZXJWYWxpZGF0b3I8L3RpdGxlPjxyZWN0IGZpbGw9IiNGRkZGRkYiIGhlaWdodD0iMjcuOTE0MSIgc3R5bGU9InN0cm9rZTojNUQ0MDM3O3N0cm9rZS13aWR0aDoxOyIgd2lkdGg9IjEwIiB4PSI3NjciIHk9IjIwMS43MTA5Ii8+PC9nPjxnPjx0aXRsZT5EYXRhYmFzZTwvdGl0bGU+PHJlY3QgZmlsbD0iI0ZGRkZGRiIgaGVpZ2h0PSIyNy45MTQxIiBzdHlsZT0ic3Ryb2tlOiM1RDQwMzc7c3Ryb2tlLXdpZHRoOjE7IiB3aWR0aD0iMTAiIHg9Ijg3MS41IiB5PSI0MzMuNzk2OSIvPjwvZz48cmVjdCBmaWxsPSJub25lIiBoZWlnaHQ9IjMwOC44MjgxIiBzdHlsZT0ic3Ryb2tlOiMwMDAwMDA7c3Ryb2tlLXdpZHRoOjEuNTsiIHdpZHRoPSI5MTEuNSIgeD0iMTAiIHk9IjI0NC42MjUiLz48Zz48dGl0bGU+JiMxMDU1OyYjMTA4NjsmIzEwODM7JiMxMTAwOyYjMTA3OTsmIzEwODY7JiMxMDc0OyYjMTA3MjsmIzEwOTA7JiMxMDc3OyYjMTA4MzsmIzExMDA7PC90aXRsZT48cmVjdCBmaWxsPSIjMDAwMDAwIiBmaWxsLW9wYWNpdHk9IjAuMDAwMDAiIGhlaWdodD0iNDU0LjQ4NDQiIHdpZHRoPSI4IiB4PSI2MSIgeT0iMTE1Ljk2ODgiLz48bGluZSBzdHlsZT0ic3Ryb2tlOiM1RDQwMzc7c3Ryb2tlLXdpZHRoOjAuNTtzdHJva2UtZGFzaGFycmF5OjUuMCw1LjA7IiB4MT0iNjUiIHgyPSI2NSIgeTE9IjExNS45Njg4IiB5Mj0iNTcwLjQ1MzEiLz48L2c+PGc+PHRpdGxlPlVJPC90aXRsZT48cmVjdCBmaWxsPSIjMDAwMDAwIiBmaWxsLW9wYWNpdHk9IjAuMDAwMDAiIGhlaWdodD0iNDU0LjQ4NDQiIHdpZHRoPSI4IiB4PSIyODQiIHk9IjExNS45Njg4Ii8+PGxpbmUgc3R5bGU9InN0cm9rZTojNUQ0MDM3O3N0cm9rZS13aWR0aDowLjU7c3Ryb2tlLWRhc2hhcnJheTo1LjAsNS4wOyIgeDE9IjI4OCIgeDI9IjI4OCIgeTE9IjExNS45Njg4IiB5Mj0iNTcwLjQ1MzEiLz48L2c+PGc+PHRpdGxlPiZsdDsmbHQ7JiMxMDYwOyYjMTA3MjsmIzEwODk7JiMxMDcyOyYjMTA3NjsmZ3Q7Jmd0OzwvdGl0bGU+PHJlY3QgZmlsbD0iIzAwMDAwMCIgZmlsbC1vcGFjaXR5PSIwLjAwMDAwIiBoZWlnaHQ9IjQ1NC40ODQ0IiB3aWR0aD0iOCIgeD0iNDY2LjUiIHk9IjExNS45Njg4Ii8+PGxpbmUgc3R5bGU9InN0cm9rZTojNUQ0MDM3O3N0cm9rZS13aWR0aDowLjU7c3Ryb2tlLWRhc2hhcnJheTo1LjAsNS4wOyIgeDE9IjQ3MC41IiB4Mj0iNDcwLjUiIHkxPSIxMTUuOTY4OCIgeTI9IjU3MC40NTMxIi8+PC9nPjxnPjx0aXRsZT4mbHQ7Jmx0OyYjMTA1NzsmIzEwOTA7JiMxMDg4OyYjMTA3MjsmIzEwOTA7JiMxMDc3OyYjMTA3NTsmIzEwODA7JiMxMTAzOyZndDsmZ3Q7PC90aXRsZT48cmVjdCBmaWxsPSIjMDAwMDAwIiBmaWxsLW9wYWNpdHk9IjAuMDAwMDAiIGhlaWdodD0iNDU0LjQ4NDQiIHdpZHRoPSI4IiB4PSI2NDIuNSIgeT0iMTE1Ljk2ODgiLz48bGluZSBzdHlsZT0ic3Ryb2tlOiM1RDQwMzc7c3Ryb2tlLXdpZHRoOjAuNTtzdHJva2UtZGFzaGFycmF5OjUuMCw1LjA7IiB4MT0iNjQ2LjUiIHgyPSI2NDYuNSIgeTE9IjExNS45Njg4IiB5Mj0iNTcwLjQ1MzEiLz48L2c+PGc+PHRpdGxlPkZpbHRlclZhbGlkYXRvcjwvdGl0bGU+PHJlY3QgZmlsbD0iIzAwMDAwMCIgZmlsbC1vcGFjaXR5PSIwLjAwMDAwIiBoZWlnaHQ9IjQ1NC40ODQ0IiB3aWR0aD0iOCIgeD0iNzY4IiB5PSIxMTUuOTY4OCIvPjxsaW5lIHN0eWxlPSJzdHJva2U6IzVENDAzNztzdHJva2Utd2lkdGg6MC41O3N0cm9rZS1kYXNoYXJyYXk6NS4wLDUuMDsiIHgxPSI3NzEuNSIgeDI9Ijc3MS41IiB5MT0iMTE1Ljk2ODgiIHkyPSI1NzAuNDUzMSIvPjwvZz48Zz48dGl0bGU+RGF0YWJhc2U8L3RpdGxlPjxyZWN0IGZpbGw9IiMwMDAwMDAiIGZpbGwtb3BhY2l0eT0iMC4wMDAwMCIgaGVpZ2h0PSI0NTQuNDg0NCIgd2lkdGg9IjgiIHg9Ijg3Mi41IiB5PSIxMTUuOTY4OCIvPjxsaW5lIHN0eWxlPSJzdHJva2U6IzVENDAzNztzdHJva2Utd2lkdGg6MC41O3N0cm9rZS1kYXNoYXJyYXk6NS4wLDUuMDsiIHgxPSI4NzYuNSIgeDI9Ijg3Ni41IiB5MT0iMTE1Ljk2ODgiIHkyPSI1NzAuNDUzMSIvPjwvZz48ZyBjbGFzcz0icGFydGljaXBhbnQgcGFydGljaXBhbnQtaGVhZCIgZGF0YS1wYXJ0aWNpcGFudD0iVXNlciI+PHRleHQgZmlsbD0iIzAwMDAwMCIgZm9udC1mYW1pbHk9InNhbnMtc2VyaWYiIGZvbnQtc2l6ZT0iMTQiIGxlbmd0aEFkanVzdD0ic3BhY2luZyIgdGV4dExlbmd0aD0iODQiIHg9IjIwIiB5PSIxMTQuMjE4OCI+JiMxMDU1OyYjMTA4NjsmIzEwODM7JiMxMTAwOyYjMTA3OTsmIzEwODY7JiMxMDc0OyYjMTA3MjsmIzEwOTA7JiMxMDc3OyYjMTA4MzsmIzExMDA7PC90ZXh0PjxlbGxpcHNlIGN4PSI2NSIgY3k9IjQ5LjQ4NDQiIGZpbGw9IiNFMkUyRjAiIHJ4PSI4IiByeT0iOCIgc3R5bGU9InN0cm9rZTojMTgxODE4O3N0cm9rZS13aWR0aDowLjU7Ii8+PHBhdGggZD0iTTY1LDU3LjQ4NDQgTDY1LDg0LjQ4NDQgTTUyLDY1LjQ4NDQgTDc4LDY1LjQ4NDQgTTY1LDg0LjQ4NDQgTDUyLDk5LjQ4NDQgTTY1LDg0LjQ4NDQgTDc4LDk5LjQ4NDQiIGZpbGw9Im5vbmUiIHN0eWxlPSJzdHJva2U6IzE4MTgxODtzdHJva2Utd2lkdGg6MC41OyIvPjwvZz48ZyBjbGFzcz0icGFydGljaXBhbnQgcGFydGljaXBhbnQtdGFpbCIgZGF0YS1wYXJ0aWNpcGFudD0iVXNlciI+PHRleHQgZmlsbD0iIzAwMDAwMCIgZm9udC1mYW1pbHk9InNhbnMtc2VyaWYiIGZvbnQtc2l6ZT0iMTQiIGxlbmd0aEFkanVzdD0ic3BhY2luZyIgdGV4dExlbmd0aD0iODQiIHg9IjIwIiB5PSI1ODIuNjg3NSI+JiMxMDU1OyYjMTA4NjsmIzEwODM7JiMxMTAwOyYjMTA3OTsmIzEwODY7JiMxMDc0OyYjMTA3MjsmIzEwOTA7JiMxMDc3OyYjMTA4MzsmIzExMDA7PC90ZXh0PjxlbGxpcHNlIGN4PSI2NSIgY3k9IjU5Mi45Mzc1IiBmaWxsPSIjRTJFMkYwIiByeD0iOCIgcnk9IjgiIHN0eWxlPSJzdHJva2U6IzE4MTgxODtzdHJva2Utd2lkdGg6MC41OyIvPjxwYXRoIGQ9Ik02NSw2MDAuOTM3NSBMNjUsNjI3LjkzNzUgTTUyLDYwOC45Mzc1IEw3OCw2MDguOTM3NSBNNjUsNjI3LjkzNzUgTDUyLDY0Mi45Mzc1IE02NSw2MjcuOTM3NSBMNzgsNjQyLjkzNzUiIGZpbGw9Im5vbmUiIHN0eWxlPSJzdHJva2U6IzE4MTgxODtzdHJva2Utd2lkdGg6MC41OyIvPjwvZz48ZyBjbGFzcz0icGFydGljaXBhbnQgcGFydGljaXBhbnQtaGVhZCIgZGF0YS1wYXJ0aWNpcGFudD0iVUkiPjxyZWN0IGZpbGw9IiNFMkUyRjAiIGhlaWdodD0iMjguOTg0NCIgcng9IjIuNSIgcnk9IjIuNSIgc3R5bGU9InN0cm9rZTojMTgxODE4O3N0cm9rZS13aWR0aDowLjU7IiB3aWR0aD0iMjgiIHg9IjI3NCIgeT0iODUuOTg0NCIvPjx0ZXh0IGZpbGw9IiMwMDAwMDAiIGZvbnQtZmFtaWx5PSJzYW5zLXNlcmlmIiBmb250LXNpemU9IjE0IiBsZW5ndGhBZGp1c3Q9InNwYWNpbmciIHRleHRMZW5ndGg9IjE0IiB4PSIyODEiIHk9IjEwNi4yMTg4Ij5VSTwvdGV4dD48L2c+PGcgY2xhc3M9InBhcnRpY2lwYW50IHBhcnRpY2lwYW50LXRhaWwiIGRhdGEtcGFydGljaXBhbnQ9IlVJIj48cmVjdCBmaWxsPSIjRTJFMkYwIiBoZWlnaHQ9IjI4Ljk4NDQiIHJ4PSIyLjUiIHJ5PSIyLjUiIHN0eWxlPSJzdHJva2U6IzE4MTgxODtzdHJva2Utd2lkdGg6MC41OyIgd2lkdGg9IjI4IiB4PSIyNzQiIHk9IjU2OS40NTMxIi8+PHRleHQgZmlsbD0iIzAwMDAwMCIgZm9udC1mYW1pbHk9InNhbnMtc2VyaWYiIGZvbnQtc2l6ZT0iMTQiIGxlbmd0aEFkanVzdD0ic3BhY2luZyIgdGV4dExlbmd0aD0iMTQiIHg9IjI4MSIgeT0iNTg5LjY4NzUiPlVJPC90ZXh0PjwvZz48ZyBjbGFzcz0icGFydGljaXBhbnQgcGFydGljaXBhbnQtaGVhZCIgZGF0YS1wYXJ0aWNpcGFudD0iRmFjYWRlIj48cmVjdCBmaWxsPSIjRTJFMkYwIiBoZWlnaHQ9IjQzLjk2ODgiIHJ4PSIyLjUiIHJ5PSIyLjUiIHN0eWxlPSJzdHJva2U6IzE4MTgxODtzdHJva2Utd2lkdGg6MC41OyIgd2lkdGg9Ijk4IiB4PSI0MjEuNSIgeT0iNzEiLz48dGV4dCBmaWxsPSIjMDAwMDAwIiBmb250LWZhbWlseT0ic2Fucy1zZXJpZiIgZm9udC1zaXplPSIxNCIgZm9udC1zdHlsZT0iaXRhbGljIiBsZW5ndGhBZGp1c3Q9InNwYWNpbmciIHRleHRMZW5ndGg9IjQ5IiB4PSI0NDYiIHk9IjkxLjIzNDQiPiYjMTcxOyYjMTA2MDsmIzEwNzI7JiMxMDg5OyYjMTA3MjsmIzEwNzY7JiMxODc7PC90ZXh0Pjx0ZXh0IGZpbGw9IiMwMDAwMDAiIGZvbnQtZmFtaWx5PSJzYW5zLXNlcmlmIiBmb250LXNpemU9IjE0IiBsZW5ndGhBZGp1c3Q9InNwYWNpbmciIHRleHRMZW5ndGg9Ijg0IiB4PSI0MjguNSIgeT0iMTA2LjIxODgiPlNlYXJjaEZhY2FkZTwvdGV4dD48L2c+PGcgY2xhc3M9InBhcnRpY2lwYW50IHBhcnRpY2lwYW50LXRhaWwiIGRhdGEtcGFydGljaXBhbnQ9IkZhY2FkZSI+PHJlY3QgZmlsbD0iI0UyRTJGMCIgaGVpZ2h0PSI0My45Njg4IiByeD0iMi41IiByeT0iMi41IiBzdHlsZT0ic3Ryb2tlOiMxODE4MTg7c3Ryb2tlLXdpZHRoOjAuNTsiIHdpZHRoPSI5OCIgeD0iNDIxLjUiIHk9IjU2OS40NTMxIi8+PHRleHQgZmlsbD0iIzAwMDAwMCIgZm9udC1mYW1pbHk9InNhbnMtc2VyaWYiIGZvbnQtc2l6ZT0iMTQiIGZvbnQtc3R5bGU9Iml0YWxpYyIgbGVuZ3RoQWRqdXN0PSJzcGFjaW5nIiB0ZXh0TGVuZ3RoPSI0OSIgeD0iNDQ2IiB5PSI1ODkuNjg3NSI+JiMxNzE7JiMxMDYwOyYjMTA3MjsmIzEwODk7JiMxMDcyOyYjMTA3NjsmIzE4Nzs8L3RleHQ+PHRleHQgZmlsbD0iIzAwMDAwMCIgZm9udC1mYW1pbHk9InNhbnMtc2VyaWYiIGZvbnQtc2l6ZT0iMTQiIGxlbmd0aEFkanVzdD0ic3BhY2luZyIgdGV4dExlbmd0aD0iODQiIHg9IjQyOC41IiB5PSI2MDQuNjcxOSI+U2VhcmNoRmFjYWRlPC90ZXh0PjwvZz48ZyBjbGFzcz0icGFydGljaXBhbnQgcGFydGljaXBhbnQtaGVhZCIgZGF0YS1wYXJ0aWNpcGFudD0iU3RyYXRlZ3kiPjxyZWN0IGZpbGw9IiNFMkUyRjAiIGhlaWdodD0iNDMuOTY4OCIgcng9IjIuNSIgcnk9IjIuNSIgc3R5bGU9InN0cm9rZTojMTgxODE4O3N0cm9rZS13aWR0aDowLjU7IiB3aWR0aD0iMTEyIiB4PSI1OTAuNSIgeT0iNzEiLz48dGV4dCBmaWxsPSIjMDAwMDAwIiBmb250LWZhbWlseT0ic2Fucy1zZXJpZiIgZm9udC1zaXplPSIxNCIgZm9udC1zdHlsZT0iaXRhbGljIiBsZW5ndGhBZGp1c3Q9InNwYWNpbmciIHRleHRMZW5ndGg9Ijc3IiB4PSI2MDgiIHk9IjkxLjIzNDQiPiYjMTcxOyYjMTA1NzsmIzEwOTA7JiMxMDg4OyYjMTA3MjsmIzEwOTA7JiMxMDc3OyYjMTA3NTsmIzEwODA7JiMxMTAzOyYjMTg3OzwvdGV4dD48dGV4dCBmaWxsPSIjMDAwMDAwIiBmb250LWZhbWlseT0ic2Fucy1zZXJpZiIgZm9udC1zaXplPSIxNCIgbGVuZ3RoQWRqdXN0PSJzcGFjaW5nIiB0ZXh0TGVuZ3RoPSI5OCIgeD0iNTk3LjUiIHk9IjEwNi4yMTg4Ij5TZWFyY2hTdHJhdGVneTwvdGV4dD48L2c+PGcgY2xhc3M9InBhcnRpY2lwYW50IHBhcnRpY2lwYW50LXRhaWwiIGRhdGEtcGFydGljaXBhbnQ9IlN0cmF0ZWd5Ij48cmVjdCBmaWxsPSIjRTJFMkYwIiBoZWlnaHQ9IjQzLjk2ODgiIHJ4PSIyLjUiIHJ5PSIyLjUiIHN0eWxlPSJzdHJva2U6IzE4MTgxODtzdHJva2Utd2lkdGg6MC41OyIgd2lkdGg9IjExMiIgeD0iNTkwLjUiIHk9IjU2OS40NTMxIi8+PHRleHQgZmlsbD0iIzAwMDAwMCIgZm9udC1mYW1pbHk9InNhbnMtc2VyaWYiIGZvbnQtc2l6ZT0iMTQiIGZvbnQtc3R5bGU9Iml0YWxpYyIgbGVuZ3RoQWRqdXN0PSJzcGFjaW5nIiB0ZXh0TGVuZ3RoPSI3NyIgeD0iNjA4IiB5PSI1ODkuNjg3NSI+JiMxNzE7JiMxMDU3OyYjMTA5MDsmIzEwODg7JiMxMDcyOyYjMTA5MDsmIzEwNzc7JiMxMDc1OyYjMTA4MDsmIzExMDM7JiMxODc7PC90ZXh0Pjx0ZXh0IGZpbGw9IiMwMDAwMDAiIGZvbnQtZmFtaWx5PSJzYW5zLXNlcmlmIiBmb250LXNpemU9IjE0IiBsZW5ndGhBZGp1c3Q9InNwYWNpbmciIHRleHRMZW5ndGg9Ijk4IiB4PSI1OTcuNSIgeT0iNjA0LjY3MTkiPlNlYXJjaFN0cmF0ZWd5PC90ZXh0PjwvZz48ZyBjbGFzcz0icGFydGljaXBhbnQgcGFydGljaXBhbnQtaGVhZCIgZGF0YS1wYXJ0aWNpcGFudD0iVmFsaWRhdG9yIj48cmVjdCBmaWxsPSIjRTJFMkYwIiBoZWlnaHQ9IjI4Ljk4NDQiIHJ4PSIyLjUiIHJ5PSIyLjUiIHN0eWxlPSJzdHJva2U6IzE4MTgxODtzdHJva2Utd2lkdGg6MC41OyIgd2lkdGg9IjExOSIgeD0iNzEyLjUiIHk9Ijg1Ljk4NDQiLz48dGV4dCBmaWxsPSIjMDAwMDAwIiBmb250LWZhbWlseT0ic2Fucy1zZXJpZiIgZm9udC1zaXplPSIxNCIgbGVuZ3RoQWRqdXN0PSJzcGFjaW5nIiB0ZXh0TGVuZ3RoPSIxMDUiIHg9IjcxOS41IiB5PSIxMDYuMjE4OCI+RmlsdGVyVmFsaWRhdG9yPC90ZXh0PjwvZz48ZyBjbGFzcz0icGFydGljaXBhbnQgcGFydGljaXBhbnQtdGFpbCIgZGF0YS1wYXJ0aWNpcGFudD0iVmFsaWRhdG9yIj48cmVjdCBmaWxsPSIjRTJFMkYwIiBoZWlnaHQ9IjI4Ljk4NDQiIHJ4PSIyLjUiIHJ5PSIyLjUiIHN0eWxlPSJzdHJva2U6IzE4MTgxODtzdHJva2Utd2lkdGg6MC41OyIgd2lkdGg9IjExOSIgeD0iNzEyLjUiIHk9IjU2OS40NTMxIi8+PHRleHQgZmlsbD0iIzAwMDAwMCIgZm9udC1mYW1pbHk9InNhbnMtc2VyaWYiIGZvbnQtc2l6ZT0iMTQiIGxlbmd0aEFkanVzdD0ic3BhY2luZyIgdGV4dExlbmd0aD0iMTA1IiB4PSI3MTkuNSIgeT0iNTg5LjY4NzUiPkZpbHRlclZhbGlkYXRvcjwvdGV4dD48L2c+PGcgY2xhc3M9InBhcnRpY2lwYW50IHBhcnRpY2lwYW50LWhlYWQiIGRhdGEtcGFydGljaXBhbnQ9IkRCIj48cmVjdCBmaWxsPSIjRTJFMkYwIiBoZWlnaHQ9IjI4Ljk4NDQiIHJ4PSIyLjUiIHJ5PSIyLjUiIHN0eWxlPSJzdHJva2U6IzE4MTgxODtzdHJva2Utd2lkdGg6MC41OyIgd2lkdGg9IjcwIiB4PSI4NDEuNSIgeT0iODUuOTg0NCIvPjx0ZXh0IGZpbGw9IiMwMDAwMDAiIGZvbnQtZmFtaWx5PSJzYW5zLXNlcmlmIiBmb250LXNpemU9IjE0IiBsZW5ndGhBZGp1c3Q9InNwYWNpbmciIHRleHRMZW5ndGg9IjU2IiB4PSI4NDguNSIgeT0iMTA2LjIxODgiPkRhdGFiYXNlPC90ZXh0PjwvZz48ZyBjbGFzcz0icGFydGljaXBhbnQgcGFydGljaXBhbnQtdGFpbCIgZGF0YS1wYXJ0aWNpcGFudD0iREIiPjxyZWN0IGZpbGw9IiNFMkUyRjAiIGhlaWdodD0iMjguOTg0NCIgcng9IjIuNSIgcnk9IjIuNSIgc3R5bGU9InN0cm9rZTojMTgxODE4O3N0cm9rZS13aWR0aDowLjU7IiB3aWR0aD0iNzAiIHg9Ijg0MS41IiB5PSI1NjkuNDUzMSIvPjx0ZXh0IGZpbGw9IiMwMDAwMDAiIGZvbnQtZmFtaWx5PSJzYW5zLXNlcmlmIiBmb250LXNpemU9IjE0IiBsZW5ndGhBZGp1c3Q9InNwYWNpbmciIHRleHRMZW5ndGg9IjU2IiB4PSI4NDguNSIgeT0iNTg5LjY4NzUiPkRhdGFiYXNlPC90ZXh0PjwvZz48Zz48dGl0bGU+VUk8L3RpdGxlPjxyZWN0IGZpbGw9IiNGRkZGRkYiIGhlaWdodD0iNDE0LjU3MDMiIHN0eWxlPSJzdHJva2U6IzVENDAzNztzdHJva2Utd2lkdGg6MTsiIHdpZHRoPSIxMCIgeD0iMjgzIiB5PSIxNDUuODgyOCIvPjwvZz48Zz48dGl0bGU+Jmx0OyZsdDsmIzEwNjA7JiMxMDcyOyYjMTA4OTsmIzEwNzI7JiMxMDc2OyZndDsmZ3Q7PC90aXRsZT48cmVjdCBmaWxsPSIjRkZGRkZGIiBoZWlnaHQ9IjM0My43NDIyIiBzdHlsZT0ic3Ryb2tlOiM1RDQwMzc7c3Ryb2tlLXdpZHRoOjE7IiB3aWR0aD0iMTAiIHg9IjQ2NS41IiB5PSIxNzMuNzk2OSIvPjwvZz48Zz48dGl0bGU+Jmx0OyZsdDsmIzEwNTc7JiMxMDkwOyYjMTA4ODsmIzEwNzI7JiMxMDkwOyYjMTA3NzsmIzEwNzU7JiMxMDgwOyYjMTEwMzsmZ3Q7Jmd0OzwvdGl0bGU+PHJlY3QgZmlsbD0iI0ZGRkZGRiIgaGVpZ2h0PSIyNy45MTQxIiBzdHlsZT0ic3Ryb2tlOiM1RDQwMzc7c3Ryb2tlLXdpZHRoOjE7IiB3aWR0aD0iMTAiIHg9IjY0MS41IiB5PSIzNTAuMDU0NyIvPjwvZz48Zz48dGl0bGU+Jmx0OyZsdDsmIzEwNTc7JiMxMDkwOyYjMTA4ODsmIzEwNzI7JiMxMDkwOyYjMTA3NzsmIzEwNzU7JiMxMDgwOyYjMTEwMzsmZ3Q7Jmd0OzwvdGl0bGU+PHJlY3QgZmlsbD0iI0ZGRkZGRiIgaGVpZ2h0PSI4My43NDIyIiBzdHlsZT0ic3Ryb2tlOiM1RDQwMzc7c3Ryb2tlLXdpZHRoOjE7IiB3aWR0aD0iMTAiIHg9IjY0MS41IiB5PSI0MDUuODgyOCIvPjwvZz48Zz48dGl0bGU+RmlsdGVyVmFsaWRhdG9yPC90aXRsZT48cmVjdCBmaWxsPSIjRkZGRkZGIiBoZWlnaHQ9IjI3LjkxNDEiIHN0eWxlPSJzdHJva2U6IzVENDAzNztzdHJva2Utd2lkdGg6MTsiIHdpZHRoPSIxMCIgeD0iNzY3IiB5PSIyMDEuNzEwOSIvPjwvZz48Zz48dGl0bGU+RGF0YWJhc2U8L3RpdGxlPjxyZWN0IGZpbGw9IiNGRkZGRkYiIGhlaWdodD0iMjcuOTE0MSIgc3R5bGU9InN0cm9rZTojNUQ0MDM3O3N0cm9rZS13aWR0aDoxOyIgd2lkdGg9IjEwIiB4PSI4NzEuNSIgeT0iNDMzLjc5NjkiLz48L2c+PGcgY2xhc3M9Im1lc3NhZ2UiIGRhdGEtcGFydGljaXBhbnQtMT0iVXNlciIgZGF0YS1wYXJ0aWNpcGFudC0yPSJVSSI+PHBvbHlnb24gZmlsbD0iIzVENDAzNyIgcG9pbnRzPSIyNzEsMTQxLjg4MjgsMjgxLDE0NS44ODI4LDI3MSwxNDkuODgyOCwyNzUsMTQ1Ljg4MjgiIHN0eWxlPSJzdHJva2U6IzVENDAzNztzdHJva2Utd2lkdGg6MTsiLz48bGluZSBzdHlsZT0ic3Ryb2tlOiM1RDQwMzc7c3Ryb2tlLXdpZHRoOjE7IiB4MT0iNjUiIHgyPSIyNzciIHkxPSIxNDUuODgyOCIgeTI9IjE0NS44ODI4Ii8+PHRleHQgZmlsbD0iIzAwMDAwMCIgZm9udC1mYW1pbHk9InNhbnMtc2VyaWYiIGZvbnQtc2l6ZT0iMTMiIGZvbnQtd2VpZ2h0PSJib2xkIiBsZW5ndGhBZGp1c3Q9InNwYWNpbmciIHRleHRMZW5ndGg9IjYuNSIgeD0iNzIiIHk9IjE0Mi4yNTc4Ij4xPC90ZXh0Pjx0ZXh0IGZpbGw9IiMwMDAwMDAiIGZvbnQtZmFtaWx5PSJzYW5zLXNlcmlmIiBmb250LXNpemU9IjEzIiBsZW5ndGhBZGp1c3Q9InNwYWNpbmciIHRleHRMZW5ndGg9IjE4OC41IiB4PSI4Mi41IiB5PSIxNDIuMjU3OCI+JiMxMDQyOyYjMTA3NDsmIzEwODY7JiMxMDc2OyAmIzEwODc7JiMxMDcyOyYjMTA4ODsmIzEwNzI7JiMxMDg0OyYjMTA3NzsmIzEwOTA7JiMxMDg4OyYjMTA4NjsmIzEwNzQ7ICgmIzEwOTQ7JiMxMDc3OyYjMTA4NTsmIzEwNzI7LCAmIzEwODg7JiMxMDcyOyYjMTA4MTsmIzEwODY7JiMxMDg1Oyk8L3RleHQ+PC9nPjxnIGNsYXNzPSJtZXNzYWdlIiBkYXRhLXBhcnRpY2lwYW50LTE9IlVJIiBkYXRhLXBhcnRpY2lwYW50LTI9IkZhY2FkZSI+PHBvbHlnb24gZmlsbD0iIzVENDAzNyIgcG9pbnRzPSI0NTMuNSwxNjkuNzk2OSw0NjMuNSwxNzMuNzk2OSw0NTMuNSwxNzcuNzk2OSw0NTcuNSwxNzMuNzk2OSIgc3R5bGU9InN0cm9rZTojNUQ0MDM3O3N0cm9rZS13aWR0aDoxOyIvPjxsaW5lIHN0eWxlPSJzdHJva2U6IzVENDAzNztzdHJva2Utd2lkdGg6MTsiIHgxPSIyOTMiIHgyPSI0NTkuNSIgeTE9IjE3My43OTY5IiB5Mj0iMTczLjc5NjkiLz48dGV4dCBmaWxsPSIjMDAwMDAwIiBmb250LWZhbWlseT0ic2Fucy1zZXJpZiIgZm9udC1zaXplPSIxMyIgZm9udC13ZWlnaHQ9ImJvbGQiIGxlbmd0aEFkanVzdD0ic3BhY2luZyIgdGV4dExlbmd0aD0iNi41IiB4PSIzMDAiIHk9IjE3MC4xNzE5Ij4yPC90ZXh0Pjx0ZXh0IGZpbGw9IiMwMDAwMDAiIGZvbnQtZmFtaWx5PSJzYW5zLXNlcmlmIiBmb250LXNpemU9IjEzIiBsZW5ndGhBZGp1c3Q9InNwYWNpbmciIHRleHRMZW5ndGg9IjE0MyIgeD0iMzEwLjUiIHk9IjE3MC4xNzE5Ij5maW5kUHJvcGVydGllcyhwYXJhbXMpPC90ZXh0PjwvZz48ZyBjbGFzcz0ibWVzc2FnZSIgZGF0YS1wYXJ0aWNpcGFudC0xPSJGYWNhZGUiIGRhdGEtcGFydGljaXBhbnQtMj0iVmFsaWRhdG9yIj48cG9seWdvbiBmaWxsPSIjNUQ0MDM3IiBwb2ludHM9Ijc1NSwxOTcuNzEwOSw3NjUsMjAxLjcxMDksNzU1LDIwNS43MTA5LDc1OSwyMDEuNzEwOSIgc3R5bGU9InN0cm9rZTojNUQ0MDM3O3N0cm9rZS13aWR0aDoxOyIvPjxsaW5lIHN0eWxlPSJzdHJva2U6IzVENDAzNztzdHJva2Utd2lkdGg6MTsiIHgxPSI0NzUuNSIgeDI9Ijc2MSIgeTE9IjIwMS43MTA5IiB5Mj0iMjAxLjcxMDkiLz48dGV4dCBmaWxsPSIjMDAwMDAwIiBmb250LWZhbWlseT0ic2Fucy1zZXJpZiIgZm9udC1zaXplPSIxMyIgZm9udC13ZWlnaHQ9ImJvbGQiIGxlbmd0aEFkanVzdD0ic3BhY2luZyIgdGV4dExlbmd0aD0iNi41IiB4PSI0ODIuNSIgeT0iMTk4LjA4NTkiPjM8L3RleHQ+PHRleHQgZmlsbD0iIzAwMDAwMCIgZm9udC1mYW1pbHk9InNhbnMtc2VyaWYiIGZvbnQtc2l6ZT0iMTMiIGxlbmd0aEFkanVzdD0ic3BhY2luZyIgdGV4dExlbmd0aD0iMTQ5LjUiIHg9IjQ5MyIgeT0iMTk4LjA4NTkiPnZhbGlkYXRlRmlsdGVycyhwYXJhbXMpPC90ZXh0PjwvZz48ZyBjbGFzcz0ibWVzc2FnZSIgZGF0YS1wYXJ0aWNpcGFudC0xPSJWYWxpZGF0b3IiIGRhdGEtcGFydGljaXBhbnQtMj0iRmFjYWRlIj48cG9seWdvbiBmaWxsPSIjNUQ0MDM3IiBwb2ludHM9IjQ4Ni41LDIyNS42MjUsNDc2LjUsMjI5LjYyNSw0ODYuNSwyMzMuNjI1LDQ4Mi41LDIyOS42MjUiIHN0eWxlPSJzdHJva2U6IzVENDAzNztzdHJva2Utd2lkdGg6MTsiLz48bGluZSBzdHlsZT0ic3Ryb2tlOiM1RDQwMzc7c3Ryb2tlLXdpZHRoOjE7c3Ryb2tlLWRhc2hhcnJheToyLjAsMi4wOyIgeDE9IjQ4MC41IiB4Mj0iNzcxIiB5MT0iMjI5LjYyNSIgeTI9IjIyOS42MjUiLz48dGV4dCBmaWxsPSIjMDAwMDAwIiBmb250LWZhbWlseT0ic2Fucy1zZXJpZiIgZm9udC1zaXplPSIxMyIgZm9udC13ZWlnaHQ9ImJvbGQiIGxlbmd0aEFkanVzdD0ic3BhY2luZyIgdGV4dExlbmd0aD0iNi41IiB4PSI0OTIuNSIgeT0iMjI2Ij40PC90ZXh0Pjx0ZXh0IGZpbGw9IiMwMDAwMDAiIGZvbnQtZmFtaWx5PSJzYW5zLXNlcmlmIiBmb250LXNpemU9IjEzIiBsZW5ndGhBZGp1c3Q9InNwYWNpbmciIHRleHRMZW5ndGg9IjEwNCIgeD0iNTAzIiB5PSIyMjYiPnZhbGlkYXRpb25SZXN1bHQ8L3RleHQ+PC9nPjxwYXRoIGQ9Ik0xMCwyNDQuNjI1IEw3NC41LDI0NC42MjUgTDc0LjUsMjUwLjUzOTEgTDY0LjUsMjYwLjUzOTEgTDEwLDI2MC41MzkxIEwxMCwyNDQuNjI1IiBmaWxsPSIjRUVFRUVFIiBzdHlsZT0ic3Ryb2tlOiMwMDAwMDA7c3Ryb2tlLXdpZHRoOjEuNTsiLz48cmVjdCBmaWxsPSJub25lIiBoZWlnaHQ9IjMwOC44MjgxIiBzdHlsZT0ic3Ryb2tlOiMwMDAwMDA7c3Ryb2tlLXdpZHRoOjEuNTsiIHdpZHRoPSI5MTEuNSIgeD0iMTAiIHk9IjI0NC42MjUiLz48dGV4dCBmaWxsPSIjMDAwMDAwIiBmb250LWZhbWlseT0ic2Fucy1zZXJpZiIgZm9udC1zaXplPSIxMyIgZm9udC13ZWlnaHQ9ImJvbGQiIGxlbmd0aEFkanVzdD0ic3BhY2luZyIgdGV4dExlbmd0aD0iMTkuNSIgeD0iMjUiIHk9IjI1Ny45MTQxIj5hbHQ8L3RleHQ+PHRleHQgZmlsbD0iIzAwMDAwMCIgZm9udC1mYW1pbHk9InNhbnMtc2VyaWYiIGZvbnQtc2l6ZT0iMTEiIGZvbnQtd2VpZ2h0PSJib2xkIiBsZW5ndGhBZGp1c3Q9InNwYWNpbmciIHRleHRMZW5ndGg9IjEyMSIgeD0iODkuNSIgeT0iMjU3LjAyMzQiPlsmIzEwNTM7JiMxMDc3OyYjMTA3NDsmIzEwNzI7JiMxMDgzOyYjMTA4MDsmIzEwNzY7JiMxMDg1OyYjMTA5OTsmIzEwNzc7ICYjMTA4NzsmIzEwNzI7JiMxMDg4OyYjMTA3MjsmIzEwODQ7JiMxMDc3OyYjMTA5MDsmIzEwODg7JiMxMDk5O108L3RleHQ+PGcgY2xhc3M9Im1lc3NhZ2UiIGRhdGEtcGFydGljaXBhbnQtMT0iRmFjYWRlIiBkYXRhLXBhcnRpY2lwYW50LTI9IlVJIj48cG9seWdvbiBmaWxsPSIjNUQ0MDM3IiBwb2ludHM9IjMwNCwyNzYuNDUzMSwyOTQsMjgwLjQ1MzEsMzA0LDI4NC40NTMxLDMwMCwyODAuNDUzMSIgc3R5bGU9InN0cm9rZTojNUQ0MDM3O3N0cm9rZS13aWR0aDoxOyIvPjxsaW5lIHN0eWxlPSJzdHJva2U6IzVENDAzNztzdHJva2Utd2lkdGg6MTtzdHJva2UtZGFzaGFycmF5OjIuMCwyLjA7IiB4MT0iMjk4IiB4Mj0iNDY0LjUiIHkxPSIyODAuNDUzMSIgeTI9IjI4MC40NTMxIi8+PHRleHQgZmlsbD0iIzAwMDAwMCIgZm9udC1mYW1pbHk9InNhbnMtc2VyaWYiIGZvbnQtc2l6ZT0iMTMiIGZvbnQtd2VpZ2h0PSJib2xkIiBsZW5ndGhBZGp1c3Q9InNwYWNpbmciIHRleHRMZW5ndGg9IjYuNSIgeD0iMzEwIiB5PSIyNzYuODI4MSI+NTwvdGV4dD48dGV4dCBmaWxsPSIjMDAwMDAwIiBmb250LWZhbWlseT0ic2Fucy1zZXJpZiIgZm9udC1zaXplPSIxMyIgbGVuZ3RoQWRqdXN0PSJzcGFjaW5nIiB0ZXh0TGVuZ3RoPSIxMDQiIHg9IjMyMC41IiB5PSIyNzYuODI4MSI+JiMxMDU0OyYjMTA5NjsmIzEwODA7JiMxMDczOyYjMTA4MjsmIzEwNzI7ICYjMTA3NDsmIzEwNzI7JiMxMDgzOyYjMTA4MDsmIzEwNzY7JiMxMDcyOyYjMTA5NDsmIzEwODA7JiMxMDgwOzwvdGV4dD48L2c+PGcgY2xhc3M9Im1lc3NhZ2UiIGRhdGEtcGFydGljaXBhbnQtMT0iVUkiIGRhdGEtcGFydGljaXBhbnQtMj0iVXNlciI+PHBvbHlnb24gZmlsbD0iIzVENDAzNyIgcG9pbnRzPSI3NiwzMDQuMzY3Miw2NiwzMDguMzY3Miw3NiwzMTIuMzY3Miw3MiwzMDguMzY3MiIgc3R5bGU9InN0cm9rZTojNUQ0MDM3O3N0cm9rZS13aWR0aDoxOyIvPjxsaW5lIHN0eWxlPSJzdHJva2U6IzVENDAzNztzdHJva2Utd2lkdGg6MTsiIHgxPSI3MCIgeDI9IjI4MiIgeTE9IjMwOC4zNjcyIiB5Mj0iMzA4LjM2NzIiLz48dGV4dCBmaWxsPSIjMDAwMDAwIiBmb250LWZhbWlseT0ic2Fucy1zZXJpZiIgZm9udC1zaXplPSIxMyIgZm9udC13ZWlnaHQ9ImJvbGQiIGxlbmd0aEFkanVzdD0ic3BhY2luZyIgdGV4dExlbmd0aD0iNi41IiB4PSI4MiIgeT0iMzA0Ljc0MjIiPjY8L3RleHQ+PHRleHQgZmlsbD0iIzAwMDAwMCIgZm9udC1mYW1pbHk9InNhbnMtc2VyaWYiIGZvbnQtc2l6ZT0iMTMiIGxlbmd0aEFkanVzdD0ic3BhY2luZyIgdGV4dExlbmd0aD0iOTcuNSIgeD0iOTIuNSIgeT0iMzA0Ljc0MjIiPiYjMTA1NTsmIzEwODY7JiMxMDgyOyYjMTA3MjsmIzEwNzk7JiMxMDcyOyYjMTA5MDsmIzExMDA7ICYjMTA4NjsmIzEwOTY7JiMxMDgwOyYjMTA3MzsmIzEwODI7JiMxMDkxOzwvdGV4dD48L2c+PGxpbmUgc3R5bGU9InN0cm9rZTojMDAwMDAwO3N0cm9rZS13aWR0aDoxO3N0cm9rZS1kYXNoYXJyYXk6Mi4wLDIuMDsiIHgxPSIxMCIgeDI9IjkyMS41IiB5MT0iMzE3LjM2NzIiIHkyPSIzMTcuMzY3MiIvPjx0ZXh0IGZpbGw9IiMwMDAwMDAiIGZvbnQtZmFtaWx5PSJzYW5zLXNlcmlmIiBmb250LXNpemU9IjExIiBmb250LXdlaWdodD0iYm9sZCIgbGVuZ3RoQWRqdXN0PSJzcGFjaW5nIiB0ZXh0TGVuZ3RoPSIxMTAiIHg9IjE1IiB5PSIzMjcuNzY1NiI+WyYjMTA0MjsmIzEwNzI7JiMxMDgzOyYjMTA4MDsmIzEwNzY7JiMxMDg1OyYjMTA5OTsmIzEwNzc7ICYjMTA4NzsmIzEwNzI7JiMxMDg4OyYjMTA3MjsmIzEwODQ7JiMxMDc3OyYjMTA5MDsmIzEwODg7JiMxMDk5O108L3RleHQ+PGcgY2xhc3M9Im1lc3NhZ2UiIGRhdGEtcGFydGljaXBhbnQtMT0iRmFjYWRlIiBkYXRhLXBhcnRpY2lwYW50LTI9IlN0cmF0ZWd5Ij48cG9seWdvbiBmaWxsPSIjNUQ0MDM3IiBwb2ludHM9IjYyOS41LDM0Ni4wNTQ3LDYzOS41LDM1MC4wNTQ3LDYyOS41LDM1NC4wNTQ3LDYzMy41LDM1MC4wNTQ3IiBzdHlsZT0ic3Ryb2tlOiM1RDQwMzc7c3Ryb2tlLXdpZHRoOjE7Ii8+PGxpbmUgc3R5bGU9InN0cm9rZTojNUQ0MDM3O3N0cm9rZS13aWR0aDoxOyIgeDE9IjQ3NS41IiB4Mj0iNjM1LjUiIHkxPSIzNTAuMDU0NyIgeTI9IjM1MC4wNTQ3Ii8+PHRleHQgZmlsbD0iIzAwMDAwMCIgZm9udC1mYW1pbHk9InNhbnMtc2VyaWYiIGZvbnQtc2l6ZT0iMTMiIGZvbnQtd2VpZ2h0PSJib2xkIiBsZW5ndGhBZGp1c3Q9InNwYWNpbmciIHRleHRMZW5ndGg9IjYuNSIgeD0iNDgyLjUiIHk9IjM0Ni40Mjk3Ij43PC90ZXh0Pjx0ZXh0IGZpbGw9IiMwMDAwMDAiIGZvbnQtZmFtaWx5PSJzYW5zLXNlcmlmIiBmb250LXNpemU9IjEzIiBsZW5ndGhBZGp1c3Q9InNwYWNpbmciIHRleHRMZW5ndGg9IjExMC41IiB4PSI0OTMiIHk9IjM0Ni40Mjk3Ij5zZXRTdHJhdGVneSh0eXBlKTwvdGV4dD48L2c+PGcgY2xhc3M9Im1lc3NhZ2UiIGRhdGEtcGFydGljaXBhbnQtMT0iU3RyYXRlZ3kiIGRhdGEtcGFydGljaXBhbnQtMj0iRmFjYWRlIj48cG9seWdvbiBmaWxsPSIjNUQ0MDM3IiBwb2ludHM9IjQ4Ni41LDM3My45Njg4LDQ3Ni41LDM3Ny45Njg4LDQ4Ni41LDM4MS45Njg4LDQ4Mi41LDM3Ny45Njg4IiBzdHlsZT0ic3Ryb2tlOiM1RDQwMzc7c3Ryb2tlLXdpZHRoOjE7Ii8+PGxpbmUgc3R5bGU9InN0cm9rZTojNUQ0MDM3O3N0cm9rZS13aWR0aDoxO3N0cm9rZS1kYXNoYXJyYXk6Mi4wLDIuMDsiIHgxPSI0ODAuNSIgeDI9IjY0NS41IiB5MT0iMzc3Ljk2ODgiIHkyPSIzNzcuOTY4OCIvPjx0ZXh0IGZpbGw9IiMwMDAwMDAiIGZvbnQtZmFtaWx5PSJzYW5zLXNlcmlmIiBmb250LXNpemU9IjEzIiBmb250LXdlaWdodD0iYm9sZCIgbGVuZ3RoQWRqdXN0PSJzcGFjaW5nIiB0ZXh0TGVuZ3RoPSI2LjUiIHg9IjQ5Mi41IiB5PSIzNzQuMzQzOCI+ODwvdGV4dD48dGV4dCBmaWxsPSIjMDAwMDAwIiBmb250LWZhbWlseT0ic2Fucy1zZXJpZiIgZm9udC1zaXplPSIxMyIgbGVuZ3RoQWRqdXN0PSJzcGFjaW5nIiB0ZXh0TGVuZ3RoPSI4NC41IiB4PSI1MDMiIHk9IjM3NC4zNDM4Ij4mIzEwODc7JiMxMDg2OyYjMTA3NjsmIzEwOTA7JiMxMDc0OyYjMTA3NzsmIzEwODg7JiMxMDc4OyYjMTA3NjsmIzEwNzc7JiMxMDg1OyYjMTA4MDsmIzEwNzc7PC90ZXh0PjwvZz48ZyBjbGFzcz0ibWVzc2FnZSIgZGF0YS1wYXJ0aWNpcGFudC0xPSJGYWNhZGUiIGRhdGEtcGFydGljaXBhbnQtMj0iU3RyYXRlZ3kiPjxwb2x5Z29uIGZpbGw9IiM1RDQwMzciIHBvaW50cz0iNjI5LjUsNDAxLjg4MjgsNjM5LjUsNDA1Ljg4MjgsNjI5LjUsNDA5Ljg4MjgsNjMzLjUsNDA1Ljg4MjgiIHN0eWxlPSJzdHJva2U6IzVENDAzNztzdHJva2Utd2lkdGg6MTsiLz48bGluZSBzdHlsZT0ic3Ryb2tlOiM1RDQwMzc7c3Ryb2tlLXdpZHRoOjE7IiB4MT0iNDc1LjUiIHgyPSI2MzUuNSIgeTE9IjQwNS44ODI4IiB5Mj0iNDA1Ljg4MjgiLz48dGV4dCBmaWxsPSIjMDAwMDAwIiBmb250LWZhbWlseT0ic2Fucy1zZXJpZiIgZm9udC1zaXplPSIxMyIgZm9udC13ZWlnaHQ9ImJvbGQiIGxlbmd0aEFkanVzdD0ic3BhY2luZyIgdGV4dExlbmd0aD0iNi41IiB4PSI0ODIuNSIgeT0iNDAyLjI1NzgiPjk8L3RleHQ+PHRleHQgZmlsbD0iIzAwMDAwMCIgZm9udC1mYW1pbHk9InNhbnMtc2VyaWYiIGZvbnQtc2l6ZT0iMTMiIGxlbmd0aEFkanVzdD0ic3BhY2luZyIgdGV4dExlbmd0aD0iMTM2LjUiIHg9IjQ5MyIgeT0iNDAyLjI1NzgiPmV4ZWN1dGVTZWFyY2gocGFyYW1zKTwvdGV4dD48L2c+PGcgY2xhc3M9Im1lc3NhZ2UiIGRhdGEtcGFydGljaXBhbnQtMT0iU3RyYXRlZ3kiIGRhdGEtcGFydGljaXBhbnQtMj0iREIiPjxwb2x5Z29uIGZpbGw9IiM1RDQwMzciIHBvaW50cz0iODU5LjUsNDI5Ljc5NjksODY5LjUsNDMzLjc5NjksODU5LjUsNDM3Ljc5NjksODYzLjUsNDMzLjc5NjkiIHN0eWxlPSJzdHJva2U6IzVENDAzNztzdHJva2Utd2lkdGg6MTsiLz48bGluZSBzdHlsZT0ic3Ryb2tlOiM1RDQwMzc7c3Ryb2tlLXdpZHRoOjE7IiB4MT0iNjUxLjUiIHgyPSI4NjUuNSIgeTE9IjQzMy43OTY5IiB5Mj0iNDMzLjc5NjkiLz48dGV4dCBmaWxsPSIjMDAwMDAwIiBmb250LWZhbWlseT0ic2Fucy1zZXJpZiIgZm9udC1zaXplPSIxMyIgZm9udC13ZWlnaHQ9ImJvbGQiIGxlbmd0aEFkanVzdD0ic3BhY2luZyIgdGV4dExlbmd0aD0iMTMiIHg9IjY1OC41IiB5PSI0MzAuMTcxOSI+MTA8L3RleHQ+PHRleHQgZmlsbD0iIzAwMDAwMCIgZm9udC1mYW1pbHk9InNhbnMtc2VyaWYiIGZvbnQtc2l6ZT0iMTMiIGxlbmd0aEFkanVzdD0ic3BhY2luZyIgdGV4dExlbmd0aD0iMTQ5LjUiIHg9IjY3NS41IiB5PSI0MzAuMTcxOSI+cXVlcnlQcm9wZXJ0aWVzKHBhcmFtcyk8L3RleHQ+PC9nPjxnIGNsYXNzPSJtZXNzYWdlIiBkYXRhLXBhcnRpY2lwYW50LTE9IkRCIiBkYXRhLXBhcnRpY2lwYW50LTI9IlN0cmF0ZWd5Ij48cG9seWdvbiBmaWxsPSIjNUQ0MDM3IiBwb2ludHM9IjY2Mi41LDQ1Ny43MTA5LDY1Mi41LDQ2MS43MTA5LDY2Mi41LDQ2NS43MTA5LDY1OC41LDQ2MS43MTA5IiBzdHlsZT0ic3Ryb2tlOiM1RDQwMzc7c3Ryb2tlLXdpZHRoOjE7Ii8+PGxpbmUgc3R5bGU9InN0cm9rZTojNUQ0MDM3O3N0cm9rZS13aWR0aDoxO3N0cm9rZS1kYXNoYXJyYXk6Mi4wLDIuMDsiIHgxPSI2NTYuNSIgeDI9Ijg3NS41IiB5MT0iNDYxLjcxMDkiIHkyPSI0NjEuNzEwOSIvPjx0ZXh0IGZpbGw9IiMwMDAwMDAiIGZvbnQtZmFtaWx5PSJzYW5zLXNlcmlmIiBmb250LXNpemU9IjEzIiBmb250LXdlaWdodD0iYm9sZCIgbGVuZ3RoQWRqdXN0PSJzcGFjaW5nIiB0ZXh0TGVuZ3RoPSIxMyIgeD0iNjY4LjUiIHk9IjQ1OC4wODU5Ij4xMTwvdGV4dD48dGV4dCBmaWxsPSIjMDAwMDAwIiBmb250LWZhbWlseT0ic2Fucy1zZXJpZiIgZm9udC1zaXplPSIxMyIgbGVuZ3RoQWRqdXN0PSJzcGFjaW5nIiB0ZXh0TGVuZ3RoPSI0NS41IiB4PSI2ODUuNSIgeT0iNDU4LjA4NTkiPnJlc3VsdHM8L3RleHQ+PC9nPjxnIGNsYXNzPSJtZXNzYWdlIiBkYXRhLXBhcnRpY2lwYW50LTE9IlN0cmF0ZWd5IiBkYXRhLXBhcnRpY2lwYW50LTI9IkZhY2FkZSI+PHBvbHlnb24gZmlsbD0iIzVENDAzNyIgcG9pbnRzPSI0ODYuNSw0ODUuNjI1LDQ3Ni41LDQ4OS42MjUsNDg2LjUsNDkzLjYyNSw0ODIuNSw0ODkuNjI1IiBzdHlsZT0ic3Ryb2tlOiM1RDQwMzc7c3Ryb2tlLXdpZHRoOjE7Ii8+PGxpbmUgc3R5bGU9InN0cm9rZTojNUQ0MDM3O3N0cm9rZS13aWR0aDoxO3N0cm9rZS1kYXNoYXJyYXk6Mi4wLDIuMDsiIHgxPSI0ODAuNSIgeDI9IjY0NS41IiB5MT0iNDg5LjYyNSIgeTI9IjQ4OS42MjUiLz48dGV4dCBmaWxsPSIjMDAwMDAwIiBmb250LWZhbWlseT0ic2Fucy1zZXJpZiIgZm9udC1zaXplPSIxMyIgZm9udC13ZWlnaHQ9ImJvbGQiIGxlbmd0aEFkanVzdD0ic3BhY2luZyIgdGV4dExlbmd0aD0iMTMiIHg9IjQ5Mi41IiB5PSI0ODYiPjEyPC90ZXh0Pjx0ZXh0IGZpbGw9IiMwMDAwMDAiIGZvbnQtZmFtaWx5PSJzYW5zLXNlcmlmIiBmb250LXNpemU9IjEzIiBsZW5ndGhBZGp1c3Q9InNwYWNpbmciIHRleHRMZW5ndGg9Ijg0LjUiIHg9IjUwOS41IiB5PSI0ODYiPnNlYXJjaFJlc3VsdHM8L3RleHQ+PC9nPjxnIGNsYXNzPSJtZXNzYWdlIiBkYXRhLXBhcnRpY2lwYW50LTE9IkZhY2FkZSIgZGF0YS1wYXJ0aWNpcGFudC0yPSJVSSI+PHBvbHlnb24gZmlsbD0iIzVENDAzNyIgcG9pbnRzPSIzMDQsNTEzLjUzOTEsMjk0LDUxNy41MzkxLDMwNCw1MjEuNTM5MSwzMDAsNTE3LjUzOTEiIHN0eWxlPSJzdHJva2U6IzVENDAzNztzdHJva2Utd2lkdGg6MTsiLz48bGluZSBzdHlsZT0ic3Ryb2tlOiM1RDQwMzc7c3Ryb2tlLXdpZHRoOjE7c3Ryb2tlLWRhc2hhcnJheToyLjAsMi4wOyIgeDE9IjI5OCIgeDI9IjQ2OS41IiB5MT0iNTE3LjUzOTEiIHkyPSI1MTcuNTM5MSIvPjx0ZXh0IGZpbGw9IiMwMDAwMDAiIGZvbnQtZmFtaWx5PSJzYW5zLXNlcmlmIiBmb250LXNpemU9IjEzIiBmb250LXdlaWdodD0iYm9sZCIgbGVuZ3RoQWRqdXN0PSJzcGFjaW5nIiB0ZXh0TGVuZ3RoPSIxMyIgeD0iMzEwIiB5PSI1MTMuOTE0MSI+MTM8L3RleHQ+PHRleHQgZmlsbD0iIzAwMDAwMCIgZm9udC1mYW1pbHk9InNhbnMtc2VyaWYiIGZvbnQtc2l6ZT0iMTMiIGxlbmd0aEFkanVzdD0ic3BhY2luZyIgdGV4dExlbmd0aD0iOTcuNSIgeD0iMzI3IiB5PSI1MTMuOTE0MSI+JiMxMDg5OyYjMTA4NzsmIzEwODA7JiMxMDg5OyYjMTA4NjsmIzEwODI7ICYjMTA4NjsmIzEwNzM7JiMxMDk4OyYjMTA3NzsmIzEwODI7JiMxMDkwOyYjMTA4NjsmIzEwNzQ7PC90ZXh0PjwvZz48ZyBjbGFzcz0ibWVzc2FnZSIgZGF0YS1wYXJ0aWNpcGFudC0xPSJVSSIgZGF0YS1wYXJ0aWNpcGFudC0yPSJVc2VyIj48cG9seWdvbiBmaWxsPSIjNUQ0MDM3IiBwb2ludHM9Ijc2LDU0MS40NTMxLDY2LDU0NS40NTMxLDc2LDU0OS40NTMxLDcyLDU0NS40NTMxIiBzdHlsZT0ic3Ryb2tlOiM1RDQwMzc7c3Ryb2tlLXdpZHRoOjE7Ii8+PGxpbmUgc3R5bGU9InN0cm9rZTojNUQ0MDM3O3N0cm9rZS13aWR0aDoxOyIgeDE9IjcwIiB4Mj0iMjgyIiB5MT0iNTQ1LjQ1MzEiIHkyPSI1NDUuNDUzMSIvPjx0ZXh0IGZpbGw9IiMwMDAwMDAiIGZvbnQtZmFtaWx5PSJzYW5zLXNlcmlmIiBmb250LXNpemU9IjEzIiBmb250LXdlaWdodD0iYm9sZCIgbGVuZ3RoQWRqdXN0PSJzcGFjaW5nIiB0ZXh0TGVuZ3RoPSIxMyIgeD0iODIiIHk9IjU0MS44MjgxIj4xNDwvdGV4dD48dGV4dCBmaWxsPSIjMDAwMDAwIiBmb250LWZhbWlseT0ic2Fucy1zZXJpZiIgZm9udC1zaXplPSIxMyIgbGVuZ3RoQWRqdXN0PSJzcGFjaW5nIiB0ZXh0TGVuZ3RoPSIxMzYuNSIgeD0iOTkiIHk9IjU0MS44MjgxIj4mIzEwNTQ7JiMxMDkwOyYjMTA4NjsmIzEwNzM7JiMxMDg4OyYjMTA3MjsmIzEwNzk7JiMxMDgwOyYjMTA5MDsmIzExMDA7ICYjMTA4ODsmIzEwNzc7JiMxMDc5OyYjMTA5MTsmIzEwODM7JiMxMTAwOyYjMTA5MDsmIzEwNzI7JiMxMDkwOyYjMTA5OTs8L3RleHQ+PC9nPjwhLS1TUkM9W2JMSlRRWEQxNUJ3VmZwWjRjbkdpMjJmMkEwNWhBR0h3OEl0blZmZkNUTjZ4NnNTZHJJMTJxdUE4QUhJeWpxTm0wVEFPalI0cndJa1NVSUVfY0tzczZycUhCeEJQY0piX3R5LWkyS29lWUNfajhTX2lVcXZqdF9ROVJ0WjY0emxkQW51SUpwZGJDT3p1bWpfbi11Y3VsWnRZWUtYVTFiNTdRaGJGWU5oTExMNUJxTGoxejVaaC1GTUpFOG1ydE5jdXlVM1VfS1ZPdDBoc3I1T0dnVkxPanZMVUZkcWRYNm1QUjVKdTc3c2x4R2JWdWRfNEd4SDl0UmYyQ2c1Y2VoSDBGbkVxV2V3QzM1TVFaVW9XaVJvemV3SGtsVFlLQlRiTUZZMXhmUktyX2VnUVZIeG9rNXVsb3phbk1YaHJsRVVwNVdrTnp5S1VXUTFpZGN6V3ZsSnRfQ3FXRDRlX2FzN0diZTNZMi1JaHZUMERRVUlrSkJCSERqTzFsY2xZZ0JrXzJ0WjJXUUpMRVozTFkzLTFXbmNGZEhuM3JueFNmdHVHYTRETGZuUXE2VHViVl9PM2t6Q0xuc0htV0JhVEF3QlBTQktvLTNOUTJ3QnNLbnJ0NThQSElUTEJibkdvaVpXWHZkR1hDcVRHZXVGaUxNTDBJeDlscVVQbGo1aGVGWXlHbkQ2c0loZ1g0TXJMYVlqYVE4V18wbmRhdnNsdVJTbkpFLTNxM25CaTBCUFFaQmZXeENuLUdDZjV2amxSMmFEbURPNVpZSjk2N0NrOFRjdjM5RG02UFVxOW1UZHBUN2lpTDlXZTl5NV9KNTdGRkxGM2JKMkJIVE5xRWNlNVNKZFVuR2RzU2ZTTGtWQnRSbW90WlQzYjREVGt4QU1VUzhnQzBjLTVFZHlQR3hySGhRdkhjUnJwcVZ1cklYcy1oMTdrakV3TDZBUUczVmlJN2R4dXN3UlEydm1pcC1mM0l6NGNWaFpqaWdIb1c3RXJTUERsXzVTQUFhOHhsaDBWR1RDTFFDRnpNQXVwanhRbGljSTFDbnp6dUlNekgzNWQwb25JbGhKN3hpazNPLVVEV0wxSE1uR2pzc3B5MFcwMF0tLT48L2c+PC9zdmc+;" vertex="1" parent="1">
            <mxGeometry x="872" y="-788" width="928" height="649" as="geometry" />
          </mxCell>
        </UserObject>
      </root>
    </mxGraphModel>
  </diagram>
</mxfile>
